<mxfile host="app.diagrams.net" agent="Mozilla/5.0 (Windows NT 10.0; Win64; x64) AppleWebKit/537.36 (KHTML, like Gecko) Chrome/138.0.0.0 Safari/537.36 Edg/138.0.0.0" version="27.1.6" pages="6">
  <diagram id="3MTcr3TNhr-JeccO8icO" name="6-1">
    <mxGraphModel dx="946" dy="621" grid="1" gridSize="10" guides="1" tooltips="1" connect="1" arrows="1" fold="1" page="1" pageScale="1" pageWidth="827" pageHeight="1169" math="0" shadow="0">
      <root>
        <mxCell id="0" />
        <mxCell id="1" parent="0" />
        <mxCell id="F8xEh22ZQfdJpCzwcIAk-1" value="" style="whiteSpace=wrap;html=1;aspect=fixed;" parent="1" vertex="1">
          <mxGeometry x="40" y="338.5" width="20" height="20" as="geometry" />
        </mxCell>
        <mxCell id="F8xEh22ZQfdJpCzwcIAk-54" style="edgeStyle=orthogonalEdgeStyle;rounded=0;orthogonalLoop=1;jettySize=auto;html=1;exitX=1;exitY=0.5;exitDx=0;exitDy=0;entryX=0;entryY=0.5;entryDx=0;entryDy=0;" parent="1" source="F8xEh22ZQfdJpCzwcIAk-2" target="F8xEh22ZQfdJpCzwcIAk-4" edge="1">
          <mxGeometry relative="1" as="geometry" />
        </mxCell>
        <mxCell id="F8xEh22ZQfdJpCzwcIAk-2" value="" style="whiteSpace=wrap;html=1;aspect=fixed;" parent="1" vertex="1">
          <mxGeometry x="60" y="338.5" width="20" height="20" as="geometry" />
        </mxCell>
        <mxCell id="F8xEh22ZQfdJpCzwcIAk-3" value="取指&lt;div&gt;IF&lt;/div&gt;" style="text;html=1;align=center;verticalAlign=middle;resizable=0;points=[];autosize=1;strokeColor=none;fillColor=none;" parent="1" vertex="1">
          <mxGeometry x="40" y="361.5" width="50" height="40" as="geometry" />
        </mxCell>
        <mxCell id="F8xEh22ZQfdJpCzwcIAk-51" style="edgeStyle=orthogonalEdgeStyle;rounded=0;orthogonalLoop=1;jettySize=auto;html=1;exitX=1;exitY=0.5;exitDx=0;exitDy=0;entryX=0;entryY=0.5;entryDx=0;entryDy=0;" parent="1" source="F8xEh22ZQfdJpCzwcIAk-4" target="F8xEh22ZQfdJpCzwcIAk-8" edge="1">
          <mxGeometry relative="1" as="geometry" />
        </mxCell>
        <mxCell id="F8xEh22ZQfdJpCzwcIAk-53" style="edgeStyle=orthogonalEdgeStyle;rounded=0;orthogonalLoop=1;jettySize=auto;html=1;exitX=1;exitY=0.5;exitDx=0;exitDy=0;entryX=0;entryY=0.5;entryDx=0;entryDy=0;" parent="1" source="F8xEh22ZQfdJpCzwcIAk-4" target="F8xEh22ZQfdJpCzwcIAk-9" edge="1">
          <mxGeometry relative="1" as="geometry" />
        </mxCell>
        <mxCell id="F8xEh22ZQfdJpCzwcIAk-55" style="edgeStyle=orthogonalEdgeStyle;rounded=0;orthogonalLoop=1;jettySize=auto;html=1;exitX=1;exitY=0.5;exitDx=0;exitDy=0;entryX=0;entryY=0.5;entryDx=0;entryDy=0;" parent="1" source="F8xEh22ZQfdJpCzwcIAk-4" target="F8xEh22ZQfdJpCzwcIAk-13" edge="1">
          <mxGeometry relative="1" as="geometry" />
        </mxCell>
        <mxCell id="F8xEh22ZQfdJpCzwcIAk-56" style="edgeStyle=orthogonalEdgeStyle;rounded=0;orthogonalLoop=1;jettySize=auto;html=1;exitX=1;exitY=0.5;exitDx=0;exitDy=0;entryX=0;entryY=0.5;entryDx=0;entryDy=0;" parent="1" source="F8xEh22ZQfdJpCzwcIAk-4" target="F8xEh22ZQfdJpCzwcIAk-32" edge="1">
          <mxGeometry relative="1" as="geometry" />
        </mxCell>
        <mxCell id="F8xEh22ZQfdJpCzwcIAk-4" value="" style="whiteSpace=wrap;html=1;aspect=fixed;" parent="1" vertex="1">
          <mxGeometry x="130" y="338.5" width="20" height="20" as="geometry" />
        </mxCell>
        <mxCell id="F8xEh22ZQfdJpCzwcIAk-7" value="译码&lt;div&gt;ID&lt;/div&gt;" style="text;html=1;align=center;verticalAlign=middle;resizable=0;points=[];autosize=1;strokeColor=none;fillColor=none;" parent="1" vertex="1">
          <mxGeometry x="115" y="361.5" width="50" height="40" as="geometry" />
        </mxCell>
        <mxCell id="F8xEh22ZQfdJpCzwcIAk-63" style="edgeStyle=orthogonalEdgeStyle;rounded=0;orthogonalLoop=1;jettySize=auto;html=1;exitX=1;exitY=0.5;exitDx=0;exitDy=0;entryX=0;entryY=0.5;entryDx=0;entryDy=0;" parent="1" source="F8xEh22ZQfdJpCzwcIAk-8" target="F8xEh22ZQfdJpCzwcIAk-57" edge="1">
          <mxGeometry relative="1" as="geometry">
            <Array as="points">
              <mxPoint x="420" y="242" />
              <mxPoint x="420" y="350" />
            </Array>
          </mxGeometry>
        </mxCell>
        <mxCell id="F8xEh22ZQfdJpCzwcIAk-8" value="" style="whiteSpace=wrap;html=1;aspect=fixed;" parent="1" vertex="1">
          <mxGeometry x="199" y="231.81" width="20" height="20" as="geometry" />
        </mxCell>
        <mxCell id="F8xEh22ZQfdJpCzwcIAk-9" value="" style="whiteSpace=wrap;html=1;aspect=fixed;" parent="1" vertex="1">
          <mxGeometry x="199" y="299.81" width="20" height="20" as="geometry" />
        </mxCell>
        <mxCell id="F8xEh22ZQfdJpCzwcIAk-10" value="" style="whiteSpace=wrap;html=1;aspect=fixed;" parent="1" vertex="1">
          <mxGeometry x="219" y="299.81" width="20" height="20" as="geometry" />
        </mxCell>
        <mxCell id="F8xEh22ZQfdJpCzwcIAk-11" value="" style="whiteSpace=wrap;html=1;aspect=fixed;" parent="1" vertex="1">
          <mxGeometry x="239" y="299.81" width="20" height="20" as="geometry" />
        </mxCell>
        <mxCell id="F8xEh22ZQfdJpCzwcIAk-64" style="edgeStyle=orthogonalEdgeStyle;rounded=0;orthogonalLoop=1;jettySize=auto;html=1;exitX=1;exitY=0.5;exitDx=0;exitDy=0;entryX=0;entryY=0.5;entryDx=0;entryDy=0;" parent="1" source="F8xEh22ZQfdJpCzwcIAk-12" target="F8xEh22ZQfdJpCzwcIAk-57" edge="1">
          <mxGeometry relative="1" as="geometry">
            <Array as="points">
              <mxPoint x="420" y="310" />
              <mxPoint x="420" y="350" />
            </Array>
          </mxGeometry>
        </mxCell>
        <mxCell id="F8xEh22ZQfdJpCzwcIAk-12" value="" style="whiteSpace=wrap;html=1;aspect=fixed;" parent="1" vertex="1">
          <mxGeometry x="259" y="299.81" width="20" height="20" as="geometry" />
        </mxCell>
        <mxCell id="F8xEh22ZQfdJpCzwcIAk-13" value="" style="whiteSpace=wrap;html=1;aspect=fixed;" parent="1" vertex="1">
          <mxGeometry x="199" y="369.81" width="20" height="20" as="geometry" />
        </mxCell>
        <mxCell id="F8xEh22ZQfdJpCzwcIAk-14" value="" style="whiteSpace=wrap;html=1;aspect=fixed;" parent="1" vertex="1">
          <mxGeometry x="219" y="369.81" width="20" height="20" as="geometry" />
        </mxCell>
        <mxCell id="F8xEh22ZQfdJpCzwcIAk-15" value="" style="whiteSpace=wrap;html=1;aspect=fixed;" parent="1" vertex="1">
          <mxGeometry x="239" y="369.81" width="20" height="20" as="geometry" />
        </mxCell>
        <mxCell id="F8xEh22ZQfdJpCzwcIAk-65" style="edgeStyle=orthogonalEdgeStyle;rounded=0;orthogonalLoop=1;jettySize=auto;html=1;exitX=1;exitY=0.5;exitDx=0;exitDy=0;entryX=0;entryY=0.5;entryDx=0;entryDy=0;" parent="1" source="F8xEh22ZQfdJpCzwcIAk-16" target="F8xEh22ZQfdJpCzwcIAk-57" edge="1">
          <mxGeometry relative="1" as="geometry">
            <Array as="points">
              <mxPoint x="420" y="380" />
              <mxPoint x="420" y="350" />
            </Array>
          </mxGeometry>
        </mxCell>
        <mxCell id="F8xEh22ZQfdJpCzwcIAk-16" value="" style="whiteSpace=wrap;html=1;aspect=fixed;" parent="1" vertex="1">
          <mxGeometry x="299" y="369.81" width="20" height="20" as="geometry" />
        </mxCell>
        <mxCell id="F8xEh22ZQfdJpCzwcIAk-19" value="" style="shape=curlyBracket;whiteSpace=wrap;html=1;rounded=1;labelPosition=left;verticalLabelPosition=middle;align=right;verticalAlign=middle;rotation=-90;" parent="1" vertex="1">
          <mxGeometry x="249" y="339.81" width="20" height="120" as="geometry" />
        </mxCell>
        <mxCell id="F8xEh22ZQfdJpCzwcIAk-22" value="..." style="rounded=0;whiteSpace=wrap;html=1;" parent="1" vertex="1">
          <mxGeometry x="259" y="369.81" width="40" height="20" as="geometry" />
        </mxCell>
        <mxCell id="F8xEh22ZQfdJpCzwcIAk-23" value="8" style="text;html=1;align=center;verticalAlign=middle;resizable=0;points=[];autosize=1;strokeColor=none;fillColor=none;" parent="1" vertex="1">
          <mxGeometry x="244" y="407.81" width="30" height="30" as="geometry" />
        </mxCell>
        <mxCell id="F8xEh22ZQfdJpCzwcIAk-32" value="" style="whiteSpace=wrap;html=1;aspect=fixed;" parent="1" vertex="1">
          <mxGeometry x="199" y="442.81" width="20" height="20" as="geometry" />
        </mxCell>
        <mxCell id="F8xEh22ZQfdJpCzwcIAk-33" value="" style="whiteSpace=wrap;html=1;aspect=fixed;" parent="1" vertex="1">
          <mxGeometry x="219" y="442.81" width="20" height="20" as="geometry" />
        </mxCell>
        <mxCell id="F8xEh22ZQfdJpCzwcIAk-34" value="" style="whiteSpace=wrap;html=1;aspect=fixed;" parent="1" vertex="1">
          <mxGeometry x="239" y="442.81" width="20" height="20" as="geometry" />
        </mxCell>
        <mxCell id="F8xEh22ZQfdJpCzwcIAk-67" style="edgeStyle=orthogonalEdgeStyle;rounded=0;orthogonalLoop=1;jettySize=auto;html=1;exitX=1;exitY=0.5;exitDx=0;exitDy=0;entryX=0;entryY=0.5;entryDx=0;entryDy=0;" parent="1" source="F8xEh22ZQfdJpCzwcIAk-35" target="F8xEh22ZQfdJpCzwcIAk-57" edge="1">
          <mxGeometry relative="1" as="geometry" />
        </mxCell>
        <mxCell id="F8xEh22ZQfdJpCzwcIAk-35" value="" style="whiteSpace=wrap;html=1;aspect=fixed;" parent="1" vertex="1">
          <mxGeometry x="339" y="442.81" width="20" height="20" as="geometry" />
        </mxCell>
        <mxCell id="F8xEh22ZQfdJpCzwcIAk-36" value="" style="shape=curlyBracket;whiteSpace=wrap;html=1;rounded=1;labelPosition=left;verticalLabelPosition=middle;align=right;verticalAlign=middle;rotation=-90;" parent="1" vertex="1">
          <mxGeometry x="269" y="392.44" width="20" height="160.75" as="geometry" />
        </mxCell>
        <mxCell id="F8xEh22ZQfdJpCzwcIAk-37" value="..." style="rounded=0;whiteSpace=wrap;html=1;" parent="1" vertex="1">
          <mxGeometry x="259" y="442.81" width="80" height="20" as="geometry" />
        </mxCell>
        <mxCell id="F8xEh22ZQfdJpCzwcIAk-38" value="36" style="text;html=1;align=center;verticalAlign=middle;resizable=0;points=[];autosize=1;strokeColor=none;fillColor=none;" parent="1" vertex="1">
          <mxGeometry x="259" y="480.81" width="40" height="30" as="geometry" />
        </mxCell>
        <mxCell id="F8xEh22ZQfdJpCzwcIAk-57" value="" style="whiteSpace=wrap;html=1;aspect=fixed;" parent="1" vertex="1">
          <mxGeometry x="480" y="340" width="20" height="20" as="geometry" />
        </mxCell>
        <mxCell id="F8xEh22ZQfdJpCzwcIAk-58" value="" style="whiteSpace=wrap;html=1;aspect=fixed;" parent="1" vertex="1">
          <mxGeometry x="500" y="340" width="20" height="20" as="geometry" />
        </mxCell>
        <mxCell id="-ibgg5Om32j-pX7u0PhT-1" style="edgeStyle=orthogonalEdgeStyle;rounded=0;orthogonalLoop=1;jettySize=auto;html=1;exitX=1;exitY=0.5;exitDx=0;exitDy=0;" edge="1" parent="1" source="F8xEh22ZQfdJpCzwcIAk-59">
          <mxGeometry relative="1" as="geometry">
            <mxPoint x="570" y="350.0344827586207" as="targetPoint" />
          </mxGeometry>
        </mxCell>
        <mxCell id="F8xEh22ZQfdJpCzwcIAk-59" value="" style="whiteSpace=wrap;html=1;aspect=fixed;" parent="1" vertex="1">
          <mxGeometry x="520" y="340" width="20" height="20" as="geometry" />
        </mxCell>
        <mxCell id="F8xEh22ZQfdJpCzwcIAk-60" value="访存&lt;div&gt;MEM&lt;/div&gt;" style="text;html=1;align=center;verticalAlign=middle;resizable=0;points=[];autosize=1;strokeColor=none;fillColor=none;" parent="1" vertex="1">
          <mxGeometry x="485" y="361.5" width="50" height="40" as="geometry" />
        </mxCell>
        <mxCell id="F8xEh22ZQfdJpCzwcIAk-61" value="" style="whiteSpace=wrap;html=1;aspect=fixed;" parent="1" vertex="1">
          <mxGeometry x="570" y="340" width="20" height="20" as="geometry" />
        </mxCell>
        <mxCell id="F8xEh22ZQfdJpCzwcIAk-62" value="写回&lt;div&gt;WB&lt;/div&gt;" style="text;html=1;align=center;verticalAlign=middle;resizable=0;points=[];autosize=1;strokeColor=none;fillColor=none;" parent="1" vertex="1">
          <mxGeometry x="555" y="361.5" width="50" height="40" as="geometry" />
        </mxCell>
        <mxCell id="F8xEh22ZQfdJpCzwcIAk-68" value="整数运算" style="text;html=1;align=center;verticalAlign=middle;resizable=0;points=[];autosize=1;strokeColor=none;fillColor=none;" parent="1" vertex="1">
          <mxGeometry x="274" y="209.81" width="70" height="30" as="geometry" />
        </mxCell>
        <mxCell id="F8xEh22ZQfdJpCzwcIAk-69" value="浮点加减" style="text;html=1;align=center;verticalAlign=middle;resizable=0;points=[];autosize=1;strokeColor=none;fillColor=none;" parent="1" vertex="1">
          <mxGeometry x="294" y="277.81" width="70" height="30" as="geometry" />
        </mxCell>
        <mxCell id="F8xEh22ZQfdJpCzwcIAk-70" value="浮点乘法" style="text;html=1;align=center;verticalAlign=middle;resizable=0;points=[];autosize=1;strokeColor=none;fillColor=none;" parent="1" vertex="1">
          <mxGeometry x="314" y="347.81" width="70" height="30" as="geometry" />
        </mxCell>
        <mxCell id="F8xEh22ZQfdJpCzwcIAk-71" value="浮点除法" style="text;html=1;align=center;verticalAlign=middle;resizable=0;points=[];autosize=1;strokeColor=none;fillColor=none;" parent="1" vertex="1">
          <mxGeometry x="344" y="417.81" width="70" height="30" as="geometry" />
        </mxCell>
        <mxCell id="-ibgg5Om32j-pX7u0PhT-2" value="" style="shape=curlyBracket;whiteSpace=wrap;html=1;rounded=1;labelPosition=left;verticalLabelPosition=middle;align=right;verticalAlign=middle;rotation=-90;" vertex="1" parent="1">
          <mxGeometry x="199" y="249.81" width="20" height="20" as="geometry" />
        </mxCell>
        <mxCell id="-ibgg5Om32j-pX7u0PhT-3" value="1" style="text;html=1;align=center;verticalAlign=middle;resizable=0;points=[];autosize=1;strokeColor=none;fillColor=none;" vertex="1" parent="1">
          <mxGeometry x="194" y="269.81" width="30" height="30" as="geometry" />
        </mxCell>
        <mxCell id="-ibgg5Om32j-pX7u0PhT-4" value="" style="shape=curlyBracket;whiteSpace=wrap;html=1;rounded=1;labelPosition=left;verticalLabelPosition=middle;align=right;verticalAlign=middle;rotation=-90;" vertex="1" parent="1">
          <mxGeometry x="229" y="289.81" width="20" height="80" as="geometry" />
        </mxCell>
        <mxCell id="-ibgg5Om32j-pX7u0PhT-5" value="4" style="text;html=1;align=center;verticalAlign=middle;resizable=0;points=[];autosize=1;strokeColor=none;fillColor=none;" vertex="1" parent="1">
          <mxGeometry x="224" y="338.31" width="30" height="30" as="geometry" />
        </mxCell>
      </root>
    </mxGraphModel>
  </diagram>
  <diagram id="JGx-832xVF4lv-lajTiY" name="6-2">
    <mxGraphModel dx="920" dy="514" grid="1" gridSize="10" guides="1" tooltips="1" connect="1" arrows="1" fold="1" page="1" pageScale="1" pageWidth="827" pageHeight="1169" math="0" shadow="0">
      <root>
        <mxCell id="0" />
        <mxCell id="1" parent="0" />
        <mxCell id="BdHy_id4-90hP_OZupwu-1" value="" style="group" parent="1" vertex="1" connectable="0">
          <mxGeometry x="180" y="480" width="20.004999999999995" height="80" as="geometry" />
        </mxCell>
        <mxCell id="BdHy_id4-90hP_OZupwu-2" value="PC" style="rounded=0;whiteSpace=wrap;html=1;" parent="BdHy_id4-90hP_OZupwu-1" vertex="1">
          <mxGeometry width="20" height="80" as="geometry" />
        </mxCell>
        <mxCell id="BdHy_id4-90hP_OZupwu-4" value="" style="group" parent="1" vertex="1" connectable="0">
          <mxGeometry x="300" y="480" width="20.004999999999995" height="80" as="geometry" />
        </mxCell>
        <mxCell id="BdHy_id4-90hP_OZupwu-5" value="F/D" style="rounded=0;whiteSpace=wrap;html=1;" parent="BdHy_id4-90hP_OZupwu-4" vertex="1">
          <mxGeometry width="20" height="80" as="geometry" />
        </mxCell>
        <mxCell id="BdHy_id4-90hP_OZupwu-6" value="" style="triangle;whiteSpace=wrap;html=1;rotation=-90;" parent="BdHy_id4-90hP_OZupwu-4" vertex="1">
          <mxGeometry x="3.1299999999999955" y="61.879999999999995" width="13.75" height="20" as="geometry" />
        </mxCell>
        <mxCell id="BdHy_id4-90hP_OZupwu-7" style="edgeStyle=orthogonalEdgeStyle;rounded=0;orthogonalLoop=1;jettySize=auto;html=1;exitX=1;exitY=0.5;exitDx=0;exitDy=0;entryX=0;entryY=0.5;entryDx=0;entryDy=0;endArrow=none;startFill=0;" parent="1" source="BdHy_id4-90hP_OZupwu-8" target="BdHy_id4-90hP_OZupwu-5" edge="1">
          <mxGeometry relative="1" as="geometry" />
        </mxCell>
        <mxCell id="BdHy_id4-90hP_OZupwu-8" value="I-cache" style="rounded=1;whiteSpace=wrap;html=1;arcSize=32;" parent="1" vertex="1">
          <mxGeometry x="220" y="505" width="60" height="30" as="geometry" />
        </mxCell>
        <mxCell id="BdHy_id4-90hP_OZupwu-9" style="edgeStyle=orthogonalEdgeStyle;rounded=0;orthogonalLoop=1;jettySize=auto;html=1;exitX=1;exitY=0.5;exitDx=0;exitDy=0;entryX=0;entryY=0.5;entryDx=0;entryDy=0;endArrow=none;startFill=0;" parent="1" source="BdHy_id4-90hP_OZupwu-2" target="BdHy_id4-90hP_OZupwu-8" edge="1">
          <mxGeometry relative="1" as="geometry" />
        </mxCell>
        <mxCell id="BdHy_id4-90hP_OZupwu-10" style="edgeStyle=orthogonalEdgeStyle;rounded=0;orthogonalLoop=1;jettySize=auto;html=1;exitX=1;exitY=0.5;exitDx=0;exitDy=0;entryX=0;entryY=0.5;entryDx=0;entryDy=0;endArrow=none;startFill=0;" parent="1" target="BdHy_id4-90hP_OZupwu-84" edge="1">
          <mxGeometry relative="1" as="geometry">
            <mxPoint x="400" y="515" as="sourcePoint" />
            <Array as="points">
              <mxPoint x="400" y="520" />
            </Array>
          </mxGeometry>
        </mxCell>
        <mxCell id="BdHy_id4-90hP_OZupwu-11" value="decode" style="rounded=1;whiteSpace=wrap;html=1;arcSize=32;" parent="1" vertex="1">
          <mxGeometry x="340" y="505" width="60" height="30" as="geometry" />
        </mxCell>
        <mxCell id="BdHy_id4-90hP_OZupwu-12" style="edgeStyle=orthogonalEdgeStyle;rounded=0;orthogonalLoop=1;jettySize=auto;html=1;exitX=1;exitY=0.5;exitDx=0;exitDy=0;entryX=0;entryY=0.5;entryDx=0;entryDy=0;endArrow=none;startFill=0;" parent="1" source="BdHy_id4-90hP_OZupwu-5" edge="1">
          <mxGeometry relative="1" as="geometry">
            <mxPoint x="340" y="520" as="targetPoint" />
          </mxGeometry>
        </mxCell>
        <mxCell id="BdHy_id4-90hP_OZupwu-34" value="" style="group" parent="1" vertex="1" connectable="0">
          <mxGeometry x="510" y="480" width="10" height="40" as="geometry" />
        </mxCell>
        <mxCell id="BdHy_id4-90hP_OZupwu-35" value="" style="rounded=0;whiteSpace=wrap;html=1;" parent="BdHy_id4-90hP_OZupwu-34" vertex="1">
          <mxGeometry width="10" height="40" as="geometry" />
        </mxCell>
        <mxCell id="BdHy_id4-90hP_OZupwu-36" value="" style="triangle;whiteSpace=wrap;html=1;rotation=-90;" parent="BdHy_id4-90hP_OZupwu-34" vertex="1">
          <mxGeometry x="2.5" y="32.5" width="5" height="10" as="geometry" />
        </mxCell>
        <mxCell id="BdHy_id4-90hP_OZupwu-37" style="edgeStyle=orthogonalEdgeStyle;rounded=0;orthogonalLoop=1;jettySize=auto;html=1;exitX=1;exitY=0.5;exitDx=0;exitDy=0;entryX=0;entryY=0.5;entryDx=0;entryDy=0;" parent="1" source="BdHy_id4-90hP_OZupwu-38" target="BdHy_id4-90hP_OZupwu-35" edge="1">
          <mxGeometry relative="1" as="geometry" />
        </mxCell>
        <mxCell id="BdHy_id4-90hP_OZupwu-38" value="A0" style="rounded=1;whiteSpace=wrap;html=1;arcSize=32;" parent="1" vertex="1">
          <mxGeometry x="460" y="490" width="30" height="20" as="geometry" />
        </mxCell>
        <mxCell id="BdHy_id4-90hP_OZupwu-39" value="" style="group" parent="1" vertex="1" connectable="0">
          <mxGeometry x="590" y="480" width="10" height="40" as="geometry" />
        </mxCell>
        <mxCell id="BdHy_id4-90hP_OZupwu-40" value="" style="rounded=0;whiteSpace=wrap;html=1;" parent="BdHy_id4-90hP_OZupwu-39" vertex="1">
          <mxGeometry width="10" height="40" as="geometry" />
        </mxCell>
        <mxCell id="BdHy_id4-90hP_OZupwu-41" value="" style="triangle;whiteSpace=wrap;html=1;rotation=-90;" parent="BdHy_id4-90hP_OZupwu-39" vertex="1">
          <mxGeometry x="2.5" y="32.5" width="5" height="10" as="geometry" />
        </mxCell>
        <mxCell id="L0Bg7Ld19MsG-IBqD2fD-2" value="" style="endArrow=none;dashed=1;html=1;rounded=0;" edge="1" parent="BdHy_id4-90hP_OZupwu-39">
          <mxGeometry width="50" height="50" relative="1" as="geometry">
            <mxPoint x="10" y="120" as="sourcePoint" />
            <mxPoint x="10" y="-20" as="targetPoint" />
          </mxGeometry>
        </mxCell>
        <mxCell id="BdHy_id4-90hP_OZupwu-43" style="edgeStyle=orthogonalEdgeStyle;rounded=0;orthogonalLoop=1;jettySize=auto;html=1;exitX=1;exitY=0.5;exitDx=0;exitDy=0;entryX=0;entryY=0.5;entryDx=0;entryDy=0;" parent="1" source="BdHy_id4-90hP_OZupwu-44" target="BdHy_id4-90hP_OZupwu-40" edge="1">
          <mxGeometry relative="1" as="geometry" />
        </mxCell>
        <mxCell id="BdHy_id4-90hP_OZupwu-44" value="A1" style="rounded=1;whiteSpace=wrap;html=1;arcSize=32;" parent="1" vertex="1">
          <mxGeometry x="540" y="490" width="30" height="20" as="geometry" />
        </mxCell>
        <mxCell id="BdHy_id4-90hP_OZupwu-45" style="edgeStyle=orthogonalEdgeStyle;rounded=0;orthogonalLoop=1;jettySize=auto;html=1;exitX=1;exitY=0.5;exitDx=0;exitDy=0;entryX=0;entryY=0.5;entryDx=0;entryDy=0;" parent="1" target="BdHy_id4-90hP_OZupwu-38" edge="1">
          <mxGeometry relative="1" as="geometry">
            <mxPoint x="440" y="500" as="sourcePoint" />
          </mxGeometry>
        </mxCell>
        <mxCell id="BdHy_id4-90hP_OZupwu-46" style="edgeStyle=orthogonalEdgeStyle;rounded=0;orthogonalLoop=1;jettySize=auto;html=1;exitX=1;exitY=0.5;exitDx=0;exitDy=0;entryX=0;entryY=0.5;entryDx=0;entryDy=0;" parent="1" source="BdHy_id4-90hP_OZupwu-35" target="BdHy_id4-90hP_OZupwu-44" edge="1">
          <mxGeometry relative="1" as="geometry" />
        </mxCell>
        <mxCell id="BdHy_id4-90hP_OZupwu-47" value="" style="group" parent="1" vertex="1" connectable="0">
          <mxGeometry x="510" y="530" width="10" height="40" as="geometry" />
        </mxCell>
        <mxCell id="BdHy_id4-90hP_OZupwu-48" value="" style="rounded=0;whiteSpace=wrap;html=1;" parent="BdHy_id4-90hP_OZupwu-47" vertex="1">
          <mxGeometry width="10" height="40" as="geometry" />
        </mxCell>
        <mxCell id="BdHy_id4-90hP_OZupwu-49" value="" style="triangle;whiteSpace=wrap;html=1;rotation=-90;" parent="BdHy_id4-90hP_OZupwu-47" vertex="1">
          <mxGeometry x="2.5" y="32.5" width="5" height="10" as="geometry" />
        </mxCell>
        <mxCell id="BdHy_id4-90hP_OZupwu-50" style="edgeStyle=orthogonalEdgeStyle;rounded=0;orthogonalLoop=1;jettySize=auto;html=1;exitX=1;exitY=0.5;exitDx=0;exitDy=0;entryX=0;entryY=0.5;entryDx=0;entryDy=0;" parent="1" source="BdHy_id4-90hP_OZupwu-51" target="BdHy_id4-90hP_OZupwu-48" edge="1">
          <mxGeometry relative="1" as="geometry" />
        </mxCell>
        <mxCell id="BdHy_id4-90hP_OZupwu-51" value="M0" style="rounded=1;whiteSpace=wrap;html=1;arcSize=32;" parent="1" vertex="1">
          <mxGeometry x="460" y="540" width="30" height="20" as="geometry" />
        </mxCell>
        <mxCell id="BdHy_id4-90hP_OZupwu-52" value="" style="group" parent="1" vertex="1" connectable="0">
          <mxGeometry x="590" y="530" width="10" height="40" as="geometry" />
        </mxCell>
        <mxCell id="BdHy_id4-90hP_OZupwu-53" value="" style="rounded=0;whiteSpace=wrap;html=1;" parent="BdHy_id4-90hP_OZupwu-52" vertex="1">
          <mxGeometry width="10" height="40" as="geometry" />
        </mxCell>
        <mxCell id="BdHy_id4-90hP_OZupwu-54" value="" style="triangle;whiteSpace=wrap;html=1;rotation=-90;" parent="BdHy_id4-90hP_OZupwu-52" vertex="1">
          <mxGeometry x="2.5" y="32.5" width="5" height="10" as="geometry" />
        </mxCell>
        <mxCell id="BdHy_id4-90hP_OZupwu-55" style="edgeStyle=orthogonalEdgeStyle;rounded=0;orthogonalLoop=1;jettySize=auto;html=1;exitX=1;exitY=0.5;exitDx=0;exitDy=0;entryX=0;entryY=0.5;entryDx=0;entryDy=0;" parent="1" source="BdHy_id4-90hP_OZupwu-56" target="BdHy_id4-90hP_OZupwu-53" edge="1">
          <mxGeometry relative="1" as="geometry" />
        </mxCell>
        <mxCell id="BdHy_id4-90hP_OZupwu-56" value="M1" style="rounded=1;whiteSpace=wrap;html=1;arcSize=32;" parent="1" vertex="1">
          <mxGeometry x="540" y="540" width="30" height="20" as="geometry" />
        </mxCell>
        <mxCell id="BdHy_id4-90hP_OZupwu-57" style="edgeStyle=orthogonalEdgeStyle;rounded=0;orthogonalLoop=1;jettySize=auto;html=1;exitX=1;exitY=0.5;exitDx=0;exitDy=0;entryX=0;entryY=0.5;entryDx=0;entryDy=0;" parent="1" source="BdHy_id4-90hP_OZupwu-48" target="BdHy_id4-90hP_OZupwu-56" edge="1">
          <mxGeometry relative="1" as="geometry" />
        </mxCell>
        <mxCell id="BdHy_id4-90hP_OZupwu-58" value="" style="group" parent="1" vertex="1" connectable="0">
          <mxGeometry x="670" y="530" width="10" height="40" as="geometry" />
        </mxCell>
        <mxCell id="BdHy_id4-90hP_OZupwu-59" value="" style="rounded=0;whiteSpace=wrap;html=1;" parent="BdHy_id4-90hP_OZupwu-58" vertex="1">
          <mxGeometry width="10" height="40" as="geometry" />
        </mxCell>
        <mxCell id="BdHy_id4-90hP_OZupwu-60" value="" style="triangle;whiteSpace=wrap;html=1;rotation=-90;" parent="BdHy_id4-90hP_OZupwu-58" vertex="1">
          <mxGeometry x="2.5" y="32.5" width="5" height="10" as="geometry" />
        </mxCell>
        <mxCell id="BdHy_id4-90hP_OZupwu-61" style="edgeStyle=orthogonalEdgeStyle;rounded=0;orthogonalLoop=1;jettySize=auto;html=1;exitX=1;exitY=0.5;exitDx=0;exitDy=0;entryX=0;entryY=0.5;entryDx=0;entryDy=0;" parent="1" source="BdHy_id4-90hP_OZupwu-62" target="BdHy_id4-90hP_OZupwu-59" edge="1">
          <mxGeometry relative="1" as="geometry" />
        </mxCell>
        <mxCell id="BdHy_id4-90hP_OZupwu-62" value="M2" style="rounded=1;whiteSpace=wrap;html=1;arcSize=32;" parent="1" vertex="1">
          <mxGeometry x="620" y="540" width="30" height="20" as="geometry" />
        </mxCell>
        <mxCell id="BdHy_id4-90hP_OZupwu-63" value="" style="group" parent="1" vertex="1" connectable="0">
          <mxGeometry x="750" y="530" width="10" height="40" as="geometry" />
        </mxCell>
        <mxCell id="BdHy_id4-90hP_OZupwu-64" value="" style="rounded=0;whiteSpace=wrap;html=1;" parent="BdHy_id4-90hP_OZupwu-63" vertex="1">
          <mxGeometry width="10" height="40" as="geometry" />
        </mxCell>
        <mxCell id="BdHy_id4-90hP_OZupwu-65" value="" style="triangle;whiteSpace=wrap;html=1;rotation=-90;" parent="BdHy_id4-90hP_OZupwu-63" vertex="1">
          <mxGeometry x="2.5" y="32.5" width="5" height="10" as="geometry" />
        </mxCell>
        <mxCell id="BdHy_id4-90hP_OZupwu-66" style="edgeStyle=orthogonalEdgeStyle;rounded=0;orthogonalLoop=1;jettySize=auto;html=1;exitX=1;exitY=0.5;exitDx=0;exitDy=0;entryX=0;entryY=0.5;entryDx=0;entryDy=0;" parent="1" source="BdHy_id4-90hP_OZupwu-67" target="BdHy_id4-90hP_OZupwu-64" edge="1">
          <mxGeometry relative="1" as="geometry" />
        </mxCell>
        <mxCell id="BdHy_id4-90hP_OZupwu-67" value="M3" style="rounded=1;whiteSpace=wrap;html=1;arcSize=32;" parent="1" vertex="1">
          <mxGeometry x="700" y="540" width="30" height="20" as="geometry" />
        </mxCell>
        <mxCell id="BdHy_id4-90hP_OZupwu-68" style="edgeStyle=orthogonalEdgeStyle;rounded=0;orthogonalLoop=1;jettySize=auto;html=1;exitX=1;exitY=0.5;exitDx=0;exitDy=0;entryX=0;entryY=0.5;entryDx=0;entryDy=0;" parent="1" source="BdHy_id4-90hP_OZupwu-59" target="BdHy_id4-90hP_OZupwu-67" edge="1">
          <mxGeometry relative="1" as="geometry" />
        </mxCell>
        <mxCell id="BdHy_id4-90hP_OZupwu-69" style="edgeStyle=orthogonalEdgeStyle;rounded=0;orthogonalLoop=1;jettySize=auto;html=1;exitX=1;exitY=0.5;exitDx=0;exitDy=0;entryX=0;entryY=0.5;entryDx=0;entryDy=0;" parent="1" target="BdHy_id4-90hP_OZupwu-51" edge="1">
          <mxGeometry relative="1" as="geometry">
            <mxPoint x="440" y="555" as="sourcePoint" />
            <Array as="points">
              <mxPoint x="440" y="550" />
            </Array>
          </mxGeometry>
        </mxCell>
        <mxCell id="BdHy_id4-90hP_OZupwu-70" style="edgeStyle=orthogonalEdgeStyle;rounded=0;orthogonalLoop=1;jettySize=auto;html=1;exitX=1;exitY=0.5;exitDx=0;exitDy=0;entryX=0;entryY=0.5;entryDx=0;entryDy=0;" parent="1" source="BdHy_id4-90hP_OZupwu-53" target="BdHy_id4-90hP_OZupwu-62" edge="1">
          <mxGeometry relative="1" as="geometry" />
        </mxCell>
        <mxCell id="BdHy_id4-90hP_OZupwu-71" value="" style="group;" parent="1" vertex="1" connectable="0">
          <mxGeometry x="870" y="480" width="20.004999999999995" height="80" as="geometry" />
        </mxCell>
        <mxCell id="BdHy_id4-90hP_OZupwu-72" value="&lt;font&gt;M&lt;/font&gt;" style="rounded=0;whiteSpace=wrap;html=1;" parent="BdHy_id4-90hP_OZupwu-71" vertex="1">
          <mxGeometry width="20" height="80" as="geometry" />
        </mxCell>
        <mxCell id="BdHy_id4-90hP_OZupwu-73" value="" style="triangle;whiteSpace=wrap;html=1;rotation=-90;" parent="BdHy_id4-90hP_OZupwu-71" vertex="1">
          <mxGeometry x="3.1299999999999955" y="61.879999999999995" width="13.75" height="20" as="geometry" />
        </mxCell>
        <mxCell id="BdHy_id4-90hP_OZupwu-75" style="rounded=0;orthogonalLoop=1;jettySize=auto;html=1;exitX=1;exitY=0.5;exitDx=0;exitDy=0;entryX=0;entryY=0.25;entryDx=0;entryDy=0;" parent="1" source="BdHy_id4-90hP_OZupwu-40" target="BdHy_id4-90hP_OZupwu-100" edge="1">
          <mxGeometry relative="1" as="geometry" />
        </mxCell>
        <mxCell id="BdHy_id4-90hP_OZupwu-76" style="rounded=0;orthogonalLoop=1;jettySize=auto;html=1;exitX=1;exitY=0.5;exitDx=0;exitDy=0;entryX=0;entryY=0.75;entryDx=0;entryDy=0;" parent="1" source="BdHy_id4-90hP_OZupwu-64" edge="1">
          <mxGeometry relative="1" as="geometry">
            <mxPoint x="790" y="532.5" as="targetPoint" />
          </mxGeometry>
        </mxCell>
        <mxCell id="BdHy_id4-90hP_OZupwu-77" value="" style="group" parent="1" vertex="1" connectable="0">
          <mxGeometry x="920" y="480" width="20.004999999999995" height="80" as="geometry" />
        </mxCell>
        <mxCell id="BdHy_id4-90hP_OZupwu-78" value="WB" style="rounded=0;whiteSpace=wrap;html=1;" parent="BdHy_id4-90hP_OZupwu-77" vertex="1">
          <mxGeometry width="20" height="80" as="geometry" />
        </mxCell>
        <mxCell id="BdHy_id4-90hP_OZupwu-79" value="" style="triangle;whiteSpace=wrap;html=1;rotation=-90;" parent="BdHy_id4-90hP_OZupwu-77" vertex="1">
          <mxGeometry x="3.1299999999999955" y="61.879999999999995" width="13.75" height="20" as="geometry" />
        </mxCell>
        <mxCell id="BdHy_id4-90hP_OZupwu-80" style="edgeStyle=orthogonalEdgeStyle;rounded=0;orthogonalLoop=1;jettySize=auto;html=1;exitX=1;exitY=0.5;exitDx=0;exitDy=0;entryX=0;entryY=0.5;entryDx=0;entryDy=0;" parent="1" source="BdHy_id4-90hP_OZupwu-72" target="BdHy_id4-90hP_OZupwu-78" edge="1">
          <mxGeometry relative="1" as="geometry" />
        </mxCell>
        <mxCell id="BdHy_id4-90hP_OZupwu-81" value="" style="endArrow=none;dashed=1;html=1;rounded=0;" parent="1" edge="1">
          <mxGeometry width="50" height="50" relative="1" as="geometry">
            <mxPoint x="200" y="620" as="sourcePoint" />
            <mxPoint x="200" y="440" as="targetPoint" />
          </mxGeometry>
        </mxCell>
        <mxCell id="BdHy_id4-90hP_OZupwu-82" value="" style="endArrow=none;dashed=1;html=1;rounded=0;" parent="1" edge="1">
          <mxGeometry width="50" height="50" relative="1" as="geometry">
            <mxPoint x="320" y="620" as="sourcePoint" />
            <mxPoint x="320.01" y="440" as="targetPoint" />
          </mxGeometry>
        </mxCell>
        <mxCell id="BdHy_id4-90hP_OZupwu-83" value="" style="group" parent="1" vertex="1" connectable="0">
          <mxGeometry x="420" y="480" width="20.004999999999995" height="80" as="geometry" />
        </mxCell>
        <mxCell id="BdHy_id4-90hP_OZupwu-84" value="D/E" style="rounded=0;whiteSpace=wrap;html=1;" parent="BdHy_id4-90hP_OZupwu-83" vertex="1">
          <mxGeometry width="20" height="80" as="geometry" />
        </mxCell>
        <mxCell id="BdHy_id4-90hP_OZupwu-85" value="" style="triangle;whiteSpace=wrap;html=1;rotation=-90;" parent="BdHy_id4-90hP_OZupwu-83" vertex="1">
          <mxGeometry x="3.1299999999999955" y="61.879999999999995" width="13.75" height="20" as="geometry" />
        </mxCell>
        <mxCell id="BdHy_id4-90hP_OZupwu-86" value="" style="endArrow=none;dashed=1;html=1;rounded=0;" parent="BdHy_id4-90hP_OZupwu-83" edge="1">
          <mxGeometry width="50" height="50" relative="1" as="geometry">
            <mxPoint x="20" y="140" as="sourcePoint" />
            <mxPoint x="20.00999999999999" y="-40" as="targetPoint" />
          </mxGeometry>
        </mxCell>
        <mxCell id="BdHy_id4-90hP_OZupwu-88" value="" style="endArrow=none;dashed=1;html=1;rounded=0;" parent="1" edge="1">
          <mxGeometry width="50" height="50" relative="1" as="geometry">
            <mxPoint x="520" y="600" as="sourcePoint" />
            <mxPoint x="520" y="460" as="targetPoint" />
          </mxGeometry>
        </mxCell>
        <mxCell id="BdHy_id4-90hP_OZupwu-90" value="" style="endArrow=none;dashed=1;html=1;rounded=0;" parent="1" edge="1">
          <mxGeometry width="50" height="50" relative="1" as="geometry">
            <mxPoint x="760" y="620" as="sourcePoint" />
            <mxPoint x="760" y="440" as="targetPoint" />
          </mxGeometry>
        </mxCell>
        <mxCell id="BdHy_id4-90hP_OZupwu-92" value="取指&lt;div&gt;IF&lt;/div&gt;" style="text;html=1;align=center;verticalAlign=middle;resizable=0;points=[];autosize=1;strokeColor=none;fillColor=none;" parent="1" vertex="1">
          <mxGeometry x="230" y="600" width="50" height="40" as="geometry" />
        </mxCell>
        <mxCell id="BdHy_id4-90hP_OZupwu-93" value="译码&lt;div&gt;ID&lt;/div&gt;" style="text;html=1;align=center;verticalAlign=middle;resizable=0;points=[];autosize=1;strokeColor=none;fillColor=none;" parent="1" vertex="1">
          <mxGeometry x="350" y="600" width="50" height="40" as="geometry" />
        </mxCell>
        <mxCell id="BdHy_id4-90hP_OZupwu-96" value="执行&lt;div&gt;EX&lt;/div&gt;" style="text;html=1;align=center;verticalAlign=middle;resizable=0;points=[];autosize=1;strokeColor=none;fillColor=none;" parent="1" vertex="1">
          <mxGeometry x="580" y="600" width="50" height="40" as="geometry" />
        </mxCell>
        <mxCell id="BdHy_id4-90hP_OZupwu-97" value="访存&lt;div&gt;MEM&lt;/div&gt;" style="text;html=1;align=center;verticalAlign=middle;resizable=0;points=[];autosize=1;strokeColor=none;fillColor=none;" parent="1" vertex="1">
          <mxGeometry x="795" y="600" width="50" height="40" as="geometry" />
        </mxCell>
        <mxCell id="BdHy_id4-90hP_OZupwu-98" value="写回&lt;div&gt;WB&lt;/div&gt;" style="text;html=1;align=center;verticalAlign=middle;resizable=0;points=[];autosize=1;strokeColor=none;fillColor=none;" parent="1" vertex="1">
          <mxGeometry x="890.01" y="600" width="50" height="40" as="geometry" />
        </mxCell>
        <mxCell id="BdHy_id4-90hP_OZupwu-99" style="edgeStyle=orthogonalEdgeStyle;rounded=0;orthogonalLoop=1;jettySize=auto;html=1;exitX=1;exitY=0.5;exitDx=0;exitDy=0;entryX=0;entryY=0.5;entryDx=0;entryDy=0;" parent="1" source="BdHy_id4-90hP_OZupwu-100" target="BdHy_id4-90hP_OZupwu-72" edge="1">
          <mxGeometry relative="1" as="geometry">
            <Array as="points">
              <mxPoint x="860" y="520" />
              <mxPoint x="860" y="520" />
            </Array>
          </mxGeometry>
        </mxCell>
        <mxCell id="BdHy_id4-90hP_OZupwu-100" value="D-cache" style="rounded=1;whiteSpace=wrap;html=1;arcSize=32;" parent="1" vertex="1">
          <mxGeometry x="790" y="505" width="60" height="30" as="geometry" />
        </mxCell>
        <mxCell id="L0Bg7Ld19MsG-IBqD2fD-3" value="" style="endArrow=none;dashed=1;html=1;rounded=0;" edge="1" parent="1">
          <mxGeometry width="50" height="50" relative="1" as="geometry">
            <mxPoint x="680" y="600" as="sourcePoint" />
            <mxPoint x="680" y="460" as="targetPoint" />
          </mxGeometry>
        </mxCell>
        <mxCell id="BdHy_id4-90hP_OZupwu-3" value="" style="triangle;whiteSpace=wrap;html=1;rotation=-90;" parent="1" vertex="1">
          <mxGeometry x="183.13" y="541.88" width="13.75" height="20" as="geometry" />
        </mxCell>
        <mxCell id="e5U0HgXmlm9ed7UVqpKG-1" value="" style="endArrow=none;dashed=1;html=1;rounded=0;" edge="1" parent="1">
          <mxGeometry width="50" height="50" relative="1" as="geometry">
            <mxPoint x="890.01" y="620" as="sourcePoint" />
            <mxPoint x="890.01" y="440" as="targetPoint" />
          </mxGeometry>
        </mxCell>
        <mxCell id="e5U0HgXmlm9ed7UVqpKG-2" value="" style="endArrow=none;dashed=1;html=1;rounded=0;" edge="1" parent="1">
          <mxGeometry width="50" height="50" relative="1" as="geometry">
            <mxPoint x="939.44" y="620" as="sourcePoint" />
            <mxPoint x="939.44" y="440" as="targetPoint" />
          </mxGeometry>
        </mxCell>
      </root>
    </mxGraphModel>
  </diagram>
  <diagram id="V3mJKftNvcIM1z_xhnJW" name="6-5">
    <mxGraphModel dx="920" dy="514" grid="1" gridSize="10" guides="1" tooltips="1" connect="1" arrows="1" fold="1" page="1" pageScale="1" pageWidth="827" pageHeight="1169" math="0" shadow="0">
      <root>
        <mxCell id="0" />
        <mxCell id="1" parent="0" />
        <mxCell id="gsuzVnjwvJ-2prfaanhb-1" value="" style="group" parent="1" vertex="1" connectable="0">
          <mxGeometry x="180" y="640" width="20.004999999999995" height="80" as="geometry" />
        </mxCell>
        <mxCell id="gsuzVnjwvJ-2prfaanhb-2" value="PC" style="rounded=0;whiteSpace=wrap;html=1;" parent="gsuzVnjwvJ-2prfaanhb-1" vertex="1">
          <mxGeometry width="20" height="80" as="geometry" />
        </mxCell>
        <mxCell id="gsuzVnjwvJ-2prfaanhb-3" value="" style="triangle;whiteSpace=wrap;html=1;rotation=-90;" parent="gsuzVnjwvJ-2prfaanhb-1" vertex="1">
          <mxGeometry x="3.1299999999999955" y="61.879999999999995" width="13.75" height="20" as="geometry" />
        </mxCell>
        <mxCell id="gsuzVnjwvJ-2prfaanhb-4" value="" style="group" parent="1" vertex="1" connectable="0">
          <mxGeometry x="300" y="640" width="20.004999999999995" height="80" as="geometry" />
        </mxCell>
        <mxCell id="gsuzVnjwvJ-2prfaanhb-5" value="F/D" style="rounded=0;whiteSpace=wrap;html=1;" parent="gsuzVnjwvJ-2prfaanhb-4" vertex="1">
          <mxGeometry width="20" height="80" as="geometry" />
        </mxCell>
        <mxCell id="gsuzVnjwvJ-2prfaanhb-6" value="" style="triangle;whiteSpace=wrap;html=1;rotation=-90;" parent="gsuzVnjwvJ-2prfaanhb-4" vertex="1">
          <mxGeometry x="3.1299999999999955" y="61.879999999999995" width="13.75" height="20" as="geometry" />
        </mxCell>
        <mxCell id="gsuzVnjwvJ-2prfaanhb-7" style="edgeStyle=orthogonalEdgeStyle;rounded=0;orthogonalLoop=1;jettySize=auto;html=1;exitX=1;exitY=0.5;exitDx=0;exitDy=0;entryX=0;entryY=0.5;entryDx=0;entryDy=0;endArrow=none;startFill=0;" parent="1" source="gsuzVnjwvJ-2prfaanhb-8" target="gsuzVnjwvJ-2prfaanhb-5" edge="1">
          <mxGeometry relative="1" as="geometry" />
        </mxCell>
        <mxCell id="gsuzVnjwvJ-2prfaanhb-8" value="I-cache" style="rounded=1;whiteSpace=wrap;html=1;arcSize=32;" parent="1" vertex="1">
          <mxGeometry x="220" y="665" width="60" height="30" as="geometry" />
        </mxCell>
        <mxCell id="gsuzVnjwvJ-2prfaanhb-9" style="edgeStyle=orthogonalEdgeStyle;rounded=0;orthogonalLoop=1;jettySize=auto;html=1;exitX=1;exitY=0.5;exitDx=0;exitDy=0;entryX=0;entryY=0.5;entryDx=0;entryDy=0;endArrow=none;startFill=0;" parent="1" source="gsuzVnjwvJ-2prfaanhb-2" target="gsuzVnjwvJ-2prfaanhb-8" edge="1">
          <mxGeometry relative="1" as="geometry" />
        </mxCell>
        <mxCell id="gsuzVnjwvJ-2prfaanhb-10" style="edgeStyle=orthogonalEdgeStyle;rounded=0;orthogonalLoop=1;jettySize=auto;html=1;exitX=1;exitY=0.5;exitDx=0;exitDy=0;entryX=0;entryY=0.5;entryDx=0;entryDy=0;endArrow=none;startFill=0;" parent="1" source="gsuzVnjwvJ-2prfaanhb-11" target="gsuzVnjwvJ-2prfaanhb-84" edge="1">
          <mxGeometry relative="1" as="geometry" />
        </mxCell>
        <mxCell id="gsuzVnjwvJ-2prfaanhb-11" value="decode" style="rounded=1;whiteSpace=wrap;html=1;arcSize=32;" parent="1" vertex="1">
          <mxGeometry x="340" y="665" width="60" height="30" as="geometry" />
        </mxCell>
        <mxCell id="gsuzVnjwvJ-2prfaanhb-12" style="edgeStyle=orthogonalEdgeStyle;rounded=0;orthogonalLoop=1;jettySize=auto;html=1;exitX=1;exitY=0.5;exitDx=0;exitDy=0;entryX=0;entryY=0.5;entryDx=0;entryDy=0;endArrow=none;startFill=0;" parent="1" source="gsuzVnjwvJ-2prfaanhb-5" target="gsuzVnjwvJ-2prfaanhb-11" edge="1">
          <mxGeometry relative="1" as="geometry" />
        </mxCell>
        <mxCell id="gsuzVnjwvJ-2prfaanhb-13" style="edgeStyle=orthogonalEdgeStyle;rounded=0;orthogonalLoop=1;jettySize=auto;html=1;exitX=1;exitY=0.5;exitDx=0;exitDy=0;entryX=0;entryY=0.5;entryDx=0;entryDy=0;endArrow=none;startFill=0;" parent="1" source="gsuzVnjwvJ-2prfaanhb-14" target="gsuzVnjwvJ-2prfaanhb-16" edge="1">
          <mxGeometry relative="1" as="geometry" />
        </mxCell>
        <mxCell id="gsuzVnjwvJ-2prfaanhb-14" value="RAT" style="rounded=1;whiteSpace=wrap;html=1;arcSize=32;" parent="1" vertex="1">
          <mxGeometry x="460" y="665" width="60" height="30" as="geometry" />
        </mxCell>
        <mxCell id="gsuzVnjwvJ-2prfaanhb-15" value="" style="group" parent="1" vertex="1" connectable="0">
          <mxGeometry x="540" y="640" width="20.004999999999995" height="80" as="geometry" />
        </mxCell>
        <mxCell id="gsuzVnjwvJ-2prfaanhb-16" value="R/I" style="rounded=0;whiteSpace=wrap;html=1;" parent="gsuzVnjwvJ-2prfaanhb-15" vertex="1">
          <mxGeometry width="20" height="80" as="geometry" />
        </mxCell>
        <mxCell id="gsuzVnjwvJ-2prfaanhb-17" value="" style="triangle;whiteSpace=wrap;html=1;rotation=-90;" parent="gsuzVnjwvJ-2prfaanhb-15" vertex="1">
          <mxGeometry x="3.1299999999999955" y="61.879999999999995" width="13.75" height="20" as="geometry" />
        </mxCell>
        <mxCell id="gsuzVnjwvJ-2prfaanhb-18" value="" style="endArrow=none;dashed=1;html=1;rounded=0;" parent="gsuzVnjwvJ-2prfaanhb-15" edge="1">
          <mxGeometry width="50" height="50" relative="1" as="geometry">
            <mxPoint x="20" y="140" as="sourcePoint" />
            <mxPoint x="20.00999999999999" y="-40" as="targetPoint" />
          </mxGeometry>
        </mxCell>
        <mxCell id="gsuzVnjwvJ-2prfaanhb-34" value="" style="group" parent="1" vertex="1" connectable="0">
          <mxGeometry x="630.01" y="630" width="10" height="40" as="geometry" />
        </mxCell>
        <mxCell id="gsuzVnjwvJ-2prfaanhb-35" value="" style="rounded=0;whiteSpace=wrap;html=1;" parent="gsuzVnjwvJ-2prfaanhb-34" vertex="1">
          <mxGeometry width="10" height="40" as="geometry" />
        </mxCell>
        <mxCell id="gsuzVnjwvJ-2prfaanhb-36" value="" style="triangle;whiteSpace=wrap;html=1;rotation=-90;" parent="gsuzVnjwvJ-2prfaanhb-34" vertex="1">
          <mxGeometry x="2.5" y="32.5" width="5" height="10" as="geometry" />
        </mxCell>
        <mxCell id="gsuzVnjwvJ-2prfaanhb-37" style="edgeStyle=orthogonalEdgeStyle;rounded=0;orthogonalLoop=1;jettySize=auto;html=1;exitX=1;exitY=0.5;exitDx=0;exitDy=0;entryX=0;entryY=0.5;entryDx=0;entryDy=0;" parent="1" source="gsuzVnjwvJ-2prfaanhb-38" target="gsuzVnjwvJ-2prfaanhb-35" edge="1">
          <mxGeometry relative="1" as="geometry" />
        </mxCell>
        <mxCell id="gsuzVnjwvJ-2prfaanhb-38" value="A0" style="rounded=1;whiteSpace=wrap;html=1;arcSize=32;" parent="1" vertex="1">
          <mxGeometry x="580.01" y="640" width="30" height="20" as="geometry" />
        </mxCell>
        <mxCell id="gsuzVnjwvJ-2prfaanhb-39" value="" style="group" parent="1" vertex="1" connectable="0">
          <mxGeometry x="710.01" y="630" width="10" height="40" as="geometry" />
        </mxCell>
        <mxCell id="gsuzVnjwvJ-2prfaanhb-40" value="" style="rounded=0;whiteSpace=wrap;html=1;" parent="gsuzVnjwvJ-2prfaanhb-39" vertex="1">
          <mxGeometry width="10" height="40" as="geometry" />
        </mxCell>
        <mxCell id="gsuzVnjwvJ-2prfaanhb-41" value="" style="triangle;whiteSpace=wrap;html=1;rotation=-90;" parent="gsuzVnjwvJ-2prfaanhb-39" vertex="1">
          <mxGeometry x="2.5" y="32.5" width="5" height="10" as="geometry" />
        </mxCell>
        <mxCell id="gsuzVnjwvJ-2prfaanhb-42" value="" style="endArrow=none;dashed=1;html=1;rounded=0;" parent="gsuzVnjwvJ-2prfaanhb-39" edge="1">
          <mxGeometry width="50" height="50" relative="1" as="geometry">
            <mxPoint x="10" y="130" as="sourcePoint" />
            <mxPoint x="9.990000000000009" y="-10" as="targetPoint" />
          </mxGeometry>
        </mxCell>
        <mxCell id="gsuzVnjwvJ-2prfaanhb-43" style="edgeStyle=orthogonalEdgeStyle;rounded=0;orthogonalLoop=1;jettySize=auto;html=1;exitX=1;exitY=0.5;exitDx=0;exitDy=0;entryX=0;entryY=0.5;entryDx=0;entryDy=0;" parent="1" source="gsuzVnjwvJ-2prfaanhb-44" target="gsuzVnjwvJ-2prfaanhb-40" edge="1">
          <mxGeometry relative="1" as="geometry" />
        </mxCell>
        <mxCell id="gsuzVnjwvJ-2prfaanhb-44" value="A1" style="rounded=1;whiteSpace=wrap;html=1;arcSize=32;" parent="1" vertex="1">
          <mxGeometry x="660.01" y="640" width="30" height="20" as="geometry" />
        </mxCell>
        <mxCell id="gsuzVnjwvJ-2prfaanhb-45" style="edgeStyle=orthogonalEdgeStyle;rounded=0;orthogonalLoop=1;jettySize=auto;html=1;exitX=1;exitY=0.5;exitDx=0;exitDy=0;entryX=0;entryY=0.5;entryDx=0;entryDy=0;" parent="1" target="gsuzVnjwvJ-2prfaanhb-38" edge="1">
          <mxGeometry relative="1" as="geometry">
            <mxPoint x="560.01" y="650" as="sourcePoint" />
          </mxGeometry>
        </mxCell>
        <mxCell id="gsuzVnjwvJ-2prfaanhb-46" style="edgeStyle=orthogonalEdgeStyle;rounded=0;orthogonalLoop=1;jettySize=auto;html=1;exitX=1;exitY=0.5;exitDx=0;exitDy=0;entryX=0;entryY=0.5;entryDx=0;entryDy=0;" parent="1" source="gsuzVnjwvJ-2prfaanhb-35" target="gsuzVnjwvJ-2prfaanhb-44" edge="1">
          <mxGeometry relative="1" as="geometry" />
        </mxCell>
        <mxCell id="gsuzVnjwvJ-2prfaanhb-47" value="" style="group" parent="1" vertex="1" connectable="0">
          <mxGeometry x="630.01" y="685" width="10" height="40" as="geometry" />
        </mxCell>
        <mxCell id="gsuzVnjwvJ-2prfaanhb-48" value="" style="rounded=0;whiteSpace=wrap;html=1;" parent="gsuzVnjwvJ-2prfaanhb-47" vertex="1">
          <mxGeometry width="10" height="40" as="geometry" />
        </mxCell>
        <mxCell id="gsuzVnjwvJ-2prfaanhb-49" value="" style="triangle;whiteSpace=wrap;html=1;rotation=-90;" parent="gsuzVnjwvJ-2prfaanhb-47" vertex="1">
          <mxGeometry x="2.5" y="32.5" width="5" height="10" as="geometry" />
        </mxCell>
        <mxCell id="gsuzVnjwvJ-2prfaanhb-50" style="edgeStyle=orthogonalEdgeStyle;rounded=0;orthogonalLoop=1;jettySize=auto;html=1;exitX=1;exitY=0.5;exitDx=0;exitDy=0;entryX=0;entryY=0.5;entryDx=0;entryDy=0;" parent="1" source="gsuzVnjwvJ-2prfaanhb-51" target="gsuzVnjwvJ-2prfaanhb-48" edge="1">
          <mxGeometry relative="1" as="geometry" />
        </mxCell>
        <mxCell id="gsuzVnjwvJ-2prfaanhb-51" value="M0" style="rounded=1;whiteSpace=wrap;html=1;arcSize=32;" parent="1" vertex="1">
          <mxGeometry x="580.01" y="695" width="30" height="20" as="geometry" />
        </mxCell>
        <mxCell id="gsuzVnjwvJ-2prfaanhb-52" value="" style="group" parent="1" vertex="1" connectable="0">
          <mxGeometry x="710.01" y="685" width="10" height="40" as="geometry" />
        </mxCell>
        <mxCell id="gsuzVnjwvJ-2prfaanhb-53" value="" style="rounded=0;whiteSpace=wrap;html=1;" parent="gsuzVnjwvJ-2prfaanhb-52" vertex="1">
          <mxGeometry width="10" height="40" as="geometry" />
        </mxCell>
        <mxCell id="gsuzVnjwvJ-2prfaanhb-54" value="" style="triangle;whiteSpace=wrap;html=1;rotation=-90;" parent="gsuzVnjwvJ-2prfaanhb-52" vertex="1">
          <mxGeometry x="2.5" y="32.5" width="5" height="10" as="geometry" />
        </mxCell>
        <mxCell id="gsuzVnjwvJ-2prfaanhb-55" style="edgeStyle=orthogonalEdgeStyle;rounded=0;orthogonalLoop=1;jettySize=auto;html=1;exitX=1;exitY=0.5;exitDx=0;exitDy=0;entryX=0;entryY=0.5;entryDx=0;entryDy=0;" parent="1" source="gsuzVnjwvJ-2prfaanhb-56" target="gsuzVnjwvJ-2prfaanhb-53" edge="1">
          <mxGeometry relative="1" as="geometry" />
        </mxCell>
        <mxCell id="gsuzVnjwvJ-2prfaanhb-56" value="M1" style="rounded=1;whiteSpace=wrap;html=1;arcSize=32;" parent="1" vertex="1">
          <mxGeometry x="660.01" y="695" width="30" height="20" as="geometry" />
        </mxCell>
        <mxCell id="gsuzVnjwvJ-2prfaanhb-57" style="edgeStyle=orthogonalEdgeStyle;rounded=0;orthogonalLoop=1;jettySize=auto;html=1;exitX=1;exitY=0.5;exitDx=0;exitDy=0;entryX=0;entryY=0.5;entryDx=0;entryDy=0;" parent="1" source="gsuzVnjwvJ-2prfaanhb-48" target="gsuzVnjwvJ-2prfaanhb-56" edge="1">
          <mxGeometry relative="1" as="geometry" />
        </mxCell>
        <mxCell id="gsuzVnjwvJ-2prfaanhb-58" value="" style="group" parent="1" vertex="1" connectable="0">
          <mxGeometry x="790.01" y="685" width="10" height="40" as="geometry" />
        </mxCell>
        <mxCell id="gsuzVnjwvJ-2prfaanhb-59" value="" style="rounded=0;whiteSpace=wrap;html=1;" parent="gsuzVnjwvJ-2prfaanhb-58" vertex="1">
          <mxGeometry width="10" height="40" as="geometry" />
        </mxCell>
        <mxCell id="gsuzVnjwvJ-2prfaanhb-60" value="" style="triangle;whiteSpace=wrap;html=1;rotation=-90;" parent="gsuzVnjwvJ-2prfaanhb-58" vertex="1">
          <mxGeometry x="2.5" y="32.5" width="5" height="10" as="geometry" />
        </mxCell>
        <mxCell id="gsuzVnjwvJ-2prfaanhb-61" style="edgeStyle=orthogonalEdgeStyle;rounded=0;orthogonalLoop=1;jettySize=auto;html=1;exitX=1;exitY=0.5;exitDx=0;exitDy=0;entryX=0;entryY=0.5;entryDx=0;entryDy=0;" parent="1" source="gsuzVnjwvJ-2prfaanhb-62" target="gsuzVnjwvJ-2prfaanhb-59" edge="1">
          <mxGeometry relative="1" as="geometry" />
        </mxCell>
        <mxCell id="gsuzVnjwvJ-2prfaanhb-62" value="M2" style="rounded=1;whiteSpace=wrap;html=1;arcSize=32;" parent="1" vertex="1">
          <mxGeometry x="740.01" y="695" width="30" height="20" as="geometry" />
        </mxCell>
        <mxCell id="gsuzVnjwvJ-2prfaanhb-63" value="" style="group" parent="1" vertex="1" connectable="0">
          <mxGeometry x="870.01" y="685" width="10" height="40" as="geometry" />
        </mxCell>
        <mxCell id="gsuzVnjwvJ-2prfaanhb-64" value="" style="rounded=0;whiteSpace=wrap;html=1;" parent="gsuzVnjwvJ-2prfaanhb-63" vertex="1">
          <mxGeometry width="10" height="40" as="geometry" />
        </mxCell>
        <mxCell id="gsuzVnjwvJ-2prfaanhb-65" value="" style="triangle;whiteSpace=wrap;html=1;rotation=-90;" parent="gsuzVnjwvJ-2prfaanhb-63" vertex="1">
          <mxGeometry x="2.5" y="32.5" width="5" height="10" as="geometry" />
        </mxCell>
        <mxCell id="gsuzVnjwvJ-2prfaanhb-66" style="edgeStyle=orthogonalEdgeStyle;rounded=0;orthogonalLoop=1;jettySize=auto;html=1;exitX=1;exitY=0.5;exitDx=0;exitDy=0;entryX=0;entryY=0.5;entryDx=0;entryDy=0;" parent="1" source="gsuzVnjwvJ-2prfaanhb-67" target="gsuzVnjwvJ-2prfaanhb-64" edge="1">
          <mxGeometry relative="1" as="geometry" />
        </mxCell>
        <mxCell id="gsuzVnjwvJ-2prfaanhb-67" value="M3" style="rounded=1;whiteSpace=wrap;html=1;arcSize=32;" parent="1" vertex="1">
          <mxGeometry x="820.01" y="695" width="30" height="20" as="geometry" />
        </mxCell>
        <mxCell id="gsuzVnjwvJ-2prfaanhb-68" style="edgeStyle=orthogonalEdgeStyle;rounded=0;orthogonalLoop=1;jettySize=auto;html=1;exitX=1;exitY=0.5;exitDx=0;exitDy=0;entryX=0;entryY=0.5;entryDx=0;entryDy=0;" parent="1" source="gsuzVnjwvJ-2prfaanhb-59" target="gsuzVnjwvJ-2prfaanhb-67" edge="1">
          <mxGeometry relative="1" as="geometry" />
        </mxCell>
        <mxCell id="gsuzVnjwvJ-2prfaanhb-69" style="edgeStyle=orthogonalEdgeStyle;rounded=0;orthogonalLoop=1;jettySize=auto;html=1;exitX=1;exitY=0.5;exitDx=0;exitDy=0;entryX=0;entryY=0.5;entryDx=0;entryDy=0;" parent="1" target="gsuzVnjwvJ-2prfaanhb-51" edge="1">
          <mxGeometry relative="1" as="geometry">
            <mxPoint x="560.01" y="705" as="sourcePoint" />
          </mxGeometry>
        </mxCell>
        <mxCell id="gsuzVnjwvJ-2prfaanhb-70" style="edgeStyle=orthogonalEdgeStyle;rounded=0;orthogonalLoop=1;jettySize=auto;html=1;exitX=1;exitY=0.5;exitDx=0;exitDy=0;entryX=0;entryY=0.5;entryDx=0;entryDy=0;" parent="1" source="gsuzVnjwvJ-2prfaanhb-53" target="gsuzVnjwvJ-2prfaanhb-62" edge="1">
          <mxGeometry relative="1" as="geometry" />
        </mxCell>
        <mxCell id="gsuzVnjwvJ-2prfaanhb-71" value="" style="group;" parent="1" vertex="1" connectable="0">
          <mxGeometry x="990.01" y="640" width="20.004999999999995" height="80" as="geometry" />
        </mxCell>
        <mxCell id="gsuzVnjwvJ-2prfaanhb-72" value="&lt;font&gt;M&lt;/font&gt;" style="rounded=0;whiteSpace=wrap;html=1;" parent="gsuzVnjwvJ-2prfaanhb-71" vertex="1">
          <mxGeometry width="20" height="80" as="geometry" />
        </mxCell>
        <mxCell id="gsuzVnjwvJ-2prfaanhb-73" value="" style="triangle;whiteSpace=wrap;html=1;rotation=-90;" parent="gsuzVnjwvJ-2prfaanhb-71" vertex="1">
          <mxGeometry x="3.1299999999999955" y="61.879999999999995" width="13.75" height="20" as="geometry" />
        </mxCell>
        <mxCell id="Vy32MyTMkjN3eqQRpY-3-1" value="" style="endArrow=none;dashed=1;html=1;rounded=0;" edge="1" parent="gsuzVnjwvJ-2prfaanhb-71">
          <mxGeometry width="50" height="50" relative="1" as="geometry">
            <mxPoint x="20" y="140" as="sourcePoint" />
            <mxPoint x="20" y="-40" as="targetPoint" />
          </mxGeometry>
        </mxCell>
        <mxCell id="gsuzVnjwvJ-2prfaanhb-75" style="rounded=0;orthogonalLoop=1;jettySize=auto;html=1;exitX=1;exitY=0.5;exitDx=0;exitDy=0;entryX=0;entryY=0.25;entryDx=0;entryDy=0;" parent="1" source="gsuzVnjwvJ-2prfaanhb-40" target="gsuzVnjwvJ-2prfaanhb-100" edge="1">
          <mxGeometry relative="1" as="geometry" />
        </mxCell>
        <mxCell id="gsuzVnjwvJ-2prfaanhb-76" style="rounded=0;orthogonalLoop=1;jettySize=auto;html=1;exitX=1;exitY=0.5;exitDx=0;exitDy=0;entryX=0;entryY=0.75;entryDx=0;entryDy=0;" parent="1" source="gsuzVnjwvJ-2prfaanhb-64" target="gsuzVnjwvJ-2prfaanhb-100" edge="1">
          <mxGeometry relative="1" as="geometry" />
        </mxCell>
        <mxCell id="gsuzVnjwvJ-2prfaanhb-77" value="" style="group" parent="1" vertex="1" connectable="0">
          <mxGeometry x="1040.01" y="640" width="20.004999999999995" height="80" as="geometry" />
        </mxCell>
        <mxCell id="gsuzVnjwvJ-2prfaanhb-78" value="WB" style="rounded=0;whiteSpace=wrap;html=1;" parent="gsuzVnjwvJ-2prfaanhb-77" vertex="1">
          <mxGeometry width="20" height="80" as="geometry" />
        </mxCell>
        <mxCell id="gsuzVnjwvJ-2prfaanhb-79" value="" style="triangle;whiteSpace=wrap;html=1;rotation=-90;" parent="gsuzVnjwvJ-2prfaanhb-77" vertex="1">
          <mxGeometry x="3.1299999999999955" y="61.879999999999995" width="13.75" height="20" as="geometry" />
        </mxCell>
        <mxCell id="Vy32MyTMkjN3eqQRpY-3-2" value="" style="endArrow=none;dashed=1;html=1;rounded=0;" edge="1" parent="gsuzVnjwvJ-2prfaanhb-77">
          <mxGeometry width="50" height="50" relative="1" as="geometry">
            <mxPoint x="20" y="140" as="sourcePoint" />
            <mxPoint x="20" y="-40" as="targetPoint" />
          </mxGeometry>
        </mxCell>
        <mxCell id="gsuzVnjwvJ-2prfaanhb-80" style="edgeStyle=orthogonalEdgeStyle;rounded=0;orthogonalLoop=1;jettySize=auto;html=1;exitX=1;exitY=0.5;exitDx=0;exitDy=0;entryX=0;entryY=0.5;entryDx=0;entryDy=0;" parent="1" source="gsuzVnjwvJ-2prfaanhb-72" target="gsuzVnjwvJ-2prfaanhb-78" edge="1">
          <mxGeometry relative="1" as="geometry" />
        </mxCell>
        <mxCell id="gsuzVnjwvJ-2prfaanhb-81" value="" style="endArrow=none;dashed=1;html=1;rounded=0;" parent="1" edge="1">
          <mxGeometry width="50" height="50" relative="1" as="geometry">
            <mxPoint x="200" y="780" as="sourcePoint" />
            <mxPoint x="200" y="600" as="targetPoint" />
          </mxGeometry>
        </mxCell>
        <mxCell id="gsuzVnjwvJ-2prfaanhb-82" value="" style="endArrow=none;dashed=1;html=1;rounded=0;" parent="1" edge="1">
          <mxGeometry width="50" height="50" relative="1" as="geometry">
            <mxPoint x="320" y="780" as="sourcePoint" />
            <mxPoint x="320.01" y="600" as="targetPoint" />
          </mxGeometry>
        </mxCell>
        <mxCell id="gsuzVnjwvJ-2prfaanhb-83" value="" style="group" parent="1" vertex="1" connectable="0">
          <mxGeometry x="420" y="640" width="20.004999999999995" height="80" as="geometry" />
        </mxCell>
        <mxCell id="gsuzVnjwvJ-2prfaanhb-84" value="D/R" style="rounded=0;whiteSpace=wrap;html=1;" parent="gsuzVnjwvJ-2prfaanhb-83" vertex="1">
          <mxGeometry width="20" height="80" as="geometry" />
        </mxCell>
        <mxCell id="gsuzVnjwvJ-2prfaanhb-85" value="" style="triangle;whiteSpace=wrap;html=1;rotation=-90;" parent="gsuzVnjwvJ-2prfaanhb-83" vertex="1">
          <mxGeometry x="3.1299999999999955" y="61.879999999999995" width="13.75" height="20" as="geometry" />
        </mxCell>
        <mxCell id="gsuzVnjwvJ-2prfaanhb-86" value="" style="endArrow=none;dashed=1;html=1;rounded=0;" parent="gsuzVnjwvJ-2prfaanhb-83" edge="1">
          <mxGeometry width="50" height="50" relative="1" as="geometry">
            <mxPoint x="20" y="140" as="sourcePoint" />
            <mxPoint x="20.00999999999999" y="-40" as="targetPoint" />
          </mxGeometry>
        </mxCell>
        <mxCell id="gsuzVnjwvJ-2prfaanhb-87" style="edgeStyle=orthogonalEdgeStyle;rounded=0;orthogonalLoop=1;jettySize=auto;html=1;exitX=1;exitY=0.5;exitDx=0;exitDy=0;entryX=0;entryY=0.5;entryDx=0;entryDy=0;endArrow=none;startFill=0;" parent="1" source="gsuzVnjwvJ-2prfaanhb-84" target="gsuzVnjwvJ-2prfaanhb-14" edge="1">
          <mxGeometry relative="1" as="geometry" />
        </mxCell>
        <mxCell id="gsuzVnjwvJ-2prfaanhb-88" value="" style="endArrow=none;dashed=1;html=1;rounded=0;" parent="1" edge="1">
          <mxGeometry width="50" height="50" relative="1" as="geometry">
            <mxPoint x="640.01" y="760" as="sourcePoint" />
            <mxPoint x="640" y="620" as="targetPoint" />
          </mxGeometry>
        </mxCell>
        <mxCell id="gsuzVnjwvJ-2prfaanhb-89" value="" style="endArrow=none;dashed=1;html=1;rounded=0;" parent="1" edge="1">
          <mxGeometry width="50" height="50" relative="1" as="geometry">
            <mxPoint x="800.01" y="760" as="sourcePoint" />
            <mxPoint x="800" y="620" as="targetPoint" />
          </mxGeometry>
        </mxCell>
        <mxCell id="gsuzVnjwvJ-2prfaanhb-90" value="" style="endArrow=none;dashed=1;html=1;rounded=0;" parent="1" edge="1">
          <mxGeometry width="50" height="50" relative="1" as="geometry">
            <mxPoint x="880.01" y="780" as="sourcePoint" />
            <mxPoint x="880.01" y="600" as="targetPoint" />
          </mxGeometry>
        </mxCell>
        <mxCell id="gsuzVnjwvJ-2prfaanhb-92" value="取指&lt;div&gt;IF&lt;/div&gt;" style="text;html=1;align=center;verticalAlign=middle;resizable=0;points=[];autosize=1;strokeColor=none;fillColor=none;" parent="1" vertex="1">
          <mxGeometry x="230" y="760" width="50" height="40" as="geometry" />
        </mxCell>
        <mxCell id="gsuzVnjwvJ-2prfaanhb-93" value="译码&lt;div&gt;ID&lt;/div&gt;" style="text;html=1;align=center;verticalAlign=middle;resizable=0;points=[];autosize=1;strokeColor=none;fillColor=none;" parent="1" vertex="1">
          <mxGeometry x="350" y="760" width="50" height="40" as="geometry" />
        </mxCell>
        <mxCell id="gsuzVnjwvJ-2prfaanhb-94" value="重命名&lt;div&gt;RN&lt;/div&gt;" style="text;html=1;align=center;verticalAlign=middle;resizable=0;points=[];autosize=1;strokeColor=none;fillColor=none;" parent="1" vertex="1">
          <mxGeometry x="465" y="760" width="60" height="40" as="geometry" />
        </mxCell>
        <mxCell id="gsuzVnjwvJ-2prfaanhb-96" value="执行&lt;div&gt;EX&lt;/div&gt;" style="text;html=1;align=center;verticalAlign=middle;resizable=0;points=[];autosize=1;strokeColor=none;fillColor=none;" parent="1" vertex="1">
          <mxGeometry x="700" y="760" width="50" height="40" as="geometry" />
        </mxCell>
        <mxCell id="gsuzVnjwvJ-2prfaanhb-97" value="访存&lt;div&gt;MEM&lt;/div&gt;" style="text;html=1;align=center;verticalAlign=middle;resizable=0;points=[];autosize=1;strokeColor=none;fillColor=none;" parent="1" vertex="1">
          <mxGeometry x="920.01" y="760" width="50" height="40" as="geometry" />
        </mxCell>
        <mxCell id="gsuzVnjwvJ-2prfaanhb-98" value="写回&lt;div&gt;WB&lt;/div&gt;" style="text;html=1;align=center;verticalAlign=middle;resizable=0;points=[];autosize=1;strokeColor=none;fillColor=none;" parent="1" vertex="1">
          <mxGeometry x="1010.02" y="760" width="50" height="40" as="geometry" />
        </mxCell>
        <mxCell id="gsuzVnjwvJ-2prfaanhb-99" style="edgeStyle=orthogonalEdgeStyle;rounded=0;orthogonalLoop=1;jettySize=auto;html=1;exitX=1;exitY=0.5;exitDx=0;exitDy=0;entryX=0;entryY=0.5;entryDx=0;entryDy=0;" parent="1" source="gsuzVnjwvJ-2prfaanhb-100" target="gsuzVnjwvJ-2prfaanhb-72" edge="1">
          <mxGeometry relative="1" as="geometry" />
        </mxCell>
        <mxCell id="gsuzVnjwvJ-2prfaanhb-100" value="D-cache" style="rounded=1;whiteSpace=wrap;html=1;arcSize=32;" parent="1" vertex="1">
          <mxGeometry x="910.01" y="665" width="60" height="30" as="geometry" />
        </mxCell>
      </root>
    </mxGraphModel>
  </diagram>
  <diagram name="6-8" id="cikjoBa_C8fDyOAZ_S2-">
    <mxGraphModel dx="1110" dy="621" grid="1" gridSize="10" guides="1" tooltips="1" connect="1" arrows="1" fold="1" page="1" pageScale="1" pageWidth="827" pageHeight="1169" math="0" shadow="0">
      <root>
        <mxCell id="0" />
        <mxCell id="1" parent="0" />
        <mxCell id="4F6aS46lnkbIAeRqq3i3-3" value="" style="group" parent="1" vertex="1" connectable="0">
          <mxGeometry x="60" y="320" width="20.004999999999995" height="80" as="geometry" />
        </mxCell>
        <mxCell id="4F6aS46lnkbIAeRqq3i3-1" value="PC" style="rounded=0;whiteSpace=wrap;html=1;" parent="4F6aS46lnkbIAeRqq3i3-3" vertex="1">
          <mxGeometry width="20" height="80" as="geometry" />
        </mxCell>
        <mxCell id="4F6aS46lnkbIAeRqq3i3-2" value="" style="triangle;whiteSpace=wrap;html=1;rotation=-90;" parent="4F6aS46lnkbIAeRqq3i3-3" vertex="1">
          <mxGeometry x="3.1299999999999955" y="61.879999999999995" width="13.75" height="20" as="geometry" />
        </mxCell>
        <mxCell id="4F6aS46lnkbIAeRqq3i3-5" value="" style="group" parent="1" vertex="1" connectable="0">
          <mxGeometry x="180" y="320" width="20.004999999999995" height="80" as="geometry" />
        </mxCell>
        <mxCell id="4F6aS46lnkbIAeRqq3i3-6" value="F/D" style="rounded=0;whiteSpace=wrap;html=1;" parent="4F6aS46lnkbIAeRqq3i3-5" vertex="1">
          <mxGeometry width="20" height="80" as="geometry" />
        </mxCell>
        <mxCell id="4F6aS46lnkbIAeRqq3i3-7" value="" style="triangle;whiteSpace=wrap;html=1;rotation=-90;" parent="4F6aS46lnkbIAeRqq3i3-5" vertex="1">
          <mxGeometry x="3.1299999999999955" y="61.879999999999995" width="13.75" height="20" as="geometry" />
        </mxCell>
        <mxCell id="4F6aS46lnkbIAeRqq3i3-10" style="edgeStyle=orthogonalEdgeStyle;rounded=0;orthogonalLoop=1;jettySize=auto;html=1;exitX=1;exitY=0.5;exitDx=0;exitDy=0;entryX=0;entryY=0.5;entryDx=0;entryDy=0;endArrow=none;startFill=0;" parent="1" source="4F6aS46lnkbIAeRqq3i3-8" target="4F6aS46lnkbIAeRqq3i3-6" edge="1">
          <mxGeometry relative="1" as="geometry" />
        </mxCell>
        <mxCell id="4F6aS46lnkbIAeRqq3i3-8" value="I-cache" style="rounded=1;whiteSpace=wrap;html=1;arcSize=32;" parent="1" vertex="1">
          <mxGeometry x="100" y="345" width="60" height="30" as="geometry" />
        </mxCell>
        <mxCell id="4F6aS46lnkbIAeRqq3i3-9" style="edgeStyle=orthogonalEdgeStyle;rounded=0;orthogonalLoop=1;jettySize=auto;html=1;exitX=1;exitY=0.5;exitDx=0;exitDy=0;entryX=0;entryY=0.5;entryDx=0;entryDy=0;endArrow=none;startFill=0;" parent="1" source="4F6aS46lnkbIAeRqq3i3-1" target="4F6aS46lnkbIAeRqq3i3-8" edge="1">
          <mxGeometry relative="1" as="geometry" />
        </mxCell>
        <mxCell id="4F6aS46lnkbIAeRqq3i3-102" style="edgeStyle=orthogonalEdgeStyle;rounded=0;orthogonalLoop=1;jettySize=auto;html=1;exitX=1;exitY=0.5;exitDx=0;exitDy=0;entryX=0;entryY=0.5;entryDx=0;entryDy=0;endArrow=none;startFill=0;" parent="1" source="4F6aS46lnkbIAeRqq3i3-11" target="4F6aS46lnkbIAeRqq3i3-100" edge="1">
          <mxGeometry relative="1" as="geometry" />
        </mxCell>
        <mxCell id="4F6aS46lnkbIAeRqq3i3-11" value="decode" style="rounded=1;whiteSpace=wrap;html=1;arcSize=32;" parent="1" vertex="1">
          <mxGeometry x="220" y="345" width="60" height="30" as="geometry" />
        </mxCell>
        <mxCell id="4F6aS46lnkbIAeRqq3i3-12" style="edgeStyle=orthogonalEdgeStyle;rounded=0;orthogonalLoop=1;jettySize=auto;html=1;exitX=1;exitY=0.5;exitDx=0;exitDy=0;entryX=0;entryY=0.5;entryDx=0;entryDy=0;endArrow=none;startFill=0;" parent="1" source="4F6aS46lnkbIAeRqq3i3-6" target="4F6aS46lnkbIAeRqq3i3-11" edge="1">
          <mxGeometry relative="1" as="geometry" />
        </mxCell>
        <mxCell id="4F6aS46lnkbIAeRqq3i3-104" style="edgeStyle=orthogonalEdgeStyle;rounded=0;orthogonalLoop=1;jettySize=auto;html=1;exitX=1;exitY=0.5;exitDx=0;exitDy=0;entryX=0;entryY=0.5;entryDx=0;entryDy=0;endArrow=none;startFill=0;" parent="1" source="4F6aS46lnkbIAeRqq3i3-13" target="4F6aS46lnkbIAeRqq3i3-16" edge="1">
          <mxGeometry relative="1" as="geometry" />
        </mxCell>
        <mxCell id="4F6aS46lnkbIAeRqq3i3-13" value="RAT" style="rounded=1;whiteSpace=wrap;html=1;arcSize=32;" parent="1" vertex="1">
          <mxGeometry x="340" y="345" width="60" height="30" as="geometry" />
        </mxCell>
        <mxCell id="4F6aS46lnkbIAeRqq3i3-15" value="" style="group" parent="1" vertex="1" connectable="0">
          <mxGeometry x="420" y="320" width="20.004999999999995" height="80" as="geometry" />
        </mxCell>
        <mxCell id="4F6aS46lnkbIAeRqq3i3-16" value="R/I" style="rounded=0;whiteSpace=wrap;html=1;" parent="4F6aS46lnkbIAeRqq3i3-15" vertex="1">
          <mxGeometry width="20" height="80" as="geometry" />
        </mxCell>
        <mxCell id="4F6aS46lnkbIAeRqq3i3-17" value="" style="triangle;whiteSpace=wrap;html=1;rotation=-90;" parent="4F6aS46lnkbIAeRqq3i3-15" vertex="1">
          <mxGeometry x="3.1299999999999955" y="61.879999999999995" width="13.75" height="20" as="geometry" />
        </mxCell>
        <mxCell id="4F6aS46lnkbIAeRqq3i3-105" value="" style="endArrow=none;dashed=1;html=1;rounded=0;" parent="4F6aS46lnkbIAeRqq3i3-15" edge="1">
          <mxGeometry width="50" height="50" relative="1" as="geometry">
            <mxPoint x="20" y="140" as="sourcePoint" />
            <mxPoint x="20.00999999999999" y="-40" as="targetPoint" />
          </mxGeometry>
        </mxCell>
        <mxCell id="4F6aS46lnkbIAeRqq3i3-20" value="Issue logic" style="rounded=1;whiteSpace=wrap;arcSize=32;" parent="1" vertex="1">
          <mxGeometry x="470" y="295" width="30" height="130" as="geometry" />
        </mxCell>
        <mxCell id="4F6aS46lnkbIAeRqq3i3-21" style="edgeStyle=orthogonalEdgeStyle;rounded=0;orthogonalLoop=1;jettySize=auto;html=1;exitX=1;exitY=0.5;exitDx=0;exitDy=0;entryX=0;entryY=0.5;entryDx=0;entryDy=0;endArrow=none;startFill=0;" parent="1" source="4F6aS46lnkbIAeRqq3i3-16" target="4F6aS46lnkbIAeRqq3i3-20" edge="1">
          <mxGeometry relative="1" as="geometry" />
        </mxCell>
        <mxCell id="4F6aS46lnkbIAeRqq3i3-26" style="edgeStyle=orthogonalEdgeStyle;rounded=0;orthogonalLoop=1;jettySize=auto;html=1;exitX=0;exitY=0.5;exitDx=0;exitDy=0;entryX=1;entryY=0.25;entryDx=0;entryDy=0;endArrow=none;startFill=0;" parent="1" source="4F6aS46lnkbIAeRqq3i3-22" target="4F6aS46lnkbIAeRqq3i3-20" edge="1">
          <mxGeometry relative="1" as="geometry" />
        </mxCell>
        <mxCell id="4F6aS46lnkbIAeRqq3i3-41" style="edgeStyle=orthogonalEdgeStyle;rounded=0;orthogonalLoop=1;jettySize=auto;html=1;exitX=1;exitY=0.5;exitDx=0;exitDy=0;entryX=0;entryY=0.5;entryDx=0;entryDy=0;endArrow=none;startFill=0;" parent="1" source="4F6aS46lnkbIAeRqq3i3-22" target="4F6aS46lnkbIAeRqq3i3-32" edge="1">
          <mxGeometry relative="1" as="geometry" />
        </mxCell>
        <mxCell id="4F6aS46lnkbIAeRqq3i3-22" value="Issue queue" style="rounded=1;whiteSpace=wrap;html=1;arcSize=32;" parent="1" vertex="1">
          <mxGeometry x="520" y="315" width="40" height="30" as="geometry" />
        </mxCell>
        <mxCell id="4F6aS46lnkbIAeRqq3i3-39" style="edgeStyle=orthogonalEdgeStyle;rounded=0;orthogonalLoop=1;jettySize=auto;html=1;exitX=1;exitY=0.5;exitDx=0;exitDy=0;entryX=0;entryY=0.5;entryDx=0;entryDy=0;endArrow=none;startFill=0;" parent="1" source="4F6aS46lnkbIAeRqq3i3-23" target="4F6aS46lnkbIAeRqq3i3-36" edge="1">
          <mxGeometry relative="1" as="geometry" />
        </mxCell>
        <mxCell id="4F6aS46lnkbIAeRqq3i3-23" value="Issue queue" style="rounded=1;whiteSpace=wrap;html=1;arcSize=32;" parent="1" vertex="1">
          <mxGeometry x="520" y="370" width="40" height="30" as="geometry" />
        </mxCell>
        <mxCell id="4F6aS46lnkbIAeRqq3i3-27" style="edgeStyle=orthogonalEdgeStyle;rounded=0;orthogonalLoop=1;jettySize=auto;html=1;exitX=0;exitY=0.5;exitDx=0;exitDy=0;entryX=1.067;entryY=0.7;entryDx=0;entryDy=0;entryPerimeter=0;endArrow=none;startFill=0;" parent="1" source="4F6aS46lnkbIAeRqq3i3-23" target="4F6aS46lnkbIAeRqq3i3-20" edge="1">
          <mxGeometry relative="1" as="geometry" />
        </mxCell>
        <mxCell id="4F6aS46lnkbIAeRqq3i3-33" value="" style="group" parent="1" vertex="1" connectable="0">
          <mxGeometry x="580" y="310" width="10" height="40" as="geometry" />
        </mxCell>
        <mxCell id="4F6aS46lnkbIAeRqq3i3-32" value="" style="rounded=0;whiteSpace=wrap;html=1;" parent="4F6aS46lnkbIAeRqq3i3-33" vertex="1">
          <mxGeometry width="10" height="40" as="geometry" />
        </mxCell>
        <mxCell id="4F6aS46lnkbIAeRqq3i3-31" value="" style="triangle;whiteSpace=wrap;html=1;rotation=-90;" parent="4F6aS46lnkbIAeRqq3i3-33" vertex="1">
          <mxGeometry x="2.5" y="32.5" width="5" height="10" as="geometry" />
        </mxCell>
        <mxCell id="4F6aS46lnkbIAeRqq3i3-35" value="" style="group" parent="1" vertex="1" connectable="0">
          <mxGeometry x="580" y="365" width="10" height="40" as="geometry" />
        </mxCell>
        <mxCell id="4F6aS46lnkbIAeRqq3i3-36" value="" style="rounded=0;whiteSpace=wrap;html=1;" parent="4F6aS46lnkbIAeRqq3i3-35" vertex="1">
          <mxGeometry width="10" height="40" as="geometry" />
        </mxCell>
        <mxCell id="4F6aS46lnkbIAeRqq3i3-37" value="" style="triangle;whiteSpace=wrap;html=1;rotation=-90;" parent="4F6aS46lnkbIAeRqq3i3-35" vertex="1">
          <mxGeometry x="2.5" y="32.5" width="5" height="10" as="geometry" />
        </mxCell>
        <mxCell id="4F6aS46lnkbIAeRqq3i3-42" value="" style="group" parent="1" vertex="1" connectable="0">
          <mxGeometry x="660" y="310" width="10" height="40" as="geometry" />
        </mxCell>
        <mxCell id="4F6aS46lnkbIAeRqq3i3-43" value="" style="rounded=0;whiteSpace=wrap;html=1;" parent="4F6aS46lnkbIAeRqq3i3-42" vertex="1">
          <mxGeometry width="10" height="40" as="geometry" />
        </mxCell>
        <mxCell id="4F6aS46lnkbIAeRqq3i3-44" value="" style="triangle;whiteSpace=wrap;html=1;rotation=-90;" parent="4F6aS46lnkbIAeRqq3i3-42" vertex="1">
          <mxGeometry x="2.5" y="32.5" width="5" height="10" as="geometry" />
        </mxCell>
        <mxCell id="4F6aS46lnkbIAeRqq3i3-52" style="edgeStyle=orthogonalEdgeStyle;rounded=0;orthogonalLoop=1;jettySize=auto;html=1;exitX=1;exitY=0.5;exitDx=0;exitDy=0;entryX=0;entryY=0.5;entryDx=0;entryDy=0;" parent="1" source="4F6aS46lnkbIAeRqq3i3-46" target="4F6aS46lnkbIAeRqq3i3-43" edge="1">
          <mxGeometry relative="1" as="geometry" />
        </mxCell>
        <mxCell id="4F6aS46lnkbIAeRqq3i3-46" value="A0" style="rounded=1;whiteSpace=wrap;html=1;arcSize=32;" parent="1" vertex="1">
          <mxGeometry x="610" y="320" width="30" height="20" as="geometry" />
        </mxCell>
        <mxCell id="4F6aS46lnkbIAeRqq3i3-47" value="" style="group" parent="1" vertex="1" connectable="0">
          <mxGeometry x="740" y="310" width="10" height="40" as="geometry" />
        </mxCell>
        <mxCell id="4F6aS46lnkbIAeRqq3i3-48" value="" style="rounded=0;whiteSpace=wrap;html=1;" parent="4F6aS46lnkbIAeRqq3i3-47" vertex="1">
          <mxGeometry width="10" height="40" as="geometry" />
        </mxCell>
        <mxCell id="4F6aS46lnkbIAeRqq3i3-49" value="" style="triangle;whiteSpace=wrap;html=1;rotation=-90;" parent="4F6aS46lnkbIAeRqq3i3-47" vertex="1">
          <mxGeometry x="2.5" y="32.5" width="5" height="10" as="geometry" />
        </mxCell>
        <mxCell id="4F6aS46lnkbIAeRqq3i3-108" value="" style="endArrow=none;dashed=1;html=1;rounded=0;" parent="4F6aS46lnkbIAeRqq3i3-47" edge="1">
          <mxGeometry width="50" height="50" relative="1" as="geometry">
            <mxPoint x="10" y="130" as="sourcePoint" />
            <mxPoint x="10" y="-10" as="targetPoint" />
          </mxGeometry>
        </mxCell>
        <mxCell id="4F6aS46lnkbIAeRqq3i3-55" style="edgeStyle=orthogonalEdgeStyle;rounded=0;orthogonalLoop=1;jettySize=auto;html=1;exitX=1;exitY=0.5;exitDx=0;exitDy=0;entryX=0;entryY=0.5;entryDx=0;entryDy=0;" parent="1" source="4F6aS46lnkbIAeRqq3i3-50" target="4F6aS46lnkbIAeRqq3i3-48" edge="1">
          <mxGeometry relative="1" as="geometry" />
        </mxCell>
        <mxCell id="4F6aS46lnkbIAeRqq3i3-50" value="A1" style="rounded=1;whiteSpace=wrap;html=1;arcSize=32;" parent="1" vertex="1">
          <mxGeometry x="690" y="320" width="30" height="20" as="geometry" />
        </mxCell>
        <mxCell id="4F6aS46lnkbIAeRqq3i3-51" style="edgeStyle=orthogonalEdgeStyle;rounded=0;orthogonalLoop=1;jettySize=auto;html=1;exitX=1;exitY=0.5;exitDx=0;exitDy=0;entryX=0;entryY=0.5;entryDx=0;entryDy=0;" parent="1" source="4F6aS46lnkbIAeRqq3i3-32" target="4F6aS46lnkbIAeRqq3i3-46" edge="1">
          <mxGeometry relative="1" as="geometry" />
        </mxCell>
        <mxCell id="4F6aS46lnkbIAeRqq3i3-53" style="edgeStyle=orthogonalEdgeStyle;rounded=0;orthogonalLoop=1;jettySize=auto;html=1;exitX=1;exitY=0.5;exitDx=0;exitDy=0;entryX=0;entryY=0.5;entryDx=0;entryDy=0;" parent="1" source="4F6aS46lnkbIAeRqq3i3-43" target="4F6aS46lnkbIAeRqq3i3-50" edge="1">
          <mxGeometry relative="1" as="geometry" />
        </mxCell>
        <mxCell id="4F6aS46lnkbIAeRqq3i3-56" value="" style="group" parent="1" vertex="1" connectable="0">
          <mxGeometry x="660" y="365" width="10" height="40" as="geometry" />
        </mxCell>
        <mxCell id="4F6aS46lnkbIAeRqq3i3-57" value="" style="rounded=0;whiteSpace=wrap;html=1;" parent="4F6aS46lnkbIAeRqq3i3-56" vertex="1">
          <mxGeometry width="10" height="40" as="geometry" />
        </mxCell>
        <mxCell id="4F6aS46lnkbIAeRqq3i3-58" value="" style="triangle;whiteSpace=wrap;html=1;rotation=-90;" parent="4F6aS46lnkbIAeRqq3i3-56" vertex="1">
          <mxGeometry x="2.5" y="32.5" width="5" height="10" as="geometry" />
        </mxCell>
        <mxCell id="4F6aS46lnkbIAeRqq3i3-59" style="edgeStyle=orthogonalEdgeStyle;rounded=0;orthogonalLoop=1;jettySize=auto;html=1;exitX=1;exitY=0.5;exitDx=0;exitDy=0;entryX=0;entryY=0.5;entryDx=0;entryDy=0;" parent="1" source="4F6aS46lnkbIAeRqq3i3-60" target="4F6aS46lnkbIAeRqq3i3-57" edge="1">
          <mxGeometry relative="1" as="geometry" />
        </mxCell>
        <mxCell id="4F6aS46lnkbIAeRqq3i3-60" value="M0" style="rounded=1;whiteSpace=wrap;html=1;arcSize=32;" parent="1" vertex="1">
          <mxGeometry x="610" y="375" width="30" height="20" as="geometry" />
        </mxCell>
        <mxCell id="4F6aS46lnkbIAeRqq3i3-61" value="" style="group" parent="1" vertex="1" connectable="0">
          <mxGeometry x="740" y="365" width="10" height="40" as="geometry" />
        </mxCell>
        <mxCell id="4F6aS46lnkbIAeRqq3i3-62" value="" style="rounded=0;whiteSpace=wrap;html=1;" parent="4F6aS46lnkbIAeRqq3i3-61" vertex="1">
          <mxGeometry width="10" height="40" as="geometry" />
        </mxCell>
        <mxCell id="4F6aS46lnkbIAeRqq3i3-63" value="" style="triangle;whiteSpace=wrap;html=1;rotation=-90;" parent="4F6aS46lnkbIAeRqq3i3-61" vertex="1">
          <mxGeometry x="2.5" y="32.5" width="5" height="10" as="geometry" />
        </mxCell>
        <mxCell id="4F6aS46lnkbIAeRqq3i3-64" style="edgeStyle=orthogonalEdgeStyle;rounded=0;orthogonalLoop=1;jettySize=auto;html=1;exitX=1;exitY=0.5;exitDx=0;exitDy=0;entryX=0;entryY=0.5;entryDx=0;entryDy=0;" parent="1" source="4F6aS46lnkbIAeRqq3i3-65" target="4F6aS46lnkbIAeRqq3i3-62" edge="1">
          <mxGeometry relative="1" as="geometry" />
        </mxCell>
        <mxCell id="4F6aS46lnkbIAeRqq3i3-65" value="M1" style="rounded=1;whiteSpace=wrap;html=1;arcSize=32;" parent="1" vertex="1">
          <mxGeometry x="690" y="375" width="30" height="20" as="geometry" />
        </mxCell>
        <mxCell id="4F6aS46lnkbIAeRqq3i3-66" style="edgeStyle=orthogonalEdgeStyle;rounded=0;orthogonalLoop=1;jettySize=auto;html=1;exitX=1;exitY=0.5;exitDx=0;exitDy=0;entryX=0;entryY=0.5;entryDx=0;entryDy=0;" parent="1" source="4F6aS46lnkbIAeRqq3i3-57" target="4F6aS46lnkbIAeRqq3i3-65" edge="1">
          <mxGeometry relative="1" as="geometry" />
        </mxCell>
        <mxCell id="4F6aS46lnkbIAeRqq3i3-67" value="" style="group" parent="1" vertex="1" connectable="0">
          <mxGeometry x="820" y="365" width="10" height="40" as="geometry" />
        </mxCell>
        <mxCell id="4F6aS46lnkbIAeRqq3i3-68" value="" style="rounded=0;whiteSpace=wrap;html=1;" parent="4F6aS46lnkbIAeRqq3i3-67" vertex="1">
          <mxGeometry width="10" height="40" as="geometry" />
        </mxCell>
        <mxCell id="4F6aS46lnkbIAeRqq3i3-69" value="" style="triangle;whiteSpace=wrap;html=1;rotation=-90;" parent="4F6aS46lnkbIAeRqq3i3-67" vertex="1">
          <mxGeometry x="2.5" y="32.5" width="5" height="10" as="geometry" />
        </mxCell>
        <mxCell id="4F6aS46lnkbIAeRqq3i3-70" style="edgeStyle=orthogonalEdgeStyle;rounded=0;orthogonalLoop=1;jettySize=auto;html=1;exitX=1;exitY=0.5;exitDx=0;exitDy=0;entryX=0;entryY=0.5;entryDx=0;entryDy=0;" parent="1" source="4F6aS46lnkbIAeRqq3i3-71" target="4F6aS46lnkbIAeRqq3i3-68" edge="1">
          <mxGeometry relative="1" as="geometry" />
        </mxCell>
        <mxCell id="4F6aS46lnkbIAeRqq3i3-71" value="M2" style="rounded=1;whiteSpace=wrap;html=1;arcSize=32;" parent="1" vertex="1">
          <mxGeometry x="770" y="375" width="30" height="20" as="geometry" />
        </mxCell>
        <mxCell id="4F6aS46lnkbIAeRqq3i3-72" value="" style="group" parent="1" vertex="1" connectable="0">
          <mxGeometry x="900" y="365" width="10" height="40" as="geometry" />
        </mxCell>
        <mxCell id="4F6aS46lnkbIAeRqq3i3-73" value="" style="rounded=0;whiteSpace=wrap;html=1;" parent="4F6aS46lnkbIAeRqq3i3-72" vertex="1">
          <mxGeometry width="10" height="40" as="geometry" />
        </mxCell>
        <mxCell id="4F6aS46lnkbIAeRqq3i3-74" value="" style="triangle;whiteSpace=wrap;html=1;rotation=-90;" parent="4F6aS46lnkbIAeRqq3i3-72" vertex="1">
          <mxGeometry x="2.5" y="32.5" width="5" height="10" as="geometry" />
        </mxCell>
        <mxCell id="4F6aS46lnkbIAeRqq3i3-75" style="edgeStyle=orthogonalEdgeStyle;rounded=0;orthogonalLoop=1;jettySize=auto;html=1;exitX=1;exitY=0.5;exitDx=0;exitDy=0;entryX=0;entryY=0.5;entryDx=0;entryDy=0;" parent="1" source="4F6aS46lnkbIAeRqq3i3-76" target="4F6aS46lnkbIAeRqq3i3-73" edge="1">
          <mxGeometry relative="1" as="geometry" />
        </mxCell>
        <mxCell id="4F6aS46lnkbIAeRqq3i3-76" value="M3" style="rounded=1;whiteSpace=wrap;html=1;arcSize=32;" parent="1" vertex="1">
          <mxGeometry x="850" y="375" width="30" height="20" as="geometry" />
        </mxCell>
        <mxCell id="4F6aS46lnkbIAeRqq3i3-77" style="edgeStyle=orthogonalEdgeStyle;rounded=0;orthogonalLoop=1;jettySize=auto;html=1;exitX=1;exitY=0.5;exitDx=0;exitDy=0;entryX=0;entryY=0.5;entryDx=0;entryDy=0;" parent="1" source="4F6aS46lnkbIAeRqq3i3-68" target="4F6aS46lnkbIAeRqq3i3-76" edge="1">
          <mxGeometry relative="1" as="geometry" />
        </mxCell>
        <mxCell id="4F6aS46lnkbIAeRqq3i3-78" style="edgeStyle=orthogonalEdgeStyle;rounded=0;orthogonalLoop=1;jettySize=auto;html=1;exitX=1;exitY=0.5;exitDx=0;exitDy=0;entryX=0;entryY=0.5;entryDx=0;entryDy=0;" parent="1" source="4F6aS46lnkbIAeRqq3i3-36" target="4F6aS46lnkbIAeRqq3i3-60" edge="1">
          <mxGeometry relative="1" as="geometry" />
        </mxCell>
        <mxCell id="4F6aS46lnkbIAeRqq3i3-79" style="edgeStyle=orthogonalEdgeStyle;rounded=0;orthogonalLoop=1;jettySize=auto;html=1;exitX=1;exitY=0.5;exitDx=0;exitDy=0;entryX=0;entryY=0.5;entryDx=0;entryDy=0;" parent="1" source="4F6aS46lnkbIAeRqq3i3-62" target="4F6aS46lnkbIAeRqq3i3-71" edge="1">
          <mxGeometry relative="1" as="geometry" />
        </mxCell>
        <mxCell id="4F6aS46lnkbIAeRqq3i3-82" value="" style="group;" parent="1" vertex="1" connectable="0">
          <mxGeometry x="1020" y="320" width="20.004999999999995" height="80" as="geometry" />
        </mxCell>
        <mxCell id="4F6aS46lnkbIAeRqq3i3-83" value="&lt;font&gt;M&lt;/font&gt;" style="rounded=0;whiteSpace=wrap;html=1;" parent="4F6aS46lnkbIAeRqq3i3-82" vertex="1">
          <mxGeometry width="20" height="80" as="geometry" />
        </mxCell>
        <mxCell id="4F6aS46lnkbIAeRqq3i3-84" value="" style="triangle;whiteSpace=wrap;html=1;rotation=-90;" parent="4F6aS46lnkbIAeRqq3i3-82" vertex="1">
          <mxGeometry x="3.1299999999999955" y="61.879999999999995" width="13.75" height="20" as="geometry" />
        </mxCell>
        <mxCell id="4F6aS46lnkbIAeRqq3i3-85" style="rounded=0;orthogonalLoop=1;jettySize=auto;html=1;exitX=1;exitY=0.5;exitDx=0;exitDy=0;entryX=0;entryY=0.25;entryDx=0;entryDy=0;" parent="1" source="4F6aS46lnkbIAeRqq3i3-48" target="4F6aS46lnkbIAeRqq3i3-120" edge="1">
          <mxGeometry relative="1" as="geometry" />
        </mxCell>
        <mxCell id="4F6aS46lnkbIAeRqq3i3-86" style="rounded=0;orthogonalLoop=1;jettySize=auto;html=1;exitX=1;exitY=0.5;exitDx=0;exitDy=0;entryX=0;entryY=0.75;entryDx=0;entryDy=0;" parent="1" source="4F6aS46lnkbIAeRqq3i3-73" target="4F6aS46lnkbIAeRqq3i3-120" edge="1">
          <mxGeometry relative="1" as="geometry" />
        </mxCell>
        <mxCell id="4F6aS46lnkbIAeRqq3i3-88" value="" style="group" parent="1" vertex="1" connectable="0">
          <mxGeometry x="1070" y="320" width="20.004999999999995" height="80" as="geometry" />
        </mxCell>
        <mxCell id="4F6aS46lnkbIAeRqq3i3-90" value="WB" style="rounded=0;whiteSpace=wrap;html=1;" parent="4F6aS46lnkbIAeRqq3i3-88" vertex="1">
          <mxGeometry width="20" height="80" as="geometry" />
        </mxCell>
        <mxCell id="4F6aS46lnkbIAeRqq3i3-91" value="" style="triangle;whiteSpace=wrap;html=1;rotation=-90;" parent="4F6aS46lnkbIAeRqq3i3-88" vertex="1">
          <mxGeometry x="3.1299999999999955" y="61.879999999999995" width="13.75" height="20" as="geometry" />
        </mxCell>
        <mxCell id="XiYWc_ouzDCStMmWN5Zz-2" value="" style="endArrow=none;dashed=1;html=1;rounded=0;" edge="1" parent="4F6aS46lnkbIAeRqq3i3-88">
          <mxGeometry width="50" height="50" relative="1" as="geometry">
            <mxPoint x="20.00999999999999" y="140" as="sourcePoint" />
            <mxPoint x="20.00999999999999" y="-40" as="targetPoint" />
          </mxGeometry>
        </mxCell>
        <mxCell id="4F6aS46lnkbIAeRqq3i3-94" style="edgeStyle=orthogonalEdgeStyle;rounded=0;orthogonalLoop=1;jettySize=auto;html=1;exitX=1;exitY=0.5;exitDx=0;exitDy=0;entryX=0;entryY=0.5;entryDx=0;entryDy=0;" parent="1" source="4F6aS46lnkbIAeRqq3i3-83" target="4F6aS46lnkbIAeRqq3i3-90" edge="1">
          <mxGeometry relative="1" as="geometry" />
        </mxCell>
        <mxCell id="4F6aS46lnkbIAeRqq3i3-96" value="" style="endArrow=none;dashed=1;html=1;rounded=0;" parent="1" edge="1">
          <mxGeometry width="50" height="50" relative="1" as="geometry">
            <mxPoint x="80" y="460" as="sourcePoint" />
            <mxPoint x="80" y="280" as="targetPoint" />
          </mxGeometry>
        </mxCell>
        <mxCell id="4F6aS46lnkbIAeRqq3i3-97" value="" style="endArrow=none;dashed=1;html=1;rounded=0;" parent="1" edge="1">
          <mxGeometry width="50" height="50" relative="1" as="geometry">
            <mxPoint x="200" y="460" as="sourcePoint" />
            <mxPoint x="200.01" y="280" as="targetPoint" />
          </mxGeometry>
        </mxCell>
        <mxCell id="4F6aS46lnkbIAeRqq3i3-99" value="" style="group" parent="1" vertex="1" connectable="0">
          <mxGeometry x="300" y="320" width="20.004999999999995" height="80" as="geometry" />
        </mxCell>
        <mxCell id="4F6aS46lnkbIAeRqq3i3-100" value="D/R" style="rounded=0;whiteSpace=wrap;html=1;" parent="4F6aS46lnkbIAeRqq3i3-99" vertex="1">
          <mxGeometry width="20" height="80" as="geometry" />
        </mxCell>
        <mxCell id="4F6aS46lnkbIAeRqq3i3-101" value="" style="triangle;whiteSpace=wrap;html=1;rotation=-90;" parent="4F6aS46lnkbIAeRqq3i3-99" vertex="1">
          <mxGeometry x="3.1299999999999955" y="61.879999999999995" width="13.75" height="20" as="geometry" />
        </mxCell>
        <mxCell id="4F6aS46lnkbIAeRqq3i3-98" value="" style="endArrow=none;dashed=1;html=1;rounded=0;" parent="4F6aS46lnkbIAeRqq3i3-99" edge="1">
          <mxGeometry width="50" height="50" relative="1" as="geometry">
            <mxPoint x="20" y="140" as="sourcePoint" />
            <mxPoint x="20.00999999999999" y="-40" as="targetPoint" />
          </mxGeometry>
        </mxCell>
        <mxCell id="4F6aS46lnkbIAeRqq3i3-103" style="edgeStyle=orthogonalEdgeStyle;rounded=0;orthogonalLoop=1;jettySize=auto;html=1;exitX=1;exitY=0.5;exitDx=0;exitDy=0;entryX=0;entryY=0.5;entryDx=0;entryDy=0;endArrow=none;startFill=0;" parent="1" source="4F6aS46lnkbIAeRqq3i3-100" target="4F6aS46lnkbIAeRqq3i3-13" edge="1">
          <mxGeometry relative="1" as="geometry" />
        </mxCell>
        <mxCell id="4F6aS46lnkbIAeRqq3i3-107" value="" style="endArrow=none;dashed=1;html=1;rounded=0;" parent="1" edge="1">
          <mxGeometry width="50" height="50" relative="1" as="geometry">
            <mxPoint x="670" y="440" as="sourcePoint" />
            <mxPoint x="670" y="300" as="targetPoint" />
          </mxGeometry>
        </mxCell>
        <mxCell id="4F6aS46lnkbIAeRqq3i3-109" value="" style="endArrow=none;dashed=1;html=1;rounded=0;" parent="1" edge="1">
          <mxGeometry width="50" height="50" relative="1" as="geometry">
            <mxPoint x="830" y="440" as="sourcePoint" />
            <mxPoint x="830" y="300" as="targetPoint" />
          </mxGeometry>
        </mxCell>
        <mxCell id="4F6aS46lnkbIAeRqq3i3-110" value="" style="endArrow=none;dashed=1;html=1;rounded=0;" parent="1" edge="1">
          <mxGeometry width="50" height="50" relative="1" as="geometry">
            <mxPoint x="910" y="460" as="sourcePoint" />
            <mxPoint x="910" y="280" as="targetPoint" />
          </mxGeometry>
        </mxCell>
        <mxCell id="4F6aS46lnkbIAeRqq3i3-113" value="取指&lt;div&gt;IF&lt;/div&gt;" style="text;html=1;align=center;verticalAlign=middle;resizable=0;points=[];autosize=1;strokeColor=none;fillColor=none;" parent="1" vertex="1">
          <mxGeometry x="110" y="440" width="50" height="40" as="geometry" />
        </mxCell>
        <mxCell id="4F6aS46lnkbIAeRqq3i3-114" value="译码&lt;div&gt;ID&lt;/div&gt;" style="text;html=1;align=center;verticalAlign=middle;resizable=0;points=[];autosize=1;strokeColor=none;fillColor=none;" parent="1" vertex="1">
          <mxGeometry x="230" y="440" width="50" height="40" as="geometry" />
        </mxCell>
        <mxCell id="4F6aS46lnkbIAeRqq3i3-115" value="重命名&lt;div&gt;RN&lt;/div&gt;" style="text;html=1;align=center;verticalAlign=middle;resizable=0;points=[];autosize=1;strokeColor=none;fillColor=none;" parent="1" vertex="1">
          <mxGeometry x="345" y="440" width="60" height="40" as="geometry" />
        </mxCell>
        <mxCell id="4F6aS46lnkbIAeRqq3i3-116" value="发射&lt;div&gt;IS&lt;/div&gt;" style="text;html=1;align=center;verticalAlign=middle;resizable=0;points=[];autosize=1;strokeColor=none;fillColor=none;" parent="1" vertex="1">
          <mxGeometry x="495" y="440" width="50" height="40" as="geometry" />
        </mxCell>
        <mxCell id="4F6aS46lnkbIAeRqq3i3-117" value="执行&lt;div&gt;EX&lt;/div&gt;" style="text;html=1;align=center;verticalAlign=middle;resizable=0;points=[];autosize=1;strokeColor=none;fillColor=none;" parent="1" vertex="1">
          <mxGeometry x="720" y="440" width="50" height="40" as="geometry" />
        </mxCell>
        <mxCell id="4F6aS46lnkbIAeRqq3i3-118" value="访存&lt;div&gt;MEM&lt;/div&gt;" style="text;html=1;align=center;verticalAlign=middle;resizable=0;points=[];autosize=1;strokeColor=none;fillColor=none;" parent="1" vertex="1">
          <mxGeometry x="950" y="440" width="50" height="40" as="geometry" />
        </mxCell>
        <mxCell id="4F6aS46lnkbIAeRqq3i3-119" value="写回&lt;div&gt;WB&lt;/div&gt;" style="text;html=1;align=center;verticalAlign=middle;resizable=0;points=[];autosize=1;strokeColor=none;fillColor=none;" parent="1" vertex="1">
          <mxGeometry x="1040.01" y="440" width="50" height="40" as="geometry" />
        </mxCell>
        <mxCell id="4F6aS46lnkbIAeRqq3i3-121" style="edgeStyle=orthogonalEdgeStyle;rounded=0;orthogonalLoop=1;jettySize=auto;html=1;exitX=1;exitY=0.5;exitDx=0;exitDy=0;entryX=0;entryY=0.5;entryDx=0;entryDy=0;" parent="1" source="4F6aS46lnkbIAeRqq3i3-120" target="4F6aS46lnkbIAeRqq3i3-83" edge="1">
          <mxGeometry relative="1" as="geometry" />
        </mxCell>
        <mxCell id="4F6aS46lnkbIAeRqq3i3-120" value="D-cache" style="rounded=1;whiteSpace=wrap;html=1;arcSize=32;" parent="1" vertex="1">
          <mxGeometry x="940" y="345" width="60" height="30" as="geometry" />
        </mxCell>
        <mxCell id="4F6aS46lnkbIAeRqq3i3-106" value="" style="endArrow=none;dashed=1;html=1;rounded=0;" parent="1" edge="1">
          <mxGeometry width="50" height="50" relative="1" as="geometry">
            <mxPoint x="590" y="460" as="sourcePoint" />
            <mxPoint x="590" y="280" as="targetPoint" />
          </mxGeometry>
        </mxCell>
        <mxCell id="XiYWc_ouzDCStMmWN5Zz-1" value="" style="endArrow=none;dashed=1;html=1;rounded=0;" edge="1" parent="1">
          <mxGeometry width="50" height="50" relative="1" as="geometry">
            <mxPoint x="1040.01" y="460" as="sourcePoint" />
            <mxPoint x="1040.01" y="280" as="targetPoint" />
          </mxGeometry>
        </mxCell>
      </root>
    </mxGraphModel>
  </diagram>
  <diagram id="_OME44235_2ob7RRxLEk" name="6-11">
    <mxGraphModel dx="920" dy="514" grid="1" gridSize="10" guides="1" tooltips="1" connect="1" arrows="1" fold="1" page="1" pageScale="1" pageWidth="827" pageHeight="1169" math="0" shadow="0">
      <root>
        <mxCell id="0" />
        <mxCell id="1" parent="0" />
        <mxCell id="lFrxi4bXQztLZezpDt3v-1" value="" style="group" parent="1" vertex="1" connectable="0">
          <mxGeometry x="140" y="760" width="20.004999999999995" height="80" as="geometry" />
        </mxCell>
        <mxCell id="lFrxi4bXQztLZezpDt3v-2" value="PC" style="rounded=0;whiteSpace=wrap;html=1;" parent="lFrxi4bXQztLZezpDt3v-1" vertex="1">
          <mxGeometry width="20" height="80" as="geometry" />
        </mxCell>
        <mxCell id="lFrxi4bXQztLZezpDt3v-3" value="" style="triangle;whiteSpace=wrap;html=1;rotation=-90;" parent="lFrxi4bXQztLZezpDt3v-1" vertex="1">
          <mxGeometry x="3.1299999999999955" y="61.879999999999995" width="13.75" height="20" as="geometry" />
        </mxCell>
        <mxCell id="lFrxi4bXQztLZezpDt3v-4" value="" style="group" parent="1" vertex="1" connectable="0">
          <mxGeometry x="260" y="760" width="20.004999999999995" height="80" as="geometry" />
        </mxCell>
        <mxCell id="lFrxi4bXQztLZezpDt3v-5" value="F/D" style="rounded=0;whiteSpace=wrap;html=1;" parent="lFrxi4bXQztLZezpDt3v-4" vertex="1">
          <mxGeometry width="20" height="80" as="geometry" />
        </mxCell>
        <mxCell id="lFrxi4bXQztLZezpDt3v-6" value="" style="triangle;whiteSpace=wrap;html=1;rotation=-90;" parent="lFrxi4bXQztLZezpDt3v-4" vertex="1">
          <mxGeometry x="3.1299999999999955" y="61.879999999999995" width="13.75" height="20" as="geometry" />
        </mxCell>
        <mxCell id="lFrxi4bXQztLZezpDt3v-7" style="edgeStyle=orthogonalEdgeStyle;rounded=0;orthogonalLoop=1;jettySize=auto;html=1;exitX=1;exitY=0.5;exitDx=0;exitDy=0;entryX=0;entryY=0.5;entryDx=0;entryDy=0;endArrow=none;startFill=0;" parent="1" source="lFrxi4bXQztLZezpDt3v-8" target="lFrxi4bXQztLZezpDt3v-5" edge="1">
          <mxGeometry relative="1" as="geometry" />
        </mxCell>
        <mxCell id="lFrxi4bXQztLZezpDt3v-8" value="I-cache" style="rounded=1;whiteSpace=wrap;html=1;arcSize=32;" parent="1" vertex="1">
          <mxGeometry x="180" y="785" width="60" height="30" as="geometry" />
        </mxCell>
        <mxCell id="lFrxi4bXQztLZezpDt3v-9" style="edgeStyle=orthogonalEdgeStyle;rounded=0;orthogonalLoop=1;jettySize=auto;html=1;exitX=1;exitY=0.5;exitDx=0;exitDy=0;entryX=0;entryY=0.5;entryDx=0;entryDy=0;endArrow=none;startFill=0;" parent="1" source="lFrxi4bXQztLZezpDt3v-2" target="lFrxi4bXQztLZezpDt3v-8" edge="1">
          <mxGeometry relative="1" as="geometry" />
        </mxCell>
        <mxCell id="lFrxi4bXQztLZezpDt3v-10" style="edgeStyle=orthogonalEdgeStyle;rounded=0;orthogonalLoop=1;jettySize=auto;html=1;exitX=1;exitY=0.5;exitDx=0;exitDy=0;entryX=0;entryY=0.5;entryDx=0;entryDy=0;endArrow=none;startFill=0;" parent="1" source="lFrxi4bXQztLZezpDt3v-11" target="lFrxi4bXQztLZezpDt3v-84" edge="1">
          <mxGeometry relative="1" as="geometry" />
        </mxCell>
        <mxCell id="lFrxi4bXQztLZezpDt3v-11" value="decode" style="rounded=1;whiteSpace=wrap;html=1;arcSize=32;" parent="1" vertex="1">
          <mxGeometry x="300" y="785" width="60" height="30" as="geometry" />
        </mxCell>
        <mxCell id="lFrxi4bXQztLZezpDt3v-12" style="edgeStyle=orthogonalEdgeStyle;rounded=0;orthogonalLoop=1;jettySize=auto;html=1;exitX=1;exitY=0.5;exitDx=0;exitDy=0;entryX=0;entryY=0.5;entryDx=0;entryDy=0;endArrow=none;startFill=0;" parent="1" source="lFrxi4bXQztLZezpDt3v-5" target="lFrxi4bXQztLZezpDt3v-11" edge="1">
          <mxGeometry relative="1" as="geometry" />
        </mxCell>
        <mxCell id="lFrxi4bXQztLZezpDt3v-13" style="edgeStyle=orthogonalEdgeStyle;rounded=0;orthogonalLoop=1;jettySize=auto;html=1;exitX=1;exitY=0.5;exitDx=0;exitDy=0;entryX=0;entryY=0.5;entryDx=0;entryDy=0;endArrow=none;startFill=0;" parent="1" source="lFrxi4bXQztLZezpDt3v-14" target="lFrxi4bXQztLZezpDt3v-16" edge="1">
          <mxGeometry relative="1" as="geometry" />
        </mxCell>
        <mxCell id="lFrxi4bXQztLZezpDt3v-14" value="RAT" style="rounded=1;whiteSpace=wrap;html=1;arcSize=32;" parent="1" vertex="1">
          <mxGeometry x="420" y="785" width="60" height="30" as="geometry" />
        </mxCell>
        <mxCell id="lFrxi4bXQztLZezpDt3v-15" value="" style="group" parent="1" vertex="1" connectable="0">
          <mxGeometry x="500" y="760" width="20.004999999999995" height="80" as="geometry" />
        </mxCell>
        <mxCell id="lFrxi4bXQztLZezpDt3v-16" value="R/I" style="rounded=0;whiteSpace=wrap;html=1;" parent="lFrxi4bXQztLZezpDt3v-15" vertex="1">
          <mxGeometry width="20" height="80" as="geometry" />
        </mxCell>
        <mxCell id="lFrxi4bXQztLZezpDt3v-17" value="" style="triangle;whiteSpace=wrap;html=1;rotation=-90;" parent="lFrxi4bXQztLZezpDt3v-15" vertex="1">
          <mxGeometry x="3.1299999999999955" y="61.879999999999995" width="13.75" height="20" as="geometry" />
        </mxCell>
        <mxCell id="lFrxi4bXQztLZezpDt3v-18" value="" style="endArrow=none;dashed=1;html=1;rounded=0;" parent="lFrxi4bXQztLZezpDt3v-15" edge="1">
          <mxGeometry width="50" height="50" relative="1" as="geometry">
            <mxPoint x="20" y="140" as="sourcePoint" />
            <mxPoint x="20.00999999999999" y="-40" as="targetPoint" />
          </mxGeometry>
        </mxCell>
        <mxCell id="lFrxi4bXQztLZezpDt3v-19" value="Issue logic" style="rounded=1;whiteSpace=wrap;arcSize=32;" parent="1" vertex="1">
          <mxGeometry x="545" y="735" width="30" height="130" as="geometry" />
        </mxCell>
        <mxCell id="lFrxi4bXQztLZezpDt3v-20" style="edgeStyle=orthogonalEdgeStyle;rounded=0;orthogonalLoop=1;jettySize=auto;html=1;exitX=1;exitY=0.5;exitDx=0;exitDy=0;entryX=0;entryY=0.5;entryDx=0;entryDy=0;endArrow=none;startFill=0;" parent="1" source="lFrxi4bXQztLZezpDt3v-16" target="lFrxi4bXQztLZezpDt3v-19" edge="1">
          <mxGeometry relative="1" as="geometry" />
        </mxCell>
        <mxCell id="lFrxi4bXQztLZezpDt3v-22" style="edgeStyle=orthogonalEdgeStyle;rounded=0;orthogonalLoop=1;jettySize=auto;html=1;exitX=1;exitY=0.5;exitDx=0;exitDy=0;entryX=0;entryY=0.5;entryDx=0;entryDy=0;endArrow=none;startFill=0;" parent="1" source="lFrxi4bXQztLZezpDt3v-23" target="lFrxi4bXQztLZezpDt3v-28" edge="1">
          <mxGeometry relative="1" as="geometry" />
        </mxCell>
        <mxCell id="lFrxi4bXQztLZezpDt3v-23" value="Issue queue" style="rounded=1;whiteSpace=wrap;html=1;arcSize=32;" parent="1" vertex="1">
          <mxGeometry x="600.01" y="740" width="40" height="30" as="geometry" />
        </mxCell>
        <mxCell id="lFrxi4bXQztLZezpDt3v-24" style="edgeStyle=orthogonalEdgeStyle;rounded=0;orthogonalLoop=1;jettySize=auto;html=1;exitX=1;exitY=0.5;exitDx=0;exitDy=0;entryX=0;entryY=0.5;entryDx=0;entryDy=0;endArrow=none;startFill=0;" parent="1" source="lFrxi4bXQztLZezpDt3v-25" target="lFrxi4bXQztLZezpDt3v-32" edge="1">
          <mxGeometry relative="1" as="geometry" />
        </mxCell>
        <mxCell id="lFrxi4bXQztLZezpDt3v-25" value="Issue queue" style="rounded=1;whiteSpace=wrap;html=1;arcSize=32;" parent="1" vertex="1">
          <mxGeometry x="600.01" y="785" width="40" height="30" as="geometry" />
        </mxCell>
        <mxCell id="lFrxi4bXQztLZezpDt3v-27" value="" style="group" parent="1" vertex="1" connectable="0">
          <mxGeometry x="660.01" y="735" width="10" height="40" as="geometry" />
        </mxCell>
        <mxCell id="lFrxi4bXQztLZezpDt3v-28" value="" style="rounded=0;whiteSpace=wrap;html=1;" parent="lFrxi4bXQztLZezpDt3v-27" vertex="1">
          <mxGeometry width="10" height="40" as="geometry" />
        </mxCell>
        <mxCell id="lFrxi4bXQztLZezpDt3v-29" value="" style="triangle;whiteSpace=wrap;html=1;rotation=-90;" parent="lFrxi4bXQztLZezpDt3v-27" vertex="1">
          <mxGeometry x="2.5" y="32.5" width="5" height="10" as="geometry" />
        </mxCell>
        <mxCell id="lFrxi4bXQztLZezpDt3v-31" value="" style="group" parent="1" vertex="1" connectable="0">
          <mxGeometry x="660.01" y="780" width="10" height="40" as="geometry" />
        </mxCell>
        <mxCell id="lFrxi4bXQztLZezpDt3v-32" value="" style="rounded=0;whiteSpace=wrap;html=1;" parent="lFrxi4bXQztLZezpDt3v-31" vertex="1">
          <mxGeometry width="10" height="40" as="geometry" />
        </mxCell>
        <mxCell id="lFrxi4bXQztLZezpDt3v-33" value="" style="triangle;whiteSpace=wrap;html=1;rotation=-90;" parent="lFrxi4bXQztLZezpDt3v-31" vertex="1">
          <mxGeometry x="2.5" y="32.5" width="5" height="10" as="geometry" />
        </mxCell>
        <mxCell id="lFrxi4bXQztLZezpDt3v-34" value="" style="group" parent="1" vertex="1" connectable="0">
          <mxGeometry x="740.01" y="735" width="10" height="40" as="geometry" />
        </mxCell>
        <mxCell id="lFrxi4bXQztLZezpDt3v-35" value="" style="rounded=0;whiteSpace=wrap;html=1;" parent="lFrxi4bXQztLZezpDt3v-34" vertex="1">
          <mxGeometry width="10" height="40" as="geometry" />
        </mxCell>
        <mxCell id="lFrxi4bXQztLZezpDt3v-36" value="" style="triangle;whiteSpace=wrap;html=1;rotation=-90;" parent="lFrxi4bXQztLZezpDt3v-34" vertex="1">
          <mxGeometry x="2.5" y="32.5" width="5" height="10" as="geometry" />
        </mxCell>
        <mxCell id="lFrxi4bXQztLZezpDt3v-37" style="edgeStyle=orthogonalEdgeStyle;rounded=0;orthogonalLoop=1;jettySize=auto;html=1;exitX=1;exitY=0.5;exitDx=0;exitDy=0;entryX=0;entryY=0.5;entryDx=0;entryDy=0;" parent="1" source="lFrxi4bXQztLZezpDt3v-38" target="lFrxi4bXQztLZezpDt3v-35" edge="1">
          <mxGeometry relative="1" as="geometry" />
        </mxCell>
        <mxCell id="lFrxi4bXQztLZezpDt3v-38" value="A0" style="rounded=1;whiteSpace=wrap;html=1;arcSize=32;" parent="1" vertex="1">
          <mxGeometry x="690.01" y="745" width="30" height="20" as="geometry" />
        </mxCell>
        <mxCell id="lFrxi4bXQztLZezpDt3v-39" value="" style="group" parent="1" vertex="1" connectable="0">
          <mxGeometry x="820.01" y="735" width="10" height="40" as="geometry" />
        </mxCell>
        <mxCell id="lFrxi4bXQztLZezpDt3v-40" value="" style="rounded=0;whiteSpace=wrap;html=1;" parent="lFrxi4bXQztLZezpDt3v-39" vertex="1">
          <mxGeometry width="10" height="40" as="geometry" />
        </mxCell>
        <mxCell id="lFrxi4bXQztLZezpDt3v-41" value="" style="triangle;whiteSpace=wrap;html=1;rotation=-90;" parent="lFrxi4bXQztLZezpDt3v-39" vertex="1">
          <mxGeometry x="2.5" y="32.5" width="5" height="10" as="geometry" />
        </mxCell>
        <mxCell id="lFrxi4bXQztLZezpDt3v-43" style="edgeStyle=orthogonalEdgeStyle;rounded=0;orthogonalLoop=1;jettySize=auto;html=1;exitX=1;exitY=0.5;exitDx=0;exitDy=0;entryX=0;entryY=0.5;entryDx=0;entryDy=0;" parent="1" source="lFrxi4bXQztLZezpDt3v-44" target="lFrxi4bXQztLZezpDt3v-40" edge="1">
          <mxGeometry relative="1" as="geometry" />
        </mxCell>
        <mxCell id="lFrxi4bXQztLZezpDt3v-44" value="A1" style="rounded=1;whiteSpace=wrap;html=1;arcSize=32;" parent="1" vertex="1">
          <mxGeometry x="770.01" y="745" width="30" height="20" as="geometry" />
        </mxCell>
        <mxCell id="lFrxi4bXQztLZezpDt3v-45" style="edgeStyle=orthogonalEdgeStyle;rounded=0;orthogonalLoop=1;jettySize=auto;html=1;exitX=1;exitY=0.5;exitDx=0;exitDy=0;entryX=0;entryY=0.5;entryDx=0;entryDy=0;" parent="1" source="lFrxi4bXQztLZezpDt3v-28" target="lFrxi4bXQztLZezpDt3v-38" edge="1">
          <mxGeometry relative="1" as="geometry" />
        </mxCell>
        <mxCell id="lFrxi4bXQztLZezpDt3v-46" style="edgeStyle=orthogonalEdgeStyle;rounded=0;orthogonalLoop=1;jettySize=auto;html=1;exitX=1;exitY=0.5;exitDx=0;exitDy=0;entryX=0;entryY=0.5;entryDx=0;entryDy=0;" parent="1" source="lFrxi4bXQztLZezpDt3v-35" target="lFrxi4bXQztLZezpDt3v-44" edge="1">
          <mxGeometry relative="1" as="geometry" />
        </mxCell>
        <mxCell id="lFrxi4bXQztLZezpDt3v-47" value="" style="group" parent="1" vertex="1" connectable="0">
          <mxGeometry x="740.01" y="780" width="10" height="40" as="geometry" />
        </mxCell>
        <mxCell id="lFrxi4bXQztLZezpDt3v-48" value="" style="rounded=0;whiteSpace=wrap;html=1;" parent="lFrxi4bXQztLZezpDt3v-47" vertex="1">
          <mxGeometry width="10" height="40" as="geometry" />
        </mxCell>
        <mxCell id="lFrxi4bXQztLZezpDt3v-49" value="" style="triangle;whiteSpace=wrap;html=1;rotation=-90;" parent="lFrxi4bXQztLZezpDt3v-47" vertex="1">
          <mxGeometry x="2.5" y="32.5" width="5" height="10" as="geometry" />
        </mxCell>
        <mxCell id="lFrxi4bXQztLZezpDt3v-50" style="edgeStyle=orthogonalEdgeStyle;rounded=0;orthogonalLoop=1;jettySize=auto;html=1;exitX=1;exitY=0.5;exitDx=0;exitDy=0;entryX=0;entryY=0.5;entryDx=0;entryDy=0;" parent="1" source="lFrxi4bXQztLZezpDt3v-51" target="lFrxi4bXQztLZezpDt3v-48" edge="1">
          <mxGeometry relative="1" as="geometry" />
        </mxCell>
        <mxCell id="lFrxi4bXQztLZezpDt3v-51" value="M0" style="rounded=1;whiteSpace=wrap;html=1;arcSize=32;" parent="1" vertex="1">
          <mxGeometry x="690.01" y="790" width="30" height="20" as="geometry" />
        </mxCell>
        <mxCell id="lFrxi4bXQztLZezpDt3v-52" value="" style="group" parent="1" vertex="1" connectable="0">
          <mxGeometry x="820.01" y="780" width="10" height="40" as="geometry" />
        </mxCell>
        <mxCell id="lFrxi4bXQztLZezpDt3v-53" value="" style="rounded=0;whiteSpace=wrap;html=1;" parent="lFrxi4bXQztLZezpDt3v-52" vertex="1">
          <mxGeometry width="10" height="40" as="geometry" />
        </mxCell>
        <mxCell id="lFrxi4bXQztLZezpDt3v-54" value="" style="triangle;whiteSpace=wrap;html=1;rotation=-90;" parent="lFrxi4bXQztLZezpDt3v-52" vertex="1">
          <mxGeometry x="2.5" y="32.5" width="5" height="10" as="geometry" />
        </mxCell>
        <mxCell id="lFrxi4bXQztLZezpDt3v-55" style="edgeStyle=orthogonalEdgeStyle;rounded=0;orthogonalLoop=1;jettySize=auto;html=1;exitX=1;exitY=0.5;exitDx=0;exitDy=0;entryX=0;entryY=0.5;entryDx=0;entryDy=0;" parent="1" source="lFrxi4bXQztLZezpDt3v-56" target="lFrxi4bXQztLZezpDt3v-53" edge="1">
          <mxGeometry relative="1" as="geometry" />
        </mxCell>
        <mxCell id="lFrxi4bXQztLZezpDt3v-56" value="M1" style="rounded=1;whiteSpace=wrap;html=1;arcSize=32;" parent="1" vertex="1">
          <mxGeometry x="770.01" y="790" width="30" height="20" as="geometry" />
        </mxCell>
        <mxCell id="lFrxi4bXQztLZezpDt3v-57" style="edgeStyle=orthogonalEdgeStyle;rounded=0;orthogonalLoop=1;jettySize=auto;html=1;exitX=1;exitY=0.5;exitDx=0;exitDy=0;entryX=0;entryY=0.5;entryDx=0;entryDy=0;" parent="1" source="lFrxi4bXQztLZezpDt3v-48" target="lFrxi4bXQztLZezpDt3v-56" edge="1">
          <mxGeometry relative="1" as="geometry" />
        </mxCell>
        <mxCell id="lFrxi4bXQztLZezpDt3v-58" value="" style="group" parent="1" vertex="1" connectable="0">
          <mxGeometry x="900.01" y="780" width="10" height="40" as="geometry" />
        </mxCell>
        <mxCell id="lFrxi4bXQztLZezpDt3v-59" value="" style="rounded=0;whiteSpace=wrap;html=1;" parent="lFrxi4bXQztLZezpDt3v-58" vertex="1">
          <mxGeometry width="10" height="40" as="geometry" />
        </mxCell>
        <mxCell id="lFrxi4bXQztLZezpDt3v-60" value="" style="triangle;whiteSpace=wrap;html=1;rotation=-90;" parent="lFrxi4bXQztLZezpDt3v-58" vertex="1">
          <mxGeometry x="2.5" y="32.5" width="5" height="10" as="geometry" />
        </mxCell>
        <mxCell id="hMbX31xOWf107lPdRhjI-8" value="" style="endArrow=none;dashed=1;html=1;rounded=0;" edge="1" parent="lFrxi4bXQztLZezpDt3v-58">
          <mxGeometry width="50" height="50" relative="1" as="geometry">
            <mxPoint x="10" y="100" as="sourcePoint" />
            <mxPoint x="9.990000000000009" y="-60" as="targetPoint" />
          </mxGeometry>
        </mxCell>
        <mxCell id="lFrxi4bXQztLZezpDt3v-61" style="edgeStyle=orthogonalEdgeStyle;rounded=0;orthogonalLoop=1;jettySize=auto;html=1;exitX=1;exitY=0.5;exitDx=0;exitDy=0;entryX=0;entryY=0.5;entryDx=0;entryDy=0;" parent="1" source="lFrxi4bXQztLZezpDt3v-62" target="lFrxi4bXQztLZezpDt3v-59" edge="1">
          <mxGeometry relative="1" as="geometry" />
        </mxCell>
        <mxCell id="lFrxi4bXQztLZezpDt3v-62" value="M2" style="rounded=1;whiteSpace=wrap;html=1;arcSize=32;" parent="1" vertex="1">
          <mxGeometry x="850.01" y="790" width="30" height="20" as="geometry" />
        </mxCell>
        <mxCell id="lFrxi4bXQztLZezpDt3v-63" value="" style="group" parent="1" vertex="1" connectable="0">
          <mxGeometry x="980.01" y="780" width="10" height="40" as="geometry" />
        </mxCell>
        <mxCell id="lFrxi4bXQztLZezpDt3v-64" value="" style="rounded=0;whiteSpace=wrap;html=1;" parent="lFrxi4bXQztLZezpDt3v-63" vertex="1">
          <mxGeometry width="10" height="40" as="geometry" />
        </mxCell>
        <mxCell id="lFrxi4bXQztLZezpDt3v-65" value="" style="triangle;whiteSpace=wrap;html=1;rotation=-90;" parent="lFrxi4bXQztLZezpDt3v-63" vertex="1">
          <mxGeometry x="2.5" y="32.5" width="5" height="10" as="geometry" />
        </mxCell>
        <mxCell id="lFrxi4bXQztLZezpDt3v-66" style="edgeStyle=orthogonalEdgeStyle;rounded=0;orthogonalLoop=1;jettySize=auto;html=1;exitX=1;exitY=0.5;exitDx=0;exitDy=0;entryX=0;entryY=0.5;entryDx=0;entryDy=0;" parent="1" source="lFrxi4bXQztLZezpDt3v-67" target="lFrxi4bXQztLZezpDt3v-64" edge="1">
          <mxGeometry relative="1" as="geometry" />
        </mxCell>
        <mxCell id="lFrxi4bXQztLZezpDt3v-67" value="M3" style="rounded=1;whiteSpace=wrap;html=1;arcSize=32;" parent="1" vertex="1">
          <mxGeometry x="930.01" y="790" width="30" height="20" as="geometry" />
        </mxCell>
        <mxCell id="lFrxi4bXQztLZezpDt3v-68" style="edgeStyle=orthogonalEdgeStyle;rounded=0;orthogonalLoop=1;jettySize=auto;html=1;exitX=1;exitY=0.5;exitDx=0;exitDy=0;entryX=0;entryY=0.5;entryDx=0;entryDy=0;" parent="1" source="lFrxi4bXQztLZezpDt3v-59" target="lFrxi4bXQztLZezpDt3v-67" edge="1">
          <mxGeometry relative="1" as="geometry" />
        </mxCell>
        <mxCell id="lFrxi4bXQztLZezpDt3v-69" style="edgeStyle=orthogonalEdgeStyle;rounded=0;orthogonalLoop=1;jettySize=auto;html=1;exitX=1;exitY=0.5;exitDx=0;exitDy=0;entryX=0;entryY=0.5;entryDx=0;entryDy=0;" parent="1" source="lFrxi4bXQztLZezpDt3v-32" target="lFrxi4bXQztLZezpDt3v-51" edge="1">
          <mxGeometry relative="1" as="geometry" />
        </mxCell>
        <mxCell id="lFrxi4bXQztLZezpDt3v-70" style="edgeStyle=orthogonalEdgeStyle;rounded=0;orthogonalLoop=1;jettySize=auto;html=1;exitX=1;exitY=0.5;exitDx=0;exitDy=0;entryX=0;entryY=0.5;entryDx=0;entryDy=0;" parent="1" source="lFrxi4bXQztLZezpDt3v-53" target="lFrxi4bXQztLZezpDt3v-62" edge="1">
          <mxGeometry relative="1" as="geometry" />
        </mxCell>
        <mxCell id="lFrxi4bXQztLZezpDt3v-75" style="rounded=0;orthogonalLoop=1;jettySize=auto;html=1;exitX=1;exitY=0.5;exitDx=0;exitDy=0;entryX=0;entryY=0.25;entryDx=0;entryDy=0;" parent="1" target="lFrxi4bXQztLZezpDt3v-78" edge="1">
          <mxGeometry relative="1" as="geometry">
            <mxPoint x="830.0100000000002" y="746.75" as="sourcePoint" />
            <mxPoint x="1030" y="747" as="targetPoint" />
          </mxGeometry>
        </mxCell>
        <mxCell id="lFrxi4bXQztLZezpDt3v-76" style="rounded=0;orthogonalLoop=1;jettySize=auto;html=1;exitX=1;exitY=0.5;exitDx=0;exitDy=0;" parent="1" source="lFrxi4bXQztLZezpDt3v-64" edge="1">
          <mxGeometry relative="1" as="geometry">
            <mxPoint x="1040" y="800" as="targetPoint" />
          </mxGeometry>
        </mxCell>
        <mxCell id="lFrxi4bXQztLZezpDt3v-77" value="" style="group" parent="1" vertex="1" connectable="0">
          <mxGeometry x="1039.99" y="760" width="20.004999999999995" height="80" as="geometry" />
        </mxCell>
        <mxCell id="lFrxi4bXQztLZezpDt3v-78" value="WB" style="rounded=0;whiteSpace=wrap;html=1;" parent="lFrxi4bXQztLZezpDt3v-77" vertex="1">
          <mxGeometry width="20" height="80" as="geometry" />
        </mxCell>
        <mxCell id="lFrxi4bXQztLZezpDt3v-79" value="" style="triangle;whiteSpace=wrap;html=1;rotation=-90;" parent="lFrxi4bXQztLZezpDt3v-77" vertex="1">
          <mxGeometry x="3.1299999999999955" y="61.879999999999995" width="13.75" height="20" as="geometry" />
        </mxCell>
        <mxCell id="hMbX31xOWf107lPdRhjI-11" value="" style="endArrow=none;dashed=1;html=1;rounded=0;" edge="1" parent="lFrxi4bXQztLZezpDt3v-77">
          <mxGeometry width="50" height="50" relative="1" as="geometry">
            <mxPoint x="20.00999999999999" y="140" as="sourcePoint" />
            <mxPoint x="20.019999999999982" y="-40" as="targetPoint" />
          </mxGeometry>
        </mxCell>
        <mxCell id="lFrxi4bXQztLZezpDt3v-81" value="" style="endArrow=none;dashed=1;html=1;rounded=0;" parent="1" edge="1">
          <mxGeometry width="50" height="50" relative="1" as="geometry">
            <mxPoint x="160" y="900" as="sourcePoint" />
            <mxPoint x="160" y="720" as="targetPoint" />
          </mxGeometry>
        </mxCell>
        <mxCell id="lFrxi4bXQztLZezpDt3v-82" value="" style="endArrow=none;dashed=1;html=1;rounded=0;" parent="1" edge="1">
          <mxGeometry width="50" height="50" relative="1" as="geometry">
            <mxPoint x="280" y="900" as="sourcePoint" />
            <mxPoint x="280.01" y="720" as="targetPoint" />
          </mxGeometry>
        </mxCell>
        <mxCell id="lFrxi4bXQztLZezpDt3v-83" value="" style="group" parent="1" vertex="1" connectable="0">
          <mxGeometry x="380" y="760" width="20.004999999999995" height="80" as="geometry" />
        </mxCell>
        <mxCell id="lFrxi4bXQztLZezpDt3v-84" value="D/R" style="rounded=0;whiteSpace=wrap;html=1;" parent="lFrxi4bXQztLZezpDt3v-83" vertex="1">
          <mxGeometry width="20" height="80" as="geometry" />
        </mxCell>
        <mxCell id="lFrxi4bXQztLZezpDt3v-85" value="" style="triangle;whiteSpace=wrap;html=1;rotation=-90;" parent="lFrxi4bXQztLZezpDt3v-83" vertex="1">
          <mxGeometry x="3.1299999999999955" y="61.879999999999995" width="13.75" height="20" as="geometry" />
        </mxCell>
        <mxCell id="lFrxi4bXQztLZezpDt3v-86" value="" style="endArrow=none;dashed=1;html=1;rounded=0;" parent="lFrxi4bXQztLZezpDt3v-83" edge="1">
          <mxGeometry width="50" height="50" relative="1" as="geometry">
            <mxPoint x="20" y="140" as="sourcePoint" />
            <mxPoint x="20.00999999999999" y="-40" as="targetPoint" />
          </mxGeometry>
        </mxCell>
        <mxCell id="lFrxi4bXQztLZezpDt3v-87" style="edgeStyle=orthogonalEdgeStyle;rounded=0;orthogonalLoop=1;jettySize=auto;html=1;exitX=1;exitY=0.5;exitDx=0;exitDy=0;entryX=0;entryY=0.5;entryDx=0;entryDy=0;endArrow=none;startFill=0;" parent="1" source="lFrxi4bXQztLZezpDt3v-84" target="lFrxi4bXQztLZezpDt3v-14" edge="1">
          <mxGeometry relative="1" as="geometry" />
        </mxCell>
        <mxCell id="lFrxi4bXQztLZezpDt3v-88" value="" style="endArrow=none;dashed=1;html=1;rounded=0;" parent="1" edge="1">
          <mxGeometry width="50" height="50" relative="1" as="geometry">
            <mxPoint x="750" y="830" as="sourcePoint" />
            <mxPoint x="750" y="720" as="targetPoint" />
          </mxGeometry>
        </mxCell>
        <mxCell id="lFrxi4bXQztLZezpDt3v-92" value="取指&lt;div&gt;IF&lt;/div&gt;" style="text;html=1;align=center;verticalAlign=middle;resizable=0;points=[];autosize=1;strokeColor=none;fillColor=none;" parent="1" vertex="1">
          <mxGeometry x="190" y="880" width="50" height="40" as="geometry" />
        </mxCell>
        <mxCell id="lFrxi4bXQztLZezpDt3v-93" value="译码&lt;div&gt;ID&lt;/div&gt;" style="text;html=1;align=center;verticalAlign=middle;resizable=0;points=[];autosize=1;strokeColor=none;fillColor=none;" parent="1" vertex="1">
          <mxGeometry x="310" y="880" width="50" height="40" as="geometry" />
        </mxCell>
        <mxCell id="lFrxi4bXQztLZezpDt3v-94" value="重命名&lt;div&gt;RN&lt;/div&gt;" style="text;html=1;align=center;verticalAlign=middle;resizable=0;points=[];autosize=1;strokeColor=none;fillColor=none;" parent="1" vertex="1">
          <mxGeometry x="425" y="880" width="60" height="40" as="geometry" />
        </mxCell>
        <mxCell id="lFrxi4bXQztLZezpDt3v-95" value="发射&lt;div&gt;IS&lt;/div&gt;" style="text;html=1;align=center;verticalAlign=middle;resizable=0;points=[];autosize=1;strokeColor=none;fillColor=none;" parent="1" vertex="1">
          <mxGeometry x="575" y="880" width="50" height="40" as="geometry" />
        </mxCell>
        <mxCell id="lFrxi4bXQztLZezpDt3v-96" value="执行&amp;amp;访存&lt;div&gt;EX&amp;amp;MEM&lt;/div&gt;" style="text;html=1;align=center;verticalAlign=middle;resizable=0;points=[];autosize=1;strokeColor=none;fillColor=none;" parent="1" vertex="1">
          <mxGeometry x="785.01" y="880" width="80" height="40" as="geometry" />
        </mxCell>
        <mxCell id="lFrxi4bXQztLZezpDt3v-98" value="写回&lt;div&gt;WB&lt;/div&gt;" style="text;html=1;align=center;verticalAlign=middle;resizable=0;points=[];autosize=1;strokeColor=none;fillColor=none;" parent="1" vertex="1">
          <mxGeometry x="1000" y="880" width="50" height="40" as="geometry" />
        </mxCell>
        <mxCell id="lFrxi4bXQztLZezpDt3v-116" style="edgeStyle=orthogonalEdgeStyle;rounded=0;orthogonalLoop=1;jettySize=auto;html=1;exitX=1;exitY=0.5;exitDx=0;exitDy=0;entryX=0;entryY=0.5;entryDx=0;entryDy=0;endArrow=none;startFill=0;" parent="1" source="lFrxi4bXQztLZezpDt3v-102" target="lFrxi4bXQztLZezpDt3v-113" edge="1">
          <mxGeometry relative="1" as="geometry">
            <Array as="points">
              <mxPoint x="640" y="845" />
            </Array>
          </mxGeometry>
        </mxCell>
        <mxCell id="lFrxi4bXQztLZezpDt3v-102" value="Issue queue" style="rounded=1;whiteSpace=wrap;html=1;arcSize=32;" parent="1" vertex="1">
          <mxGeometry x="600.01" y="830" width="40" height="30" as="geometry" />
        </mxCell>
        <mxCell id="lFrxi4bXQztLZezpDt3v-109" value="" style="endArrow=none;html=1;rounded=0;exitX=0;exitY=0.5;exitDx=0;exitDy=0;entryX=1;entryY=0.5;entryDx=0;entryDy=0;" parent="1" source="lFrxi4bXQztLZezpDt3v-25" target="lFrxi4bXQztLZezpDt3v-19" edge="1">
          <mxGeometry width="50" height="50" relative="1" as="geometry">
            <mxPoint x="624.01" y="820" as="sourcePoint" />
            <mxPoint x="600" y="820.5" as="targetPoint" />
          </mxGeometry>
        </mxCell>
        <mxCell id="lFrxi4bXQztLZezpDt3v-112" value="" style="group" parent="1" vertex="1" connectable="0">
          <mxGeometry x="660" y="825" width="10" height="40" as="geometry" />
        </mxCell>
        <mxCell id="lFrxi4bXQztLZezpDt3v-113" value="" style="rounded=0;whiteSpace=wrap;html=1;" parent="lFrxi4bXQztLZezpDt3v-112" vertex="1">
          <mxGeometry width="10" height="40" as="geometry" />
        </mxCell>
        <mxCell id="lFrxi4bXQztLZezpDt3v-114" value="" style="triangle;whiteSpace=wrap;html=1;rotation=-90;" parent="lFrxi4bXQztLZezpDt3v-112" vertex="1">
          <mxGeometry x="2.5" y="32.5" width="5" height="10" as="geometry" />
        </mxCell>
        <mxCell id="lFrxi4bXQztLZezpDt3v-118" style="edgeStyle=orthogonalEdgeStyle;rounded=0;orthogonalLoop=1;jettySize=auto;html=1;entryX=0;entryY=0.5;entryDx=0;entryDy=0;" parent="1" target="lFrxi4bXQztLZezpDt3v-117" edge="1">
          <mxGeometry relative="1" as="geometry">
            <mxPoint x="670" y="845" as="sourcePoint" />
          </mxGeometry>
        </mxCell>
        <mxCell id="lFrxi4bXQztLZezpDt3v-126" style="edgeStyle=orthogonalEdgeStyle;rounded=0;orthogonalLoop=1;jettySize=auto;html=1;exitX=1;exitY=0.5;exitDx=0;exitDy=0;entryX=0;entryY=0.5;entryDx=0;entryDy=0;" parent="1" source="lFrxi4bXQztLZezpDt3v-117" target="lFrxi4bXQztLZezpDt3v-123" edge="1">
          <mxGeometry relative="1" as="geometry" />
        </mxCell>
        <mxCell id="lFrxi4bXQztLZezpDt3v-117" value="D-cache" style="rounded=1;whiteSpace=wrap;html=1;arcSize=32;" parent="1" vertex="1">
          <mxGeometry x="770.01" y="832.5" width="50" height="25" as="geometry" />
        </mxCell>
        <mxCell id="lFrxi4bXQztLZezpDt3v-122" value="" style="group" parent="1" vertex="1" connectable="0">
          <mxGeometry x="900" y="825" width="10" height="40" as="geometry" />
        </mxCell>
        <mxCell id="lFrxi4bXQztLZezpDt3v-123" value="" style="rounded=0;whiteSpace=wrap;html=1;" parent="lFrxi4bXQztLZezpDt3v-122" vertex="1">
          <mxGeometry width="10" height="40" as="geometry" />
        </mxCell>
        <mxCell id="lFrxi4bXQztLZezpDt3v-124" value="" style="triangle;whiteSpace=wrap;html=1;rotation=-90;" parent="lFrxi4bXQztLZezpDt3v-122" vertex="1">
          <mxGeometry x="2.5" y="32.5" width="5" height="10" as="geometry" />
        </mxCell>
        <mxCell id="lFrxi4bXQztLZezpDt3v-128" style="rounded=0;orthogonalLoop=1;jettySize=auto;html=1;exitX=1;exitY=0.5;exitDx=0;exitDy=0;entryX=0;entryY=0.75;entryDx=0;entryDy=0;" parent="1" source="lFrxi4bXQztLZezpDt3v-123" target="lFrxi4bXQztLZezpDt3v-78" edge="1">
          <mxGeometry relative="1" as="geometry" />
        </mxCell>
        <mxCell id="hMbX31xOWf107lPdRhjI-3" value="" style="endArrow=none;html=1;rounded=0;exitX=0;exitY=0.5;exitDx=0;exitDy=0;entryX=1;entryY=0.5;entryDx=0;entryDy=0;" edge="1" parent="1">
          <mxGeometry width="50" height="50" relative="1" as="geometry">
            <mxPoint x="600" y="754.71" as="sourcePoint" />
            <mxPoint x="575" y="754.71" as="targetPoint" />
          </mxGeometry>
        </mxCell>
        <mxCell id="hMbX31xOWf107lPdRhjI-5" value="" style="endArrow=none;html=1;rounded=0;exitX=0;exitY=0.5;exitDx=0;exitDy=0;entryX=1;entryY=0.5;entryDx=0;entryDy=0;" edge="1" parent="1">
          <mxGeometry width="50" height="50" relative="1" as="geometry">
            <mxPoint x="600.01" y="844.71" as="sourcePoint" />
            <mxPoint x="575.01" y="844.71" as="targetPoint" />
          </mxGeometry>
        </mxCell>
        <mxCell id="hMbX31xOWf107lPdRhjI-7" value="" style="endArrow=none;dashed=1;html=1;rounded=0;" edge="1" parent="1">
          <mxGeometry width="50" height="50" relative="1" as="geometry">
            <mxPoint x="830" y="830" as="sourcePoint" />
            <mxPoint x="830.01" y="720" as="targetPoint" />
          </mxGeometry>
        </mxCell>
        <mxCell id="hMbX31xOWf107lPdRhjI-9" value="" style="endArrow=none;dashed=1;html=1;rounded=0;" edge="1" parent="1">
          <mxGeometry width="50" height="50" relative="1" as="geometry">
            <mxPoint x="670.01" y="900" as="sourcePoint" />
            <mxPoint x="670.02" y="720" as="targetPoint" />
          </mxGeometry>
        </mxCell>
        <mxCell id="hMbX31xOWf107lPdRhjI-10" value="" style="endArrow=none;dashed=1;html=1;rounded=0;" edge="1" parent="1">
          <mxGeometry width="50" height="50" relative="1" as="geometry">
            <mxPoint x="990.01" y="900" as="sourcePoint" />
            <mxPoint x="990.02" y="720" as="targetPoint" />
          </mxGeometry>
        </mxCell>
      </root>
    </mxGraphModel>
  </diagram>
  <diagram id="-Rn1KVdJToXu2CkRtmF2" name="6-12">
    <mxGraphModel dx="1371" dy="-269" grid="1" gridSize="10" guides="1" tooltips="1" connect="1" arrows="1" fold="1" page="1" pageScale="1" pageWidth="827" pageHeight="1169" math="0" shadow="0">
      <root>
        <mxCell id="0" />
        <mxCell id="1" parent="0" />
        <mxCell id="V4d6F1ccgwOas6d38mok-1" value="" style="group" vertex="1" connectable="0" parent="1">
          <mxGeometry x="140" y="1280" width="20.004999999999995" height="80" as="geometry" />
        </mxCell>
        <mxCell id="V4d6F1ccgwOas6d38mok-2" value="PC" style="rounded=0;whiteSpace=wrap;html=1;" vertex="1" parent="V4d6F1ccgwOas6d38mok-1">
          <mxGeometry width="20" height="80" as="geometry" />
        </mxCell>
        <mxCell id="V4d6F1ccgwOas6d38mok-3" value="" style="triangle;whiteSpace=wrap;html=1;rotation=-90;" vertex="1" parent="V4d6F1ccgwOas6d38mok-1">
          <mxGeometry x="3.1299999999999955" y="61.879999999999995" width="13.75" height="20" as="geometry" />
        </mxCell>
        <mxCell id="V4d6F1ccgwOas6d38mok-4" value="" style="group" vertex="1" connectable="0" parent="1">
          <mxGeometry x="260" y="1280" width="20.004999999999995" height="80" as="geometry" />
        </mxCell>
        <mxCell id="V4d6F1ccgwOas6d38mok-5" value="F/D" style="rounded=0;whiteSpace=wrap;html=1;" vertex="1" parent="V4d6F1ccgwOas6d38mok-4">
          <mxGeometry width="20" height="80" as="geometry" />
        </mxCell>
        <mxCell id="V4d6F1ccgwOas6d38mok-6" value="" style="triangle;whiteSpace=wrap;html=1;rotation=-90;" vertex="1" parent="V4d6F1ccgwOas6d38mok-4">
          <mxGeometry x="3.1299999999999955" y="61.879999999999995" width="13.75" height="20" as="geometry" />
        </mxCell>
        <mxCell id="V4d6F1ccgwOas6d38mok-7" style="edgeStyle=orthogonalEdgeStyle;rounded=0;orthogonalLoop=1;jettySize=auto;html=1;exitX=1;exitY=0.5;exitDx=0;exitDy=0;entryX=0;entryY=0.5;entryDx=0;entryDy=0;endArrow=none;startFill=0;" edge="1" parent="1" source="V4d6F1ccgwOas6d38mok-8" target="V4d6F1ccgwOas6d38mok-5">
          <mxGeometry relative="1" as="geometry" />
        </mxCell>
        <mxCell id="V4d6F1ccgwOas6d38mok-8" value="I-cache" style="rounded=1;whiteSpace=wrap;html=1;arcSize=32;" vertex="1" parent="1">
          <mxGeometry x="180" y="1305" width="60" height="30" as="geometry" />
        </mxCell>
        <mxCell id="V4d6F1ccgwOas6d38mok-9" style="edgeStyle=orthogonalEdgeStyle;rounded=0;orthogonalLoop=1;jettySize=auto;html=1;exitX=1;exitY=0.5;exitDx=0;exitDy=0;entryX=0;entryY=0.5;entryDx=0;entryDy=0;endArrow=none;startFill=0;" edge="1" parent="1" source="V4d6F1ccgwOas6d38mok-2" target="V4d6F1ccgwOas6d38mok-8">
          <mxGeometry relative="1" as="geometry" />
        </mxCell>
        <mxCell id="V4d6F1ccgwOas6d38mok-10" style="edgeStyle=orthogonalEdgeStyle;rounded=0;orthogonalLoop=1;jettySize=auto;html=1;exitX=1;exitY=0.5;exitDx=0;exitDy=0;entryX=0;entryY=0.5;entryDx=0;entryDy=0;endArrow=none;startFill=0;" edge="1" parent="1" source="V4d6F1ccgwOas6d38mok-11" target="V4d6F1ccgwOas6d38mok-77">
          <mxGeometry relative="1" as="geometry" />
        </mxCell>
        <mxCell id="V4d6F1ccgwOas6d38mok-11" value="decode" style="rounded=1;whiteSpace=wrap;html=1;arcSize=32;" vertex="1" parent="1">
          <mxGeometry x="300" y="1305" width="60" height="30" as="geometry" />
        </mxCell>
        <mxCell id="V4d6F1ccgwOas6d38mok-12" style="edgeStyle=orthogonalEdgeStyle;rounded=0;orthogonalLoop=1;jettySize=auto;html=1;exitX=1;exitY=0.5;exitDx=0;exitDy=0;entryX=0;entryY=0.5;entryDx=0;entryDy=0;endArrow=none;startFill=0;" edge="1" parent="1" source="V4d6F1ccgwOas6d38mok-5" target="V4d6F1ccgwOas6d38mok-11">
          <mxGeometry relative="1" as="geometry" />
        </mxCell>
        <mxCell id="V4d6F1ccgwOas6d38mok-13" style="edgeStyle=orthogonalEdgeStyle;rounded=0;orthogonalLoop=1;jettySize=auto;html=1;exitX=1;exitY=0.5;exitDx=0;exitDy=0;entryX=0;entryY=0.5;entryDx=0;entryDy=0;endArrow=none;startFill=0;" edge="1" parent="1" source="V4d6F1ccgwOas6d38mok-14" target="V4d6F1ccgwOas6d38mok-16">
          <mxGeometry relative="1" as="geometry" />
        </mxCell>
        <mxCell id="V4d6F1ccgwOas6d38mok-14" value="RAT" style="rounded=1;whiteSpace=wrap;html=1;arcSize=32;" vertex="1" parent="1">
          <mxGeometry x="420" y="1305" width="60" height="30" as="geometry" />
        </mxCell>
        <mxCell id="V4d6F1ccgwOas6d38mok-15" value="" style="group" vertex="1" connectable="0" parent="1">
          <mxGeometry x="500" y="1280" width="20.004999999999995" height="80" as="geometry" />
        </mxCell>
        <mxCell id="V4d6F1ccgwOas6d38mok-16" value="R/I" style="rounded=0;whiteSpace=wrap;html=1;" vertex="1" parent="V4d6F1ccgwOas6d38mok-15">
          <mxGeometry width="20" height="80" as="geometry" />
        </mxCell>
        <mxCell id="V4d6F1ccgwOas6d38mok-17" value="" style="triangle;whiteSpace=wrap;html=1;rotation=-90;" vertex="1" parent="V4d6F1ccgwOas6d38mok-15">
          <mxGeometry x="3.1299999999999955" y="61.879999999999995" width="13.75" height="20" as="geometry" />
        </mxCell>
        <mxCell id="V4d6F1ccgwOas6d38mok-18" value="" style="endArrow=none;dashed=1;html=1;rounded=0;" edge="1" parent="V4d6F1ccgwOas6d38mok-15">
          <mxGeometry width="50" height="50" relative="1" as="geometry">
            <mxPoint x="20" y="140" as="sourcePoint" />
            <mxPoint x="20.00999999999999" y="-40" as="targetPoint" />
          </mxGeometry>
        </mxCell>
        <mxCell id="V4d6F1ccgwOas6d38mok-19" value="Issue logic" style="rounded=1;whiteSpace=wrap;arcSize=32;" vertex="1" parent="1">
          <mxGeometry x="545" y="1255" width="30" height="130" as="geometry" />
        </mxCell>
        <mxCell id="V4d6F1ccgwOas6d38mok-20" style="edgeStyle=orthogonalEdgeStyle;rounded=0;orthogonalLoop=1;jettySize=auto;html=1;exitX=1;exitY=0.5;exitDx=0;exitDy=0;entryX=0;entryY=0.5;entryDx=0;entryDy=0;endArrow=none;startFill=0;" edge="1" parent="1" source="V4d6F1ccgwOas6d38mok-16" target="V4d6F1ccgwOas6d38mok-19">
          <mxGeometry relative="1" as="geometry" />
        </mxCell>
        <mxCell id="V4d6F1ccgwOas6d38mok-21" style="edgeStyle=orthogonalEdgeStyle;rounded=0;orthogonalLoop=1;jettySize=auto;html=1;exitX=1;exitY=0.5;exitDx=0;exitDy=0;entryX=0;entryY=0.5;entryDx=0;entryDy=0;endArrow=none;startFill=0;" edge="1" parent="1" source="V4d6F1ccgwOas6d38mok-22" target="V4d6F1ccgwOas6d38mok-26">
          <mxGeometry relative="1" as="geometry" />
        </mxCell>
        <mxCell id="V4d6F1ccgwOas6d38mok-22" value="Issue queue" style="rounded=1;whiteSpace=wrap;html=1;arcSize=32;" vertex="1" parent="1">
          <mxGeometry x="600.01" y="1249.5" width="40" height="30" as="geometry" />
        </mxCell>
        <mxCell id="V4d6F1ccgwOas6d38mok-23" style="edgeStyle=orthogonalEdgeStyle;rounded=0;orthogonalLoop=1;jettySize=auto;html=1;exitX=1;exitY=0.5;exitDx=0;exitDy=0;entryX=0;entryY=0.5;entryDx=0;entryDy=0;endArrow=none;startFill=0;" edge="1" parent="1" source="V4d6F1ccgwOas6d38mok-24" target="V4d6F1ccgwOas6d38mok-30">
          <mxGeometry relative="1" as="geometry" />
        </mxCell>
        <mxCell id="V4d6F1ccgwOas6d38mok-24" value="Issue queue" style="rounded=1;whiteSpace=wrap;html=1;arcSize=32;" vertex="1" parent="1">
          <mxGeometry x="600.01" y="1305" width="40" height="30" as="geometry" />
        </mxCell>
        <mxCell id="V4d6F1ccgwOas6d38mok-25" value="" style="group" vertex="1" connectable="0" parent="1">
          <mxGeometry x="660.01" y="1244.5" width="10" height="40" as="geometry" />
        </mxCell>
        <mxCell id="V4d6F1ccgwOas6d38mok-26" value="" style="rounded=0;whiteSpace=wrap;html=1;" vertex="1" parent="V4d6F1ccgwOas6d38mok-25">
          <mxGeometry width="10" height="40" as="geometry" />
        </mxCell>
        <mxCell id="V4d6F1ccgwOas6d38mok-27" value="" style="triangle;whiteSpace=wrap;html=1;rotation=-90;" vertex="1" parent="V4d6F1ccgwOas6d38mok-25">
          <mxGeometry x="2.5" y="32.5" width="5" height="10" as="geometry" />
        </mxCell>
        <mxCell id="V4d6F1ccgwOas6d38mok-28" value="" style="endArrow=none;dashed=1;html=1;rounded=0;" edge="1" parent="V4d6F1ccgwOas6d38mok-25">
          <mxGeometry width="50" height="50" relative="1" as="geometry">
            <mxPoint x="10" y="150" as="sourcePoint" />
            <mxPoint x="10" y="-30" as="targetPoint" />
          </mxGeometry>
        </mxCell>
        <mxCell id="V4d6F1ccgwOas6d38mok-29" value="" style="group" vertex="1" connectable="0" parent="1">
          <mxGeometry x="660.01" y="1300" width="10" height="40" as="geometry" />
        </mxCell>
        <mxCell id="V4d6F1ccgwOas6d38mok-30" value="" style="rounded=0;whiteSpace=wrap;html=1;" vertex="1" parent="V4d6F1ccgwOas6d38mok-29">
          <mxGeometry width="10" height="40" as="geometry" />
        </mxCell>
        <mxCell id="V4d6F1ccgwOas6d38mok-31" value="" style="triangle;whiteSpace=wrap;html=1;rotation=-90;" vertex="1" parent="V4d6F1ccgwOas6d38mok-29">
          <mxGeometry x="2.5" y="32.5" width="5" height="10" as="geometry" />
        </mxCell>
        <mxCell id="V4d6F1ccgwOas6d38mok-32" value="" style="group" vertex="1" connectable="0" parent="1">
          <mxGeometry x="740.01" y="1244.5" width="10" height="40" as="geometry" />
        </mxCell>
        <mxCell id="V4d6F1ccgwOas6d38mok-33" value="" style="rounded=0;whiteSpace=wrap;html=1;" vertex="1" parent="V4d6F1ccgwOas6d38mok-32">
          <mxGeometry width="10" height="40" as="geometry" />
        </mxCell>
        <mxCell id="V4d6F1ccgwOas6d38mok-34" value="" style="triangle;whiteSpace=wrap;html=1;rotation=-90;" vertex="1" parent="V4d6F1ccgwOas6d38mok-32">
          <mxGeometry x="2.5" y="32.5" width="5" height="10" as="geometry" />
        </mxCell>
        <mxCell id="V4d6F1ccgwOas6d38mok-35" style="edgeStyle=orthogonalEdgeStyle;rounded=0;orthogonalLoop=1;jettySize=auto;html=1;exitX=1;exitY=0.5;exitDx=0;exitDy=0;entryX=0;entryY=0.5;entryDx=0;entryDy=0;" edge="1" parent="1" source="V4d6F1ccgwOas6d38mok-36" target="V4d6F1ccgwOas6d38mok-33">
          <mxGeometry relative="1" as="geometry" />
        </mxCell>
        <mxCell id="V4d6F1ccgwOas6d38mok-36" value="A0" style="rounded=1;whiteSpace=wrap;html=1;arcSize=32;" vertex="1" parent="1">
          <mxGeometry x="690.01" y="1254.5" width="30" height="20" as="geometry" />
        </mxCell>
        <mxCell id="V4d6F1ccgwOas6d38mok-37" value="" style="group" vertex="1" connectable="0" parent="1">
          <mxGeometry x="820.01" y="1244.5" width="10" height="40" as="geometry" />
        </mxCell>
        <mxCell id="V4d6F1ccgwOas6d38mok-38" value="" style="rounded=0;whiteSpace=wrap;html=1;" vertex="1" parent="V4d6F1ccgwOas6d38mok-37">
          <mxGeometry width="10" height="40" as="geometry" />
        </mxCell>
        <mxCell id="V4d6F1ccgwOas6d38mok-39" value="" style="triangle;whiteSpace=wrap;html=1;rotation=-90;" vertex="1" parent="V4d6F1ccgwOas6d38mok-37">
          <mxGeometry x="2.5" y="32.5" width="5" height="10" as="geometry" />
        </mxCell>
        <mxCell id="V4d6F1ccgwOas6d38mok-40" value="" style="endArrow=none;dashed=1;html=1;rounded=0;" edge="1" parent="V4d6F1ccgwOas6d38mok-37">
          <mxGeometry width="50" height="50" relative="1" as="geometry">
            <mxPoint x="10" y="130" as="sourcePoint" />
            <mxPoint x="10" y="-30" as="targetPoint" />
          </mxGeometry>
        </mxCell>
        <mxCell id="V4d6F1ccgwOas6d38mok-41" style="edgeStyle=orthogonalEdgeStyle;rounded=0;orthogonalLoop=1;jettySize=auto;html=1;exitX=1;exitY=0.5;exitDx=0;exitDy=0;entryX=0;entryY=0.5;entryDx=0;entryDy=0;" edge="1" parent="1" source="V4d6F1ccgwOas6d38mok-42" target="V4d6F1ccgwOas6d38mok-38">
          <mxGeometry relative="1" as="geometry" />
        </mxCell>
        <mxCell id="V4d6F1ccgwOas6d38mok-42" value="A1" style="rounded=1;whiteSpace=wrap;html=1;arcSize=32;" vertex="1" parent="1">
          <mxGeometry x="770.01" y="1254.5" width="30" height="20" as="geometry" />
        </mxCell>
        <mxCell id="V4d6F1ccgwOas6d38mok-43" style="edgeStyle=orthogonalEdgeStyle;rounded=0;orthogonalLoop=1;jettySize=auto;html=1;exitX=1;exitY=0.5;exitDx=0;exitDy=0;entryX=0;entryY=0.5;entryDx=0;entryDy=0;" edge="1" parent="1" source="V4d6F1ccgwOas6d38mok-26" target="V4d6F1ccgwOas6d38mok-36">
          <mxGeometry relative="1" as="geometry" />
        </mxCell>
        <mxCell id="V4d6F1ccgwOas6d38mok-44" style="edgeStyle=orthogonalEdgeStyle;rounded=0;orthogonalLoop=1;jettySize=auto;html=1;exitX=1;exitY=0.5;exitDx=0;exitDy=0;entryX=0;entryY=0.5;entryDx=0;entryDy=0;" edge="1" parent="1" source="V4d6F1ccgwOas6d38mok-33" target="V4d6F1ccgwOas6d38mok-42">
          <mxGeometry relative="1" as="geometry" />
        </mxCell>
        <mxCell id="V4d6F1ccgwOas6d38mok-45" value="" style="group" vertex="1" connectable="0" parent="1">
          <mxGeometry x="740.01" y="1300" width="10" height="40" as="geometry" />
        </mxCell>
        <mxCell id="V4d6F1ccgwOas6d38mok-46" value="" style="rounded=0;whiteSpace=wrap;html=1;" vertex="1" parent="V4d6F1ccgwOas6d38mok-45">
          <mxGeometry width="10" height="40" as="geometry" />
        </mxCell>
        <mxCell id="V4d6F1ccgwOas6d38mok-47" value="" style="triangle;whiteSpace=wrap;html=1;rotation=-90;" vertex="1" parent="V4d6F1ccgwOas6d38mok-45">
          <mxGeometry x="2.5" y="32.5" width="5" height="10" as="geometry" />
        </mxCell>
        <mxCell id="V4d6F1ccgwOas6d38mok-48" style="edgeStyle=orthogonalEdgeStyle;rounded=0;orthogonalLoop=1;jettySize=auto;html=1;exitX=1;exitY=0.5;exitDx=0;exitDy=0;entryX=0;entryY=0.5;entryDx=0;entryDy=0;" edge="1" parent="1" source="V4d6F1ccgwOas6d38mok-49" target="V4d6F1ccgwOas6d38mok-46">
          <mxGeometry relative="1" as="geometry" />
        </mxCell>
        <mxCell id="V4d6F1ccgwOas6d38mok-49" value="M0" style="rounded=1;whiteSpace=wrap;html=1;arcSize=32;" vertex="1" parent="1">
          <mxGeometry x="690.01" y="1310" width="30" height="20" as="geometry" />
        </mxCell>
        <mxCell id="V4d6F1ccgwOas6d38mok-50" value="" style="group" vertex="1" connectable="0" parent="1">
          <mxGeometry x="820.01" y="1300" width="10" height="40" as="geometry" />
        </mxCell>
        <mxCell id="V4d6F1ccgwOas6d38mok-51" value="" style="rounded=0;whiteSpace=wrap;html=1;" vertex="1" parent="V4d6F1ccgwOas6d38mok-50">
          <mxGeometry width="10" height="40" as="geometry" />
        </mxCell>
        <mxCell id="V4d6F1ccgwOas6d38mok-52" value="" style="triangle;whiteSpace=wrap;html=1;rotation=-90;" vertex="1" parent="V4d6F1ccgwOas6d38mok-50">
          <mxGeometry x="2.5" y="32.5" width="5" height="10" as="geometry" />
        </mxCell>
        <mxCell id="V4d6F1ccgwOas6d38mok-53" style="edgeStyle=orthogonalEdgeStyle;rounded=0;orthogonalLoop=1;jettySize=auto;html=1;exitX=1;exitY=0.5;exitDx=0;exitDy=0;entryX=0;entryY=0.5;entryDx=0;entryDy=0;" edge="1" parent="1" source="V4d6F1ccgwOas6d38mok-54" target="V4d6F1ccgwOas6d38mok-51">
          <mxGeometry relative="1" as="geometry" />
        </mxCell>
        <mxCell id="V4d6F1ccgwOas6d38mok-54" value="M1" style="rounded=1;whiteSpace=wrap;html=1;arcSize=32;" vertex="1" parent="1">
          <mxGeometry x="770.01" y="1310" width="30" height="20" as="geometry" />
        </mxCell>
        <mxCell id="V4d6F1ccgwOas6d38mok-55" style="edgeStyle=orthogonalEdgeStyle;rounded=0;orthogonalLoop=1;jettySize=auto;html=1;exitX=1;exitY=0.5;exitDx=0;exitDy=0;entryX=0;entryY=0.5;entryDx=0;entryDy=0;" edge="1" parent="1" source="V4d6F1ccgwOas6d38mok-46" target="V4d6F1ccgwOas6d38mok-54">
          <mxGeometry relative="1" as="geometry" />
        </mxCell>
        <mxCell id="V4d6F1ccgwOas6d38mok-56" value="" style="group" vertex="1" connectable="0" parent="1">
          <mxGeometry x="900.01" y="1300" width="10" height="40" as="geometry" />
        </mxCell>
        <mxCell id="V4d6F1ccgwOas6d38mok-57" value="" style="rounded=0;whiteSpace=wrap;html=1;" vertex="1" parent="V4d6F1ccgwOas6d38mok-56">
          <mxGeometry width="10" height="40" as="geometry" />
        </mxCell>
        <mxCell id="V4d6F1ccgwOas6d38mok-58" value="" style="triangle;whiteSpace=wrap;html=1;rotation=-90;" vertex="1" parent="V4d6F1ccgwOas6d38mok-56">
          <mxGeometry x="2.5" y="32.5" width="5" height="10" as="geometry" />
        </mxCell>
        <mxCell id="V4d6F1ccgwOas6d38mok-59" style="edgeStyle=orthogonalEdgeStyle;rounded=0;orthogonalLoop=1;jettySize=auto;html=1;exitX=1;exitY=0.5;exitDx=0;exitDy=0;entryX=0;entryY=0.5;entryDx=0;entryDy=0;" edge="1" parent="1" source="V4d6F1ccgwOas6d38mok-60" target="V4d6F1ccgwOas6d38mok-57">
          <mxGeometry relative="1" as="geometry" />
        </mxCell>
        <mxCell id="V4d6F1ccgwOas6d38mok-60" value="M2" style="rounded=1;whiteSpace=wrap;html=1;arcSize=32;" vertex="1" parent="1">
          <mxGeometry x="850.01" y="1310" width="30" height="20" as="geometry" />
        </mxCell>
        <mxCell id="V4d6F1ccgwOas6d38mok-61" value="" style="group" vertex="1" connectable="0" parent="1">
          <mxGeometry x="980.01" y="1300" width="10" height="40" as="geometry" />
        </mxCell>
        <mxCell id="V4d6F1ccgwOas6d38mok-62" value="" style="rounded=0;whiteSpace=wrap;html=1;" vertex="1" parent="V4d6F1ccgwOas6d38mok-61">
          <mxGeometry width="10" height="40" as="geometry" />
        </mxCell>
        <mxCell id="V4d6F1ccgwOas6d38mok-63" value="" style="triangle;whiteSpace=wrap;html=1;rotation=-90;" vertex="1" parent="V4d6F1ccgwOas6d38mok-61">
          <mxGeometry x="2.5" y="32.5" width="5" height="10" as="geometry" />
        </mxCell>
        <mxCell id="V4d6F1ccgwOas6d38mok-64" style="edgeStyle=orthogonalEdgeStyle;rounded=0;orthogonalLoop=1;jettySize=auto;html=1;exitX=1;exitY=0.5;exitDx=0;exitDy=0;entryX=0;entryY=0.5;entryDx=0;entryDy=0;" edge="1" parent="1" source="V4d6F1ccgwOas6d38mok-65" target="V4d6F1ccgwOas6d38mok-62">
          <mxGeometry relative="1" as="geometry" />
        </mxCell>
        <mxCell id="V4d6F1ccgwOas6d38mok-65" value="M3" style="rounded=1;whiteSpace=wrap;html=1;arcSize=32;" vertex="1" parent="1">
          <mxGeometry x="930.01" y="1310" width="30" height="20" as="geometry" />
        </mxCell>
        <mxCell id="V4d6F1ccgwOas6d38mok-66" style="edgeStyle=orthogonalEdgeStyle;rounded=0;orthogonalLoop=1;jettySize=auto;html=1;exitX=1;exitY=0.5;exitDx=0;exitDy=0;entryX=0;entryY=0.5;entryDx=0;entryDy=0;" edge="1" parent="1" source="V4d6F1ccgwOas6d38mok-57" target="V4d6F1ccgwOas6d38mok-65">
          <mxGeometry relative="1" as="geometry" />
        </mxCell>
        <mxCell id="V4d6F1ccgwOas6d38mok-67" style="edgeStyle=orthogonalEdgeStyle;rounded=0;orthogonalLoop=1;jettySize=auto;html=1;exitX=1;exitY=0.5;exitDx=0;exitDy=0;entryX=0;entryY=0.5;entryDx=0;entryDy=0;" edge="1" parent="1" source="V4d6F1ccgwOas6d38mok-30" target="V4d6F1ccgwOas6d38mok-49">
          <mxGeometry relative="1" as="geometry" />
        </mxCell>
        <mxCell id="V4d6F1ccgwOas6d38mok-68" style="edgeStyle=orthogonalEdgeStyle;rounded=0;orthogonalLoop=1;jettySize=auto;html=1;exitX=1;exitY=0.5;exitDx=0;exitDy=0;entryX=0;entryY=0.5;entryDx=0;entryDy=0;" edge="1" parent="1" source="V4d6F1ccgwOas6d38mok-51" target="V4d6F1ccgwOas6d38mok-60">
          <mxGeometry relative="1" as="geometry" />
        </mxCell>
        <mxCell id="V4d6F1ccgwOas6d38mok-69" style="rounded=0;orthogonalLoop=1;jettySize=auto;html=1;exitX=1;exitY=0.5;exitDx=0;exitDy=0;entryX=0;entryY=0.25;entryDx=0;entryDy=0;" edge="1" parent="1" target="V4d6F1ccgwOas6d38mok-72">
          <mxGeometry relative="1" as="geometry">
            <mxPoint x="830.0100000000002" y="1266.75" as="sourcePoint" />
            <mxPoint x="1030" y="1267" as="targetPoint" />
          </mxGeometry>
        </mxCell>
        <mxCell id="V4d6F1ccgwOas6d38mok-70" style="rounded=0;orthogonalLoop=1;jettySize=auto;html=1;exitX=1;exitY=0.5;exitDx=0;exitDy=0;entryX=0;entryY=0.5;entryDx=0;entryDy=0;" edge="1" parent="1" source="V4d6F1ccgwOas6d38mok-62" target="V4d6F1ccgwOas6d38mok-72">
          <mxGeometry relative="1" as="geometry">
            <mxPoint x="1020" y="1313" as="targetPoint" />
          </mxGeometry>
        </mxCell>
        <mxCell id="V4d6F1ccgwOas6d38mok-71" value="" style="group" vertex="1" connectable="0" parent="1">
          <mxGeometry x="1060" y="1280" width="20.004999999999995" height="80" as="geometry" />
        </mxCell>
        <mxCell id="V4d6F1ccgwOas6d38mok-72" value="WB" style="rounded=0;whiteSpace=wrap;html=1;" vertex="1" parent="V4d6F1ccgwOas6d38mok-71">
          <mxGeometry width="20" height="80" as="geometry" />
        </mxCell>
        <mxCell id="V4d6F1ccgwOas6d38mok-73" value="" style="triangle;whiteSpace=wrap;html=1;rotation=-90;" vertex="1" parent="V4d6F1ccgwOas6d38mok-71">
          <mxGeometry x="3.1299999999999955" y="61.879999999999995" width="13.75" height="20" as="geometry" />
        </mxCell>
        <mxCell id="V4d6F1ccgwOas6d38mok-74" value="" style="endArrow=none;dashed=1;html=1;rounded=0;" edge="1" parent="1">
          <mxGeometry width="50" height="50" relative="1" as="geometry">
            <mxPoint x="160" y="1420" as="sourcePoint" />
            <mxPoint x="160" y="1240" as="targetPoint" />
          </mxGeometry>
        </mxCell>
        <mxCell id="V4d6F1ccgwOas6d38mok-75" value="" style="endArrow=none;dashed=1;html=1;rounded=0;" edge="1" parent="1">
          <mxGeometry width="50" height="50" relative="1" as="geometry">
            <mxPoint x="280" y="1420" as="sourcePoint" />
            <mxPoint x="280.01" y="1240" as="targetPoint" />
          </mxGeometry>
        </mxCell>
        <mxCell id="V4d6F1ccgwOas6d38mok-76" value="" style="group" vertex="1" connectable="0" parent="1">
          <mxGeometry x="380" y="1280" width="20.004999999999995" height="80" as="geometry" />
        </mxCell>
        <mxCell id="V4d6F1ccgwOas6d38mok-77" value="D/R" style="rounded=0;whiteSpace=wrap;html=1;" vertex="1" parent="V4d6F1ccgwOas6d38mok-76">
          <mxGeometry width="20" height="80" as="geometry" />
        </mxCell>
        <mxCell id="V4d6F1ccgwOas6d38mok-78" value="" style="triangle;whiteSpace=wrap;html=1;rotation=-90;" vertex="1" parent="V4d6F1ccgwOas6d38mok-76">
          <mxGeometry x="3.1299999999999955" y="61.879999999999995" width="13.75" height="20" as="geometry" />
        </mxCell>
        <mxCell id="V4d6F1ccgwOas6d38mok-79" value="" style="endArrow=none;dashed=1;html=1;rounded=0;" edge="1" parent="V4d6F1ccgwOas6d38mok-76">
          <mxGeometry width="50" height="50" relative="1" as="geometry">
            <mxPoint x="20" y="140" as="sourcePoint" />
            <mxPoint x="20.00999999999999" y="-40" as="targetPoint" />
          </mxGeometry>
        </mxCell>
        <mxCell id="V4d6F1ccgwOas6d38mok-80" style="edgeStyle=orthogonalEdgeStyle;rounded=0;orthogonalLoop=1;jettySize=auto;html=1;exitX=1;exitY=0.5;exitDx=0;exitDy=0;entryX=0;entryY=0.5;entryDx=0;entryDy=0;endArrow=none;startFill=0;" edge="1" parent="1" source="V4d6F1ccgwOas6d38mok-77" target="V4d6F1ccgwOas6d38mok-14">
          <mxGeometry relative="1" as="geometry" />
        </mxCell>
        <mxCell id="V4d6F1ccgwOas6d38mok-81" value="" style="endArrow=none;dashed=1;html=1;rounded=0;" edge="1" parent="1">
          <mxGeometry width="50" height="50" relative="1" as="geometry">
            <mxPoint x="750" y="1400" as="sourcePoint" />
            <mxPoint x="750" y="1240" as="targetPoint" />
          </mxGeometry>
        </mxCell>
        <mxCell id="V4d6F1ccgwOas6d38mok-82" value="" style="endArrow=none;dashed=1;html=1;rounded=0;" edge="1" parent="1">
          <mxGeometry width="50" height="50" relative="1" as="geometry">
            <mxPoint x="910" y="1400" as="sourcePoint" />
            <mxPoint x="910" y="1240" as="targetPoint" />
          </mxGeometry>
        </mxCell>
        <mxCell id="V4d6F1ccgwOas6d38mok-83" value="" style="endArrow=none;dashed=1;html=1;rounded=0;" edge="1" parent="1">
          <mxGeometry width="50" height="50" relative="1" as="geometry">
            <mxPoint x="990" y="1420" as="sourcePoint" />
            <mxPoint x="990" y="1240" as="targetPoint" />
          </mxGeometry>
        </mxCell>
        <mxCell id="V4d6F1ccgwOas6d38mok-84" value="" style="endArrow=none;dashed=1;html=1;rounded=0;" edge="1" parent="1">
          <mxGeometry width="50" height="50" relative="1" as="geometry">
            <mxPoint x="1080" y="1418" as="sourcePoint" />
            <mxPoint x="1080" y="1240" as="targetPoint" />
          </mxGeometry>
        </mxCell>
        <mxCell id="V4d6F1ccgwOas6d38mok-85" value="取指&lt;div&gt;IF&lt;/div&gt;" style="text;html=1;align=center;verticalAlign=middle;resizable=0;points=[];autosize=1;strokeColor=none;fillColor=none;" vertex="1" parent="1">
          <mxGeometry x="190" y="1400" width="50" height="40" as="geometry" />
        </mxCell>
        <mxCell id="V4d6F1ccgwOas6d38mok-86" value="译码&lt;div&gt;ID&lt;/div&gt;" style="text;html=1;align=center;verticalAlign=middle;resizable=0;points=[];autosize=1;strokeColor=none;fillColor=none;" vertex="1" parent="1">
          <mxGeometry x="310" y="1400" width="50" height="40" as="geometry" />
        </mxCell>
        <mxCell id="V4d6F1ccgwOas6d38mok-87" value="重命名&lt;div&gt;RN&lt;/div&gt;" style="text;html=1;align=center;verticalAlign=middle;resizable=0;points=[];autosize=1;strokeColor=none;fillColor=none;" vertex="1" parent="1">
          <mxGeometry x="425" y="1400" width="60" height="40" as="geometry" />
        </mxCell>
        <mxCell id="V4d6F1ccgwOas6d38mok-88" value="发射&lt;div&gt;IS&lt;/div&gt;" style="text;html=1;align=center;verticalAlign=middle;resizable=0;points=[];autosize=1;strokeColor=none;fillColor=none;" vertex="1" parent="1">
          <mxGeometry x="575" y="1400" width="50" height="40" as="geometry" />
        </mxCell>
        <mxCell id="V4d6F1ccgwOas6d38mok-89" value="执行&amp;amp;访存&lt;div&gt;EX&amp;amp;MEM&lt;/div&gt;" style="text;html=1;align=center;verticalAlign=middle;resizable=0;points=[];autosize=1;strokeColor=none;fillColor=none;" vertex="1" parent="1">
          <mxGeometry x="815" y="1400" width="80" height="40" as="geometry" />
        </mxCell>
        <mxCell id="V4d6F1ccgwOas6d38mok-90" value="写回&lt;div&gt;WB&lt;/div&gt;" style="text;html=1;align=center;verticalAlign=middle;resizable=0;points=[];autosize=1;strokeColor=none;fillColor=none;" vertex="1" parent="1">
          <mxGeometry x="1000" y="1400" width="50" height="40" as="geometry" />
        </mxCell>
        <mxCell id="V4d6F1ccgwOas6d38mok-91" style="edgeStyle=orthogonalEdgeStyle;rounded=0;orthogonalLoop=1;jettySize=auto;html=1;exitX=1;exitY=0.5;exitDx=0;exitDy=0;entryX=0;entryY=0.5;entryDx=0;entryDy=0;endArrow=none;startFill=0;" edge="1" parent="1" source="V4d6F1ccgwOas6d38mok-92" target="V4d6F1ccgwOas6d38mok-97">
          <mxGeometry relative="1" as="geometry" />
        </mxCell>
        <mxCell id="V4d6F1ccgwOas6d38mok-92" value="Issue queue" style="rounded=1;whiteSpace=wrap;html=1;arcSize=32;" vertex="1" parent="1">
          <mxGeometry x="600.01" y="1360" width="40" height="30" as="geometry" />
        </mxCell>
        <mxCell id="V4d6F1ccgwOas6d38mok-93" value="" style="endArrow=none;html=1;rounded=0;exitX=0;exitY=0.5;exitDx=0;exitDy=0;entryX=1.033;entryY=0.885;entryDx=0;entryDy=0;entryPerimeter=0;" edge="1" parent="1" target="V4d6F1ccgwOas6d38mok-19">
          <mxGeometry width="50" height="50" relative="1" as="geometry">
            <mxPoint x="600.01" y="1369.5" as="sourcePoint" />
            <mxPoint x="580" y="1369.5" as="targetPoint" />
          </mxGeometry>
        </mxCell>
        <mxCell id="V4d6F1ccgwOas6d38mok-94" value="" style="endArrow=none;html=1;rounded=0;exitX=0;exitY=0.5;exitDx=0;exitDy=0;entryX=1.033;entryY=0.077;entryDx=0;entryDy=0;entryPerimeter=0;" edge="1" parent="1" source="V4d6F1ccgwOas6d38mok-22" target="V4d6F1ccgwOas6d38mok-19">
          <mxGeometry width="50" height="50" relative="1" as="geometry">
            <mxPoint x="604.01" y="1240" as="sourcePoint" />
            <mxPoint x="580" y="1240.5" as="targetPoint" />
          </mxGeometry>
        </mxCell>
        <mxCell id="V4d6F1ccgwOas6d38mok-95" value="" style="endArrow=none;html=1;rounded=0;exitX=0;exitY=0.5;exitDx=0;exitDy=0;entryX=1;entryY=0.5;entryDx=0;entryDy=0;" edge="1" parent="1" source="V4d6F1ccgwOas6d38mok-24" target="V4d6F1ccgwOas6d38mok-19">
          <mxGeometry width="50" height="50" relative="1" as="geometry">
            <mxPoint x="624.01" y="1340" as="sourcePoint" />
            <mxPoint x="600" y="1340.5" as="targetPoint" />
          </mxGeometry>
        </mxCell>
        <mxCell id="V4d6F1ccgwOas6d38mok-96" value="" style="group" vertex="1" connectable="0" parent="1">
          <mxGeometry x="660" y="1360" width="10" height="40" as="geometry" />
        </mxCell>
        <mxCell id="V4d6F1ccgwOas6d38mok-97" value="" style="rounded=0;whiteSpace=wrap;html=1;" vertex="1" parent="V4d6F1ccgwOas6d38mok-96">
          <mxGeometry width="10" height="40" as="geometry" />
        </mxCell>
        <mxCell id="V4d6F1ccgwOas6d38mok-98" value="" style="triangle;whiteSpace=wrap;html=1;rotation=-90;" vertex="1" parent="V4d6F1ccgwOas6d38mok-96">
          <mxGeometry x="2.5" y="32.5" width="5" height="10" as="geometry" />
        </mxCell>
        <mxCell id="V4d6F1ccgwOas6d38mok-99" value="" style="endArrow=none;dashed=1;html=1;rounded=0;" edge="1" parent="V4d6F1ccgwOas6d38mok-96">
          <mxGeometry width="50" height="50" relative="1" as="geometry">
            <mxPoint x="10" y="60" as="sourcePoint" />
            <mxPoint x="10" y="-30" as="targetPoint" />
          </mxGeometry>
        </mxCell>
        <mxCell id="V4d6F1ccgwOas6d38mok-100" style="edgeStyle=orthogonalEdgeStyle;rounded=0;orthogonalLoop=1;jettySize=auto;html=1;entryX=0;entryY=0.5;entryDx=0;entryDy=0;" edge="1" parent="1" target="V4d6F1ccgwOas6d38mok-102">
          <mxGeometry relative="1" as="geometry">
            <mxPoint x="670" y="1380" as="sourcePoint" />
          </mxGeometry>
        </mxCell>
        <mxCell id="V4d6F1ccgwOas6d38mok-101" style="edgeStyle=orthogonalEdgeStyle;rounded=0;orthogonalLoop=1;jettySize=auto;html=1;exitX=1;exitY=0.5;exitDx=0;exitDy=0;entryX=0;entryY=0.5;entryDx=0;entryDy=0;" edge="1" parent="1" source="V4d6F1ccgwOas6d38mok-102" target="V4d6F1ccgwOas6d38mok-104">
          <mxGeometry relative="1" as="geometry" />
        </mxCell>
        <mxCell id="V4d6F1ccgwOas6d38mok-102" value="D-cache" style="rounded=1;whiteSpace=wrap;html=1;arcSize=32;" vertex="1" parent="1">
          <mxGeometry x="760.01" y="1365" width="60" height="30" as="geometry" />
        </mxCell>
        <mxCell id="V4d6F1ccgwOas6d38mok-103" value="" style="group" vertex="1" connectable="0" parent="1">
          <mxGeometry x="900" y="1360" width="10" height="40" as="geometry" />
        </mxCell>
        <mxCell id="V4d6F1ccgwOas6d38mok-104" value="" style="rounded=0;whiteSpace=wrap;html=1;" vertex="1" parent="V4d6F1ccgwOas6d38mok-103">
          <mxGeometry width="10" height="40" as="geometry" />
        </mxCell>
        <mxCell id="V4d6F1ccgwOas6d38mok-105" value="" style="triangle;whiteSpace=wrap;html=1;rotation=-90;" vertex="1" parent="V4d6F1ccgwOas6d38mok-103">
          <mxGeometry x="2.5" y="32.5" width="5" height="10" as="geometry" />
        </mxCell>
        <mxCell id="V4d6F1ccgwOas6d38mok-106" style="rounded=0;orthogonalLoop=1;jettySize=auto;html=1;exitX=1;exitY=0.5;exitDx=0;exitDy=0;entryX=0;entryY=0.75;entryDx=0;entryDy=0;" edge="1" parent="1" source="V4d6F1ccgwOas6d38mok-104" target="V4d6F1ccgwOas6d38mok-72">
          <mxGeometry relative="1" as="geometry" />
        </mxCell>
        <mxCell id="vQf5a-WNya0LoDkrr-0b-9" style="edgeStyle=orthogonalEdgeStyle;rounded=0;orthogonalLoop=1;jettySize=auto;html=1;exitX=1;exitY=0.5;exitDx=0;exitDy=0;entryX=0;entryY=0.5;entryDx=0;entryDy=0;" edge="1" parent="1" source="vQf5a-WNya0LoDkrr-0b-1" target="vQf5a-WNya0LoDkrr-0b-3">
          <mxGeometry relative="1" as="geometry" />
        </mxCell>
        <mxCell id="vQf5a-WNya0LoDkrr-0b-1" value="Commit logic" style="rounded=1;whiteSpace=wrap;html=1;arcSize=32;" vertex="1" parent="1">
          <mxGeometry x="1100" y="1305" width="60" height="30" as="geometry" />
        </mxCell>
        <mxCell id="vQf5a-WNya0LoDkrr-0b-2" value="" style="group" vertex="1" connectable="0" parent="1">
          <mxGeometry x="1180" y="1280" width="20.004999999999995" height="80" as="geometry" />
        </mxCell>
        <mxCell id="vQf5a-WNya0LoDkrr-0b-3" value="CM" style="rounded=0;whiteSpace=wrap;html=1;" vertex="1" parent="vQf5a-WNya0LoDkrr-0b-2">
          <mxGeometry width="20" height="80" as="geometry" />
        </mxCell>
        <mxCell id="vQf5a-WNya0LoDkrr-0b-4" value="" style="triangle;whiteSpace=wrap;html=1;rotation=-90;" vertex="1" parent="vQf5a-WNya0LoDkrr-0b-2">
          <mxGeometry x="3.1299999999999955" y="61.879999999999995" width="13.75" height="20" as="geometry" />
        </mxCell>
        <mxCell id="vQf5a-WNya0LoDkrr-0b-6" value="" style="endArrow=none;dashed=1;html=1;rounded=0;" edge="1" parent="vQf5a-WNya0LoDkrr-0b-2">
          <mxGeometry width="50" height="50" relative="1" as="geometry">
            <mxPoint x="20" y="138" as="sourcePoint" />
            <mxPoint x="20" y="-40" as="targetPoint" />
          </mxGeometry>
        </mxCell>
        <mxCell id="vQf5a-WNya0LoDkrr-0b-7" value="提交&lt;div&gt;CM&lt;/div&gt;" style="text;html=1;align=center;verticalAlign=middle;resizable=0;points=[];autosize=1;strokeColor=none;fillColor=none;" vertex="1" parent="1">
          <mxGeometry x="1120" y="1400" width="50" height="40" as="geometry" />
        </mxCell>
        <mxCell id="vQf5a-WNya0LoDkrr-0b-8" style="edgeStyle=orthogonalEdgeStyle;rounded=0;orthogonalLoop=1;jettySize=auto;html=1;exitX=1;exitY=0.5;exitDx=0;exitDy=0;entryX=0;entryY=0.5;entryDx=0;entryDy=0;" edge="1" parent="1" source="V4d6F1ccgwOas6d38mok-72" target="vQf5a-WNya0LoDkrr-0b-1">
          <mxGeometry relative="1" as="geometry" />
        </mxCell>
      </root>
    </mxGraphModel>
  </diagram>
</mxfile>
